<?xml version="1.0" encoding="utf-8" standalone="no"?>
<!DOCTYPE svg PUBLIC "-//W3C//DTD SVG 1.1//EN"
  "http://www.w3.org/Graphics/SVG/1.1/DTD/svg11.dtd">
<svg xmlns:xlink="http://www.w3.org/1999/xlink" width="1080pt" height="720pt" viewBox="0 0 1080 720" xmlns="http://www.w3.org/2000/svg" version="1.1">
 <metadata>
  <rdf:RDF xmlns:dc="http://purl.org/dc/elements/1.1/" xmlns:cc="http://creativecommons.org/ns#" xmlns:rdf="http://www.w3.org/1999/02/22-rdf-syntax-ns#">
   <cc:Work>
    <dc:type rdf:resource="http://purl.org/dc/dcmitype/StillImage"/>
    <dc:date>2024-01-17T22:34:46.258055</dc:date>
    <dc:format>image/svg+xml</dc:format>
    <dc:creator>
     <cc:Agent>
      <dc:title>Matplotlib v3.7.4, https://matplotlib.org/</dc:title>
     </cc:Agent>
    </dc:creator>
   </cc:Work>
  </rdf:RDF>
 </metadata>
 <defs>
  <style type="text/css">*{stroke-linejoin: round; stroke-linecap: butt}</style>
 </defs>
 <g id="figure_1">
  <g id="patch_1">
   <path d="M 0 720 
L 1080 720 
L 1080 0 
L 0 0 
z
" style="fill: #ffffff"/>
  </g>
  <g id="axes_1">
   <g id="patch_2">
    <path d="M 135 640.8 
L 972 640.8 
L 972 86.4 
L 135 86.4 
z
" style="fill: #ffffff"/>
   </g>
   <g id="matplotlib.axis_1">
    <g id="xtick_1">
     <g id="line2d_1">
      <defs>
       <path id="m55b202feed" d="M 0 0 
L 0 3.5 
" style="stroke: #000000; stroke-width: 0.8"/>
      </defs>
      <g>
       <use xlink:href="#m55b202feed" x="173.045455" y="640.8" style="stroke: #000000; stroke-width: 0.8"/>
      </g>
     </g>
     <g id="text_1">
      <!-- 0 -->
      <g transform="translate(169.864205 655.398438) scale(0.1 -0.1)">
       <defs>
        <path id="DejaVuSans-30" d="M 2034 4250 
Q 1547 4250 1301 3770 
Q 1056 3291 1056 2328 
Q 1056 1369 1301 889 
Q 1547 409 2034 409 
Q 2525 409 2770 889 
Q 3016 1369 3016 2328 
Q 3016 3291 2770 3770 
Q 2525 4250 2034 4250 
z
M 2034 4750 
Q 2819 4750 3233 4129 
Q 3647 3509 3647 2328 
Q 3647 1150 3233 529 
Q 2819 -91 2034 -91 
Q 1250 -91 836 529 
Q 422 1150 422 2328 
Q 422 3509 836 4129 
Q 1250 4750 2034 4750 
z
" transform="scale(0.015625)"/>
       </defs>
       <use xlink:href="#DejaVuSans-30"/>
      </g>
     </g>
    </g>
    <g id="xtick_2">
     <g id="line2d_2">
      <g>
       <use xlink:href="#m55b202feed" x="268.637049" y="640.8" style="stroke: #000000; stroke-width: 0.8"/>
      </g>
     </g>
     <g id="text_2">
      <!-- 25 -->
      <g transform="translate(262.274549 655.398438) scale(0.1 -0.1)">
       <defs>
        <path id="DejaVuSans-32" d="M 1228 531 
L 3431 531 
L 3431 0 
L 469 0 
L 469 531 
Q 828 903 1448 1529 
Q 2069 2156 2228 2338 
Q 2531 2678 2651 2914 
Q 2772 3150 2772 3378 
Q 2772 3750 2511 3984 
Q 2250 4219 1831 4219 
Q 1534 4219 1204 4116 
Q 875 4013 500 3803 
L 500 4441 
Q 881 4594 1212 4672 
Q 1544 4750 1819 4750 
Q 2544 4750 2975 4387 
Q 3406 4025 3406 3419 
Q 3406 3131 3298 2873 
Q 3191 2616 2906 2266 
Q 2828 2175 2409 1742 
Q 1991 1309 1228 531 
z
" transform="scale(0.015625)"/>
        <path id="DejaVuSans-35" d="M 691 4666 
L 3169 4666 
L 3169 4134 
L 1269 4134 
L 1269 2991 
Q 1406 3038 1543 3061 
Q 1681 3084 1819 3084 
Q 2600 3084 3056 2656 
Q 3513 2228 3513 1497 
Q 3513 744 3044 326 
Q 2575 -91 1722 -91 
Q 1428 -91 1123 -41 
Q 819 9 494 109 
L 494 744 
Q 775 591 1075 516 
Q 1375 441 1709 441 
Q 2250 441 2565 725 
Q 2881 1009 2881 1497 
Q 2881 1984 2565 2268 
Q 2250 2553 1709 2553 
Q 1456 2553 1204 2497 
Q 953 2441 691 2322 
L 691 4666 
z
" transform="scale(0.015625)"/>
       </defs>
       <use xlink:href="#DejaVuSans-32"/>
       <use xlink:href="#DejaVuSans-35" x="63.623047"/>
      </g>
     </g>
    </g>
    <g id="xtick_3">
     <g id="line2d_3">
      <g>
       <use xlink:href="#m55b202feed" x="364.228643" y="640.8" style="stroke: #000000; stroke-width: 0.8"/>
      </g>
     </g>
     <g id="text_3">
      <!-- 50 -->
      <g transform="translate(357.866143 655.398438) scale(0.1 -0.1)">
       <use xlink:href="#DejaVuSans-35"/>
       <use xlink:href="#DejaVuSans-30" x="63.623047"/>
      </g>
     </g>
    </g>
    <g id="xtick_4">
     <g id="line2d_4">
      <g>
       <use xlink:href="#m55b202feed" x="459.820238" y="640.8" style="stroke: #000000; stroke-width: 0.8"/>
      </g>
     </g>
     <g id="text_4">
      <!-- 75 -->
      <g transform="translate(453.457738 655.398438) scale(0.1 -0.1)">
       <defs>
        <path id="DejaVuSans-37" d="M 525 4666 
L 3525 4666 
L 3525 4397 
L 1831 0 
L 1172 0 
L 2766 4134 
L 525 4134 
L 525 4666 
z
" transform="scale(0.015625)"/>
       </defs>
       <use xlink:href="#DejaVuSans-37"/>
       <use xlink:href="#DejaVuSans-35" x="63.623047"/>
      </g>
     </g>
    </g>
    <g id="xtick_5">
     <g id="line2d_5">
      <g>
       <use xlink:href="#m55b202feed" x="555.411832" y="640.8" style="stroke: #000000; stroke-width: 0.8"/>
      </g>
     </g>
     <g id="text_5">
      <!-- 100 -->
      <g transform="translate(545.868082 655.398438) scale(0.1 -0.1)">
       <defs>
        <path id="DejaVuSans-31" d="M 794 531 
L 1825 531 
L 1825 4091 
L 703 3866 
L 703 4441 
L 1819 4666 
L 2450 4666 
L 2450 531 
L 3481 531 
L 3481 0 
L 794 0 
L 794 531 
z
" transform="scale(0.015625)"/>
       </defs>
       <use xlink:href="#DejaVuSans-31"/>
       <use xlink:href="#DejaVuSans-30" x="63.623047"/>
       <use xlink:href="#DejaVuSans-30" x="127.246094"/>
      </g>
     </g>
    </g>
    <g id="xtick_6">
     <g id="line2d_6">
      <g>
       <use xlink:href="#m55b202feed" x="651.003426" y="640.8" style="stroke: #000000; stroke-width: 0.8"/>
      </g>
     </g>
     <g id="text_6">
      <!-- 125 -->
      <g transform="translate(641.459676 655.398438) scale(0.1 -0.1)">
       <use xlink:href="#DejaVuSans-31"/>
       <use xlink:href="#DejaVuSans-32" x="63.623047"/>
       <use xlink:href="#DejaVuSans-35" x="127.246094"/>
      </g>
     </g>
    </g>
    <g id="xtick_7">
     <g id="line2d_7">
      <g>
       <use xlink:href="#m55b202feed" x="746.595021" y="640.8" style="stroke: #000000; stroke-width: 0.8"/>
      </g>
     </g>
     <g id="text_7">
      <!-- 150 -->
      <g transform="translate(737.051271 655.398438) scale(0.1 -0.1)">
       <use xlink:href="#DejaVuSans-31"/>
       <use xlink:href="#DejaVuSans-35" x="63.623047"/>
       <use xlink:href="#DejaVuSans-30" x="127.246094"/>
      </g>
     </g>
    </g>
    <g id="xtick_8">
     <g id="line2d_8">
      <g>
       <use xlink:href="#m55b202feed" x="842.186615" y="640.8" style="stroke: #000000; stroke-width: 0.8"/>
      </g>
     </g>
     <g id="text_8">
      <!-- 175 -->
      <g transform="translate(832.642865 655.398438) scale(0.1 -0.1)">
       <use xlink:href="#DejaVuSans-31"/>
       <use xlink:href="#DejaVuSans-37" x="63.623047"/>
       <use xlink:href="#DejaVuSans-35" x="127.246094"/>
      </g>
     </g>
    </g>
    <g id="xtick_9">
     <g id="line2d_9">
      <g>
       <use xlink:href="#m55b202feed" x="937.778209" y="640.8" style="stroke: #000000; stroke-width: 0.8"/>
      </g>
     </g>
     <g id="text_9">
      <!-- 200 -->
      <g transform="translate(928.234459 655.398438) scale(0.1 -0.1)">
       <use xlink:href="#DejaVuSans-32"/>
       <use xlink:href="#DejaVuSans-30" x="63.623047"/>
       <use xlink:href="#DejaVuSans-30" x="127.246094"/>
      </g>
     </g>
    </g>
    <g id="text_10">
     <!-- epoch -->
     <g transform="translate(526.089375 675.155313) scale(0.18 -0.18)">
      <defs>
       <path id="DejaVuSans-65" d="M 3597 1894 
L 3597 1613 
L 953 1613 
Q 991 1019 1311 708 
Q 1631 397 2203 397 
Q 2534 397 2845 478 
Q 3156 559 3463 722 
L 3463 178 
Q 3153 47 2828 -22 
Q 2503 -91 2169 -91 
Q 1331 -91 842 396 
Q 353 884 353 1716 
Q 353 2575 817 3079 
Q 1281 3584 2069 3584 
Q 2775 3584 3186 3129 
Q 3597 2675 3597 1894 
z
M 3022 2063 
Q 3016 2534 2758 2815 
Q 2500 3097 2075 3097 
Q 1594 3097 1305 2825 
Q 1016 2553 972 2059 
L 3022 2063 
z
" transform="scale(0.015625)"/>
       <path id="DejaVuSans-70" d="M 1159 525 
L 1159 -1331 
L 581 -1331 
L 581 3500 
L 1159 3500 
L 1159 2969 
Q 1341 3281 1617 3432 
Q 1894 3584 2278 3584 
Q 2916 3584 3314 3078 
Q 3713 2572 3713 1747 
Q 3713 922 3314 415 
Q 2916 -91 2278 -91 
Q 1894 -91 1617 61 
Q 1341 213 1159 525 
z
M 3116 1747 
Q 3116 2381 2855 2742 
Q 2594 3103 2138 3103 
Q 1681 3103 1420 2742 
Q 1159 2381 1159 1747 
Q 1159 1113 1420 752 
Q 1681 391 2138 391 
Q 2594 391 2855 752 
Q 3116 1113 3116 1747 
z
" transform="scale(0.015625)"/>
       <path id="DejaVuSans-6f" d="M 1959 3097 
Q 1497 3097 1228 2736 
Q 959 2375 959 1747 
Q 959 1119 1226 758 
Q 1494 397 1959 397 
Q 2419 397 2687 759 
Q 2956 1122 2956 1747 
Q 2956 2369 2687 2733 
Q 2419 3097 1959 3097 
z
M 1959 3584 
Q 2709 3584 3137 3096 
Q 3566 2609 3566 1747 
Q 3566 888 3137 398 
Q 2709 -91 1959 -91 
Q 1206 -91 779 398 
Q 353 888 353 1747 
Q 353 2609 779 3096 
Q 1206 3584 1959 3584 
z
" transform="scale(0.015625)"/>
       <path id="DejaVuSans-63" d="M 3122 3366 
L 3122 2828 
Q 2878 2963 2633 3030 
Q 2388 3097 2138 3097 
Q 1578 3097 1268 2742 
Q 959 2388 959 1747 
Q 959 1106 1268 751 
Q 1578 397 2138 397 
Q 2388 397 2633 464 
Q 2878 531 3122 666 
L 3122 134 
Q 2881 22 2623 -34 
Q 2366 -91 2075 -91 
Q 1284 -91 818 406 
Q 353 903 353 1747 
Q 353 2603 823 3093 
Q 1294 3584 2113 3584 
Q 2378 3584 2631 3529 
Q 2884 3475 3122 3366 
z
" transform="scale(0.015625)"/>
       <path id="DejaVuSans-68" d="M 3513 2113 
L 3513 0 
L 2938 0 
L 2938 2094 
Q 2938 2591 2744 2837 
Q 2550 3084 2163 3084 
Q 1697 3084 1428 2787 
Q 1159 2491 1159 1978 
L 1159 0 
L 581 0 
L 581 4863 
L 1159 4863 
L 1159 2956 
Q 1366 3272 1645 3428 
Q 1925 3584 2291 3584 
Q 2894 3584 3203 3211 
Q 3513 2838 3513 2113 
z
" transform="scale(0.015625)"/>
      </defs>
      <use xlink:href="#DejaVuSans-65"/>
      <use xlink:href="#DejaVuSans-70" x="61.523438"/>
      <use xlink:href="#DejaVuSans-6f" x="125"/>
      <use xlink:href="#DejaVuSans-63" x="186.181641"/>
      <use xlink:href="#DejaVuSans-68" x="241.162109"/>
     </g>
    </g>
   </g>
   <g id="matplotlib.axis_2">
    <g id="ytick_1">
     <g id="line2d_10">
      <defs>
       <path id="m192a90fdea" d="M 0 0 
L -3.5 0 
" style="stroke: #000000; stroke-width: 0.8"/>
      </defs>
      <g>
       <use xlink:href="#m192a90fdea" x="135" y="590.819547" style="stroke: #000000; stroke-width: 0.8"/>
      </g>
     </g>
     <g id="text_11">
      <!-- 0.4900 -->
      <g transform="translate(93.009375 594.618766) scale(0.1 -0.1)">
       <defs>
        <path id="DejaVuSans-2e" d="M 684 794 
L 1344 794 
L 1344 0 
L 684 0 
L 684 794 
z
" transform="scale(0.015625)"/>
        <path id="DejaVuSans-34" d="M 2419 4116 
L 825 1625 
L 2419 1625 
L 2419 4116 
z
M 2253 4666 
L 3047 4666 
L 3047 1625 
L 3713 1625 
L 3713 1100 
L 3047 1100 
L 3047 0 
L 2419 0 
L 2419 1100 
L 313 1100 
L 313 1709 
L 2253 4666 
z
" transform="scale(0.015625)"/>
        <path id="DejaVuSans-39" d="M 703 97 
L 703 672 
Q 941 559 1184 500 
Q 1428 441 1663 441 
Q 2288 441 2617 861 
Q 2947 1281 2994 2138 
Q 2813 1869 2534 1725 
Q 2256 1581 1919 1581 
Q 1219 1581 811 2004 
Q 403 2428 403 3163 
Q 403 3881 828 4315 
Q 1253 4750 1959 4750 
Q 2769 4750 3195 4129 
Q 3622 3509 3622 2328 
Q 3622 1225 3098 567 
Q 2575 -91 1691 -91 
Q 1453 -91 1209 -44 
Q 966 3 703 97 
z
M 1959 2075 
Q 2384 2075 2632 2365 
Q 2881 2656 2881 3163 
Q 2881 3666 2632 3958 
Q 2384 4250 1959 4250 
Q 1534 4250 1286 3958 
Q 1038 3666 1038 3163 
Q 1038 2656 1286 2365 
Q 1534 2075 1959 2075 
z
" transform="scale(0.015625)"/>
       </defs>
       <use xlink:href="#DejaVuSans-30"/>
       <use xlink:href="#DejaVuSans-2e" x="63.623047"/>
       <use xlink:href="#DejaVuSans-34" x="95.410156"/>
       <use xlink:href="#DejaVuSans-39" x="159.033203"/>
       <use xlink:href="#DejaVuSans-30" x="222.65625"/>
       <use xlink:href="#DejaVuSans-30" x="286.279297"/>
      </g>
     </g>
    </g>
    <g id="ytick_2">
     <g id="line2d_11">
      <g>
       <use xlink:href="#m192a90fdea" x="135" y="528.613164" style="stroke: #000000; stroke-width: 0.8"/>
      </g>
     </g>
     <g id="text_12">
      <!-- 0.4925 -->
      <g transform="translate(93.009375 532.412382) scale(0.1 -0.1)">
       <use xlink:href="#DejaVuSans-30"/>
       <use xlink:href="#DejaVuSans-2e" x="63.623047"/>
       <use xlink:href="#DejaVuSans-34" x="95.410156"/>
       <use xlink:href="#DejaVuSans-39" x="159.033203"/>
       <use xlink:href="#DejaVuSans-32" x="222.65625"/>
       <use xlink:href="#DejaVuSans-35" x="286.279297"/>
      </g>
     </g>
    </g>
    <g id="ytick_3">
     <g id="line2d_12">
      <g>
       <use xlink:href="#m192a90fdea" x="135" y="466.40678" style="stroke: #000000; stroke-width: 0.8"/>
      </g>
     </g>
     <g id="text_13">
      <!-- 0.4950 -->
      <g transform="translate(93.009375 470.205999) scale(0.1 -0.1)">
       <use xlink:href="#DejaVuSans-30"/>
       <use xlink:href="#DejaVuSans-2e" x="63.623047"/>
       <use xlink:href="#DejaVuSans-34" x="95.410156"/>
       <use xlink:href="#DejaVuSans-39" x="159.033203"/>
       <use xlink:href="#DejaVuSans-35" x="222.65625"/>
       <use xlink:href="#DejaVuSans-30" x="286.279297"/>
      </g>
     </g>
    </g>
    <g id="ytick_4">
     <g id="line2d_13">
      <g>
       <use xlink:href="#m192a90fdea" x="135" y="404.200397" style="stroke: #000000; stroke-width: 0.8"/>
      </g>
     </g>
     <g id="text_14">
      <!-- 0.4975 -->
      <g transform="translate(93.009375 407.999615) scale(0.1 -0.1)">
       <use xlink:href="#DejaVuSans-30"/>
       <use xlink:href="#DejaVuSans-2e" x="63.623047"/>
       <use xlink:href="#DejaVuSans-34" x="95.410156"/>
       <use xlink:href="#DejaVuSans-39" x="159.033203"/>
       <use xlink:href="#DejaVuSans-37" x="222.65625"/>
       <use xlink:href="#DejaVuSans-35" x="286.279297"/>
      </g>
     </g>
    </g>
    <g id="ytick_5">
     <g id="line2d_14">
      <g>
       <use xlink:href="#m192a90fdea" x="135" y="341.994013" style="stroke: #000000; stroke-width: 0.8"/>
      </g>
     </g>
     <g id="text_15">
      <!-- 0.5000 -->
      <g transform="translate(93.009375 345.793232) scale(0.1 -0.1)">
       <use xlink:href="#DejaVuSans-30"/>
       <use xlink:href="#DejaVuSans-2e" x="63.623047"/>
       <use xlink:href="#DejaVuSans-35" x="95.410156"/>
       <use xlink:href="#DejaVuSans-30" x="159.033203"/>
       <use xlink:href="#DejaVuSans-30" x="222.65625"/>
       <use xlink:href="#DejaVuSans-30" x="286.279297"/>
      </g>
     </g>
    </g>
    <g id="ytick_6">
     <g id="line2d_15">
      <g>
       <use xlink:href="#m192a90fdea" x="135" y="279.78763" style="stroke: #000000; stroke-width: 0.8"/>
      </g>
     </g>
     <g id="text_16">
      <!-- 0.5025 -->
      <g transform="translate(93.009375 283.586848) scale(0.1 -0.1)">
       <use xlink:href="#DejaVuSans-30"/>
       <use xlink:href="#DejaVuSans-2e" x="63.623047"/>
       <use xlink:href="#DejaVuSans-35" x="95.410156"/>
       <use xlink:href="#DejaVuSans-30" x="159.033203"/>
       <use xlink:href="#DejaVuSans-32" x="222.65625"/>
       <use xlink:href="#DejaVuSans-35" x="286.279297"/>
      </g>
     </g>
    </g>
    <g id="ytick_7">
     <g id="line2d_16">
      <g>
       <use xlink:href="#m192a90fdea" x="135" y="217.581246" style="stroke: #000000; stroke-width: 0.8"/>
      </g>
     </g>
     <g id="text_17">
      <!-- 0.5050 -->
      <g transform="translate(93.009375 221.380465) scale(0.1 -0.1)">
       <use xlink:href="#DejaVuSans-30"/>
       <use xlink:href="#DejaVuSans-2e" x="63.623047"/>
       <use xlink:href="#DejaVuSans-35" x="95.410156"/>
       <use xlink:href="#DejaVuSans-30" x="159.033203"/>
       <use xlink:href="#DejaVuSans-35" x="222.65625"/>
       <use xlink:href="#DejaVuSans-30" x="286.279297"/>
      </g>
     </g>
    </g>
    <g id="ytick_8">
     <g id="line2d_17">
      <g>
       <use xlink:href="#m192a90fdea" x="135" y="155.374862" style="stroke: #000000; stroke-width: 0.8"/>
      </g>
     </g>
     <g id="text_18">
      <!-- 0.5075 -->
      <g transform="translate(93.009375 159.174081) scale(0.1 -0.1)">
       <use xlink:href="#DejaVuSans-30"/>
       <use xlink:href="#DejaVuSans-2e" x="63.623047"/>
       <use xlink:href="#DejaVuSans-35" x="95.410156"/>
       <use xlink:href="#DejaVuSans-30" x="159.033203"/>
       <use xlink:href="#DejaVuSans-37" x="222.65625"/>
       <use xlink:href="#DejaVuSans-35" x="286.279297"/>
      </g>
     </g>
    </g>
    <g id="ytick_9">
     <g id="line2d_18">
      <g>
       <use xlink:href="#m192a90fdea" x="135" y="93.168479" style="stroke: #000000; stroke-width: 0.8"/>
      </g>
     </g>
     <g id="text_19">
      <!-- 0.5100 -->
      <g transform="translate(93.009375 96.967698) scale(0.1 -0.1)">
       <use xlink:href="#DejaVuSans-30"/>
       <use xlink:href="#DejaVuSans-2e" x="63.623047"/>
       <use xlink:href="#DejaVuSans-35" x="95.410156"/>
       <use xlink:href="#DejaVuSans-31" x="159.033203"/>
       <use xlink:href="#DejaVuSans-30" x="222.65625"/>
       <use xlink:href="#DejaVuSans-30" x="286.279297"/>
      </g>
     </g>
    </g>
   </g>
   <g id="line2d_19">
    <path d="M 173.045455 248.396445 
L 176.869118 226.797007 
L 180.692782 215.997287 
L 184.516446 291.595323 
L 188.34011 284.39551 
L 199.811101 208.797474 
L 203.634765 194.397848 
L 207.458429 194.397848 
L 211.282092 223.1971 
L 215.105756 172.79841 
L 218.92942 205.197568 
L 222.753084 190.797942 
L 226.576747 143.999158 
L 230.400411 111.6 
L 234.224075 251.996352 
L 238.047739 179.998223 
L 241.871402 201.597661 
L 245.695066 151.198971 
L 249.51873 129.599532 
L 253.342394 111.6 
L 257.166058 161.99869 
L 260.989721 237.596726 
L 264.813385 154.798877 
L 268.637049 190.797942 
L 272.460713 215.997287 
L 276.284376 266.395978 
L 280.10804 205.197568 
L 283.931704 237.596726 
L 287.755368 226.797007 
L 291.579032 237.596726 
L 295.402695 215.997287 
L 299.226359 205.197568 
L 303.050023 223.1971 
L 306.873687 230.396913 
L 310.69735 187.198036 
L 314.521014 223.1971 
L 318.344678 143.999158 
L 322.168342 259.196165 
L 325.992005 179.998223 
L 329.815669 194.397848 
L 333.639333 244.796539 
L 337.462997 226.797007 
L 341.286661 215.997287 
L 345.110324 226.797007 
L 348.933988 158.398784 
L 352.757652 295.195229 
L 356.581316 219.597194 
L 360.404979 223.1971 
L 364.228643 183.598129 
L 368.052307 219.597194 
L 371.875971 259.196165 
L 375.699635 280.795603 
L 379.523298 241.196632 
L 383.346962 230.396913 
L 387.170626 248.396445 
L 390.99429 287.995416 
L 394.817953 215.997287 
L 398.641617 215.997287 
L 402.465281 143.999158 
L 406.288945 219.597194 
L 410.112608 241.196632 
L 413.936272 172.79841 
L 417.759936 230.396913 
L 421.5836 187.198036 
L 425.407264 219.597194 
L 429.230927 212.397381 
L 433.054591 241.196632 
L 436.878255 230.396913 
L 440.701919 244.796539 
L 444.525582 266.395978 
L 448.349246 219.597194 
L 452.17291 165.598597 
L 455.996574 187.198036 
L 459.820238 223.1971 
L 463.643901 197.997755 
L 467.467565 223.1971 
L 471.291229 215.997287 
L 475.114893 187.198036 
L 478.938556 187.198036 
L 482.76222 255.596258 
L 486.585884 219.597194 
L 490.409548 223.1971 
L 494.233212 183.598129 
L 498.056875 197.997755 
L 501.880539 255.596258 
L 505.704203 273.59579 
L 509.527867 262.796071 
L 513.35153 197.997755 
L 517.175194 158.398784 
L 520.998858 251.996352 
L 524.822522 172.79841 
L 528.646185 320.394574 
L 532.469849 230.396913 
L 536.293513 237.596726 
L 540.117177 266.395978 
L 543.940841 179.998223 
L 547.764504 208.797474 
L 551.588168 244.796539 
L 555.411832 190.797942 
L 559.235496 205.197568 
L 563.059159 212.397381 
L 566.882823 248.396445 
L 570.706487 277.195697 
L 574.530151 237.596726 
L 578.353815 223.1971 
L 582.177478 266.395978 
L 586.001142 212.397381 
L 589.824806 251.996352 
L 593.64847 277.195697 
L 597.472133 241.196632 
L 601.295797 226.797007 
L 605.119461 219.597194 
L 608.943125 280.795603 
L 612.766788 215.997287 
L 616.590452 226.797007 
L 620.414116 284.39551 
L 624.23778 259.196165 
L 628.061444 248.396445 
L 631.885107 219.597194 
L 635.708771 259.196165 
L 639.532435 219.597194 
L 647.179762 212.397381 
L 651.003426 259.196165 
L 654.82709 212.397381 
L 658.650754 226.797007 
L 662.474418 280.795603 
L 666.298081 187.198036 
L 670.121745 266.395978 
L 673.945409 305.994948 
L 677.769073 194.397848 
L 681.592736 223.1971 
L 685.4164 237.596726 
L 689.240064 219.597194 
L 693.063728 262.796071 
L 696.887392 295.195229 
L 700.711055 230.396913 
L 704.534719 277.195697 
L 708.358383 262.796071 
L 712.182047 262.796071 
L 716.00571 287.995416 
L 719.829374 273.59579 
L 723.653038 280.795603 
L 727.476702 277.195697 
L 731.300365 244.796539 
L 735.124029 230.396913 
L 738.947693 251.996352 
L 742.771357 269.995884 
L 746.595021 269.995884 
L 750.418684 295.195229 
L 754.242348 291.595323 
L 758.066012 259.196165 
L 761.889676 262.796071 
L 765.713339 295.195229 
L 769.537003 284.39551 
L 773.360667 266.395978 
L 777.184331 280.795603 
L 781.007995 284.39551 
L 784.831658 291.595323 
L 788.655322 277.195697 
L 792.478986 295.195229 
L 796.30265 295.195229 
L 800.126313 241.196632 
L 803.949977 248.396445 
L 807.773641 262.796071 
L 811.597305 295.195229 
L 815.420968 305.994948 
L 819.244632 298.795136 
L 823.068296 277.195697 
L 826.89196 259.196165 
L 830.715624 284.39551 
L 834.539287 295.195229 
L 838.362951 248.396445 
L 842.186615 284.39551 
L 846.010279 230.396913 
L 849.833942 284.39551 
L 853.657606 287.995416 
L 857.48127 284.39551 
L 861.304934 262.796071 
L 865.128598 262.796071 
L 868.952261 241.196632 
L 872.775925 320.394574 
L 876.599589 273.59579 
L 880.423253 266.395978 
L 884.246916 284.39551 
L 888.07058 280.795603 
L 891.894244 291.595323 
L 895.717908 298.795136 
L 899.541571 316.794668 
L 903.365235 287.995416 
L 907.188899 255.596258 
L 911.012563 298.795136 
L 914.836227 266.395978 
L 918.65989 266.395978 
L 922.483554 298.795136 
L 926.307218 305.994948 
L 930.130882 291.595323 
L 933.954545 295.195229 
L 933.954545 295.195229 
" clip-path="url(#p0e4b980f3d)" style="fill: none; stroke: #1e90ff; stroke-width: 1.5; stroke-linecap: square"/>
   </g>
   <g id="line2d_20">
    <path d="M 173.045455 503.017959 
L 176.869118 467.044342 
L 180.692782 436.933017 
L 184.516446 462.744122 
L 188.34011 478.33264 
L 192.163773 463.693036 
L 195.987437 495.190679 
L 199.811101 521.430055 
L 203.634765 533.323868 
L 207.458429 580.956773 
L 211.282092 575.146587 
L 215.105756 590.910719 
L 218.92942 585.653989 
L 222.753084 561.405701 
L 226.576747 568.884223 
L 230.400411 603.48844 
L 234.224075 565.598213 
L 238.047739 609.558552 
L 241.871402 596.341433 
L 245.695066 614.518676 
L 249.51873 603.08366 
L 253.342394 568.243426 
L 257.166058 576.151848 
L 260.989721 565.066709 
L 264.813385 597.82679 
L 268.637049 572.819745 
L 272.460713 594.231078 
L 276.284376 584.720409 
L 280.10804 598.862859 
L 283.931704 554.611787 
L 287.755368 613.651604 
L 291.579032 589.110533 
L 295.402695 590.731609 
L 299.226359 596.744162 
L 303.050023 613.930499 
L 306.873687 596.791701 
L 310.69735 608.548769 
L 314.521014 581.303527 
L 318.344678 597.971131 
L 322.168342 579.656211 
L 325.992005 597.541836 
L 329.815669 585.665454 
L 333.639333 598.43869 
L 337.462997 595.234569 
L 341.286661 598.339651 
L 345.110324 566.623608 
L 348.933988 593.01054 
L 352.757652 583.001085 
L 356.581316 583.339404 
L 360.404979 562.132068 
L 364.228643 615.6 
L 368.052307 594.708378 
L 371.875971 604.006241 
L 375.699635 567.204142 
L 379.523298 567.217285 
L 383.346962 586.489881 
L 387.170626 568.025493 
L 390.99429 569.124434 
L 394.817953 590.807998 
L 398.641617 576.285517 
L 402.465281 567.212485 
L 406.288945 587.308016 
L 410.112608 592.363405 
L 413.936272 599.244941 
L 417.759936 568.290173 
L 421.5836 599.231145 
L 425.407264 564.199777 
L 429.230927 560.655519 
L 433.054591 573.345609 
L 436.878255 598.202767 
L 440.701919 555.756169 
L 444.525582 547.122732 
L 448.349246 553.83392 
L 452.17291 580.726209 
L 455.996574 581.552361 
L 459.820238 562.486233 
L 463.643901 555.113276 
L 467.467565 548.406609 
L 471.291229 553.661055 
L 475.114893 568.717464 
L 478.938556 565.229553 
L 482.76222 533.634036 
L 486.585884 559.145087 
L 490.409548 537.569371 
L 494.233212 539.323277 
L 498.056875 558.879195 
L 501.880539 550.726647 
L 505.704203 554.387282 
L 509.527867 531.08898 
L 513.35153 560.744538 
L 517.175194 543.213124 
L 520.998858 523.16117 
L 524.822522 543.061978 
L 528.646185 532.086878 
L 532.469849 534.965032 
L 536.293513 523.652591 
L 540.117177 541.324105 
L 543.940841 529.10479 
L 547.764504 522.73043 
L 551.588168 523.171516 
L 555.411832 544.957149 
L 559.235496 518.455052 
L 563.059159 529.309953 
L 566.882823 499.689397 
L 570.706487 486.246282 
L 574.530151 511.29849 
L 578.353815 512.179078 
L 582.177478 523.808211 
L 586.001142 518.315091 
L 589.824806 513.556121 
L 593.64847 519.305299 
L 597.472133 528.966974 
L 601.295797 495.919796 
L 605.119461 520.71767 
L 608.943125 511.083073 
L 612.766788 507.346749 
L 616.590452 489.519242 
L 620.414116 501.587271 
L 624.23778 524.121082 
L 628.061444 538.946228 
L 631.885107 528.121574 
L 635.708771 512.194784 
L 639.532435 522.019071 
L 643.356099 492.072174 
L 647.179762 501.157184 
L 651.003426 527.075905 
L 654.82709 497.911023 
L 658.650754 514.350813 
L 662.474418 509.34245 
L 666.298081 531.045449 
L 670.121745 520.971724 
L 673.945409 495.318102 
L 677.769073 532.688245 
L 681.592736 499.164465 
L 685.4164 482.29002 
L 689.240064 488.458239 
L 693.063728 504.954377 
L 696.887392 504.459693 
L 700.711055 507.956552 
L 704.534719 510.554506 
L 712.182047 503.500712 
L 716.00571 491.386775 
L 719.829374 505.006344 
L 723.653038 486.101568 
L 727.476702 497.685213 
L 731.300365 505.682002 
L 735.124029 496.173383 
L 738.947693 491.400711 
L 742.771357 494.174745 
L 746.595021 488.824102 
L 750.418684 486.320107 
L 754.242348 499.020404 
L 758.066012 504.449206 
L 761.889676 489.146574 
L 765.713339 501.594123 
L 773.360667 482.41502 
L 777.184331 495.360514 
L 781.007995 499.142327 
L 784.831658 492.796304 
L 788.655322 490.74775 
L 792.478986 486.476333 
L 796.30265 494.849518 
L 800.126313 495.225495 
L 803.949977 493.7585 
L 807.773641 492.11426 
L 811.597305 492.027292 
L 815.420968 499.914182 
L 819.244632 478.331568 
L 823.068296 488.492775 
L 826.89196 490.332577 
L 830.715624 488.128263 
L 834.539287 497.401751 
L 838.362951 494.89454 
L 842.186615 483.120833 
L 846.010279 484.435516 
L 849.833942 503.046576 
L 853.657606 480.865298 
L 857.48127 493.909926 
L 861.304934 495.297362 
L 865.128598 487.581519 
L 868.952261 488.696819 
L 872.775925 497.02158 
L 876.599589 490.577635 
L 880.423253 486.506348 
L 884.246916 495.994646 
L 888.07058 483.18268 
L 891.894244 488.067208 
L 895.717908 494.494281 
L 899.541571 497.52181 
L 903.365235 500.367153 
L 907.188899 500.123213 
L 911.012563 488.943509 
L 914.836227 497.083613 
L 918.65989 506.844794 
L 922.483554 488.090279 
L 926.307218 488.589903 
L 930.130882 491.552136 
L 933.954545 495.376128 
L 933.954545 495.376128 
" clip-path="url(#p0e4b980f3d)" style="fill: none; stroke: #ff0000; stroke-width: 1.5; stroke-linecap: square"/>
   </g>
   <g id="patch_3">
    <path d="M 135 640.8 
L 135 86.4 
" style="fill: none; stroke: #000000; stroke-width: 0.8; stroke-linejoin: miter; stroke-linecap: square"/>
   </g>
   <g id="patch_4">
    <path d="M 972 640.8 
L 972 86.4 
" style="fill: none; stroke: #000000; stroke-width: 0.8; stroke-linejoin: miter; stroke-linecap: square"/>
   </g>
   <g id="patch_5">
    <path d="M 135 640.8 
L 972 640.8 
" style="fill: none; stroke: #000000; stroke-width: 0.8; stroke-linejoin: miter; stroke-linecap: square"/>
   </g>
   <g id="patch_6">
    <path d="M 135 86.4 
L 972 86.4 
" style="fill: none; stroke: #000000; stroke-width: 0.8; stroke-linejoin: miter; stroke-linecap: square"/>
   </g>
   <g id="text_20">
    <!-- EER and AUC per epoch -->
    <g transform="translate(446.108906 80.4) scale(0.18 -0.18)">
     <defs>
      <path id="DejaVuSans-45" d="M 628 4666 
L 3578 4666 
L 3578 4134 
L 1259 4134 
L 1259 2753 
L 3481 2753 
L 3481 2222 
L 1259 2222 
L 1259 531 
L 3634 531 
L 3634 0 
L 628 0 
L 628 4666 
z
" transform="scale(0.015625)"/>
      <path id="DejaVuSans-52" d="M 2841 2188 
Q 3044 2119 3236 1894 
Q 3428 1669 3622 1275 
L 4263 0 
L 3584 0 
L 2988 1197 
Q 2756 1666 2539 1819 
Q 2322 1972 1947 1972 
L 1259 1972 
L 1259 0 
L 628 0 
L 628 4666 
L 2053 4666 
Q 2853 4666 3247 4331 
Q 3641 3997 3641 3322 
Q 3641 2881 3436 2590 
Q 3231 2300 2841 2188 
z
M 1259 4147 
L 1259 2491 
L 2053 2491 
Q 2509 2491 2742 2702 
Q 2975 2913 2975 3322 
Q 2975 3731 2742 3939 
Q 2509 4147 2053 4147 
L 1259 4147 
z
" transform="scale(0.015625)"/>
      <path id="DejaVuSans-20" transform="scale(0.015625)"/>
      <path id="DejaVuSans-61" d="M 2194 1759 
Q 1497 1759 1228 1600 
Q 959 1441 959 1056 
Q 959 750 1161 570 
Q 1363 391 1709 391 
Q 2188 391 2477 730 
Q 2766 1069 2766 1631 
L 2766 1759 
L 2194 1759 
z
M 3341 1997 
L 3341 0 
L 2766 0 
L 2766 531 
Q 2569 213 2275 61 
Q 1981 -91 1556 -91 
Q 1019 -91 701 211 
Q 384 513 384 1019 
Q 384 1609 779 1909 
Q 1175 2209 1959 2209 
L 2766 2209 
L 2766 2266 
Q 2766 2663 2505 2880 
Q 2244 3097 1772 3097 
Q 1472 3097 1187 3025 
Q 903 2953 641 2809 
L 641 3341 
Q 956 3463 1253 3523 
Q 1550 3584 1831 3584 
Q 2591 3584 2966 3190 
Q 3341 2797 3341 1997 
z
" transform="scale(0.015625)"/>
      <path id="DejaVuSans-6e" d="M 3513 2113 
L 3513 0 
L 2938 0 
L 2938 2094 
Q 2938 2591 2744 2837 
Q 2550 3084 2163 3084 
Q 1697 3084 1428 2787 
Q 1159 2491 1159 1978 
L 1159 0 
L 581 0 
L 581 3500 
L 1159 3500 
L 1159 2956 
Q 1366 3272 1645 3428 
Q 1925 3584 2291 3584 
Q 2894 3584 3203 3211 
Q 3513 2838 3513 2113 
z
" transform="scale(0.015625)"/>
      <path id="DejaVuSans-64" d="M 2906 2969 
L 2906 4863 
L 3481 4863 
L 3481 0 
L 2906 0 
L 2906 525 
Q 2725 213 2448 61 
Q 2172 -91 1784 -91 
Q 1150 -91 751 415 
Q 353 922 353 1747 
Q 353 2572 751 3078 
Q 1150 3584 1784 3584 
Q 2172 3584 2448 3432 
Q 2725 3281 2906 2969 
z
M 947 1747 
Q 947 1113 1208 752 
Q 1469 391 1925 391 
Q 2381 391 2643 752 
Q 2906 1113 2906 1747 
Q 2906 2381 2643 2742 
Q 2381 3103 1925 3103 
Q 1469 3103 1208 2742 
Q 947 2381 947 1747 
z
" transform="scale(0.015625)"/>
      <path id="DejaVuSans-41" d="M 2188 4044 
L 1331 1722 
L 3047 1722 
L 2188 4044 
z
M 1831 4666 
L 2547 4666 
L 4325 0 
L 3669 0 
L 3244 1197 
L 1141 1197 
L 716 0 
L 50 0 
L 1831 4666 
z
" transform="scale(0.015625)"/>
      <path id="DejaVuSans-55" d="M 556 4666 
L 1191 4666 
L 1191 1831 
Q 1191 1081 1462 751 
Q 1734 422 2344 422 
Q 2950 422 3222 751 
Q 3494 1081 3494 1831 
L 3494 4666 
L 4128 4666 
L 4128 1753 
Q 4128 841 3676 375 
Q 3225 -91 2344 -91 
Q 1459 -91 1007 375 
Q 556 841 556 1753 
L 556 4666 
z
" transform="scale(0.015625)"/>
      <path id="DejaVuSans-43" d="M 4122 4306 
L 4122 3641 
Q 3803 3938 3442 4084 
Q 3081 4231 2675 4231 
Q 1875 4231 1450 3742 
Q 1025 3253 1025 2328 
Q 1025 1406 1450 917 
Q 1875 428 2675 428 
Q 3081 428 3442 575 
Q 3803 722 4122 1019 
L 4122 359 
Q 3791 134 3420 21 
Q 3050 -91 2638 -91 
Q 1578 -91 968 557 
Q 359 1206 359 2328 
Q 359 3453 968 4101 
Q 1578 4750 2638 4750 
Q 3056 4750 3426 4639 
Q 3797 4528 4122 4306 
z
" transform="scale(0.015625)"/>
      <path id="DejaVuSans-72" d="M 2631 2963 
Q 2534 3019 2420 3045 
Q 2306 3072 2169 3072 
Q 1681 3072 1420 2755 
Q 1159 2438 1159 1844 
L 1159 0 
L 581 0 
L 581 3500 
L 1159 3500 
L 1159 2956 
Q 1341 3275 1631 3429 
Q 1922 3584 2338 3584 
Q 2397 3584 2469 3576 
Q 2541 3569 2628 3553 
L 2631 2963 
z
" transform="scale(0.015625)"/>
     </defs>
     <use xlink:href="#DejaVuSans-45"/>
     <use xlink:href="#DejaVuSans-45" x="63.183594"/>
     <use xlink:href="#DejaVuSans-52" x="126.367188"/>
     <use xlink:href="#DejaVuSans-20" x="195.849609"/>
     <use xlink:href="#DejaVuSans-61" x="227.636719"/>
     <use xlink:href="#DejaVuSans-6e" x="288.916016"/>
     <use xlink:href="#DejaVuSans-64" x="352.294922"/>
     <use xlink:href="#DejaVuSans-20" x="415.771484"/>
     <use xlink:href="#DejaVuSans-41" x="447.558594"/>
     <use xlink:href="#DejaVuSans-55" x="515.966797"/>
     <use xlink:href="#DejaVuSans-43" x="589.160156"/>
     <use xlink:href="#DejaVuSans-20" x="658.984375"/>
     <use xlink:href="#DejaVuSans-70" x="690.771484"/>
     <use xlink:href="#DejaVuSans-65" x="754.248047"/>
     <use xlink:href="#DejaVuSans-72" x="815.771484"/>
     <use xlink:href="#DejaVuSans-20" x="856.884766"/>
     <use xlink:href="#DejaVuSans-65" x="888.671875"/>
     <use xlink:href="#DejaVuSans-70" x="950.195312"/>
     <use xlink:href="#DejaVuSans-6f" x="1013.671875"/>
     <use xlink:href="#DejaVuSans-63" x="1074.853516"/>
     <use xlink:href="#DejaVuSans-68" x="1129.833984"/>
    </g>
   </g>
   <g id="legend_1">
    <g id="patch_7">
     <path d="M 863.744063 153.64125 
L 959.4 153.64125 
Q 963 153.64125 963 150.04125 
L 963 99 
Q 963 95.4 959.4 95.4 
L 863.744063 95.4 
Q 860.144063 95.4 860.144063 99 
L 860.144063 150.04125 
Q 860.144063 153.64125 863.744063 153.64125 
z
" style="fill: #ffffff; opacity: 0.8; stroke: #cccccc; stroke-linejoin: miter"/>
    </g>
    <g id="line2d_21">
     <path d="M 867.344063 109.977187 
L 885.344063 109.977187 
L 903.344063 109.977187 
" style="fill: none; stroke: #1e90ff; stroke-width: 1.5; stroke-linecap: square"/>
    </g>
    <g id="text_21">
     <!-- EER -->
     <g transform="translate(917.744063 116.277187) scale(0.18 -0.18)">
      <use xlink:href="#DejaVuSans-45"/>
      <use xlink:href="#DejaVuSans-45" x="63.183594"/>
      <use xlink:href="#DejaVuSans-52" x="126.367188"/>
     </g>
    </g>
    <g id="line2d_22">
     <path d="M 867.344063 136.397812 
L 885.344063 136.397812 
L 903.344063 136.397812 
" style="fill: none; stroke: #ff0000; stroke-width: 1.5; stroke-linecap: square"/>
    </g>
    <g id="text_22">
     <!-- AUC -->
     <g transform="translate(917.744063 142.697812) scale(0.18 -0.18)">
      <use xlink:href="#DejaVuSans-41"/>
      <use xlink:href="#DejaVuSans-55" x="68.408203"/>
      <use xlink:href="#DejaVuSans-43" x="141.601562"/>
     </g>
    </g>
   </g>
  </g>
 </g>
 <defs>
  <clipPath id="p0e4b980f3d">
   <rect x="135" y="86.4" width="837" height="554.4"/>
  </clipPath>
 </defs>
</svg>
