<?xml version="1.0" encoding="utf-8" standalone="no"?>
<!DOCTYPE svg PUBLIC "-//W3C//DTD SVG 1.1//EN"
  "http://www.w3.org/Graphics/SVG/1.1/DTD/svg11.dtd">
<svg xmlns:xlink="http://www.w3.org/1999/xlink" width="1080pt" height="720pt" viewBox="0 0 1080 720" xmlns="http://www.w3.org/2000/svg" version="1.1">
 <metadata>
  <rdf:RDF xmlns:dc="http://purl.org/dc/elements/1.1/" xmlns:cc="http://creativecommons.org/ns#" xmlns:rdf="http://www.w3.org/1999/02/22-rdf-syntax-ns#">
   <cc:Work>
    <dc:type rdf:resource="http://purl.org/dc/dcmitype/StillImage"/>
    <dc:date>2024-01-17T22:34:46.365752</dc:date>
    <dc:format>image/svg+xml</dc:format>
    <dc:creator>
     <cc:Agent>
      <dc:title>Matplotlib v3.7.4, https://matplotlib.org/</dc:title>
     </cc:Agent>
    </dc:creator>
   </cc:Work>
  </rdf:RDF>
 </metadata>
 <defs>
  <style type="text/css">*{stroke-linejoin: round; stroke-linecap: butt}</style>
 </defs>
 <g id="figure_1">
  <g id="patch_1">
   <path d="M 0 720 
L 1080 720 
L 1080 0 
L 0 0 
z
" style="fill: #ffffff"/>
  </g>
  <g id="axes_1">
   <g id="patch_2">
    <path d="M 135 640.8 
L 972 640.8 
L 972 86.4 
L 135 86.4 
z
" style="fill: #ffffff"/>
   </g>
   <g id="matplotlib.axis_1">
    <g id="xtick_1">
     <g id="line2d_1">
      <defs>
       <path id="mcfcd332c7c" d="M 0 0 
L 0 3.5 
" style="stroke: #000000; stroke-width: 0.8"/>
      </defs>
      <g>
       <use xlink:href="#mcfcd332c7c" x="173.045455" y="640.8" style="stroke: #000000; stroke-width: 0.8"/>
      </g>
     </g>
     <g id="text_1">
      <!-- 0 -->
      <g transform="translate(169.864205 655.398438) scale(0.1 -0.1)">
       <defs>
        <path id="DejaVuSans-30" d="M 2034 4250 
Q 1547 4250 1301 3770 
Q 1056 3291 1056 2328 
Q 1056 1369 1301 889 
Q 1547 409 2034 409 
Q 2525 409 2770 889 
Q 3016 1369 3016 2328 
Q 3016 3291 2770 3770 
Q 2525 4250 2034 4250 
z
M 2034 4750 
Q 2819 4750 3233 4129 
Q 3647 3509 3647 2328 
Q 3647 1150 3233 529 
Q 2819 -91 2034 -91 
Q 1250 -91 836 529 
Q 422 1150 422 2328 
Q 422 3509 836 4129 
Q 1250 4750 2034 4750 
z
" transform="scale(0.015625)"/>
       </defs>
       <use xlink:href="#DejaVuSans-30"/>
      </g>
     </g>
    </g>
    <g id="xtick_2">
     <g id="line2d_2">
      <g>
       <use xlink:href="#mcfcd332c7c" x="268.637049" y="640.8" style="stroke: #000000; stroke-width: 0.8"/>
      </g>
     </g>
     <g id="text_2">
      <!-- 25 -->
      <g transform="translate(262.274549 655.398438) scale(0.1 -0.1)">
       <defs>
        <path id="DejaVuSans-32" d="M 1228 531 
L 3431 531 
L 3431 0 
L 469 0 
L 469 531 
Q 828 903 1448 1529 
Q 2069 2156 2228 2338 
Q 2531 2678 2651 2914 
Q 2772 3150 2772 3378 
Q 2772 3750 2511 3984 
Q 2250 4219 1831 4219 
Q 1534 4219 1204 4116 
Q 875 4013 500 3803 
L 500 4441 
Q 881 4594 1212 4672 
Q 1544 4750 1819 4750 
Q 2544 4750 2975 4387 
Q 3406 4025 3406 3419 
Q 3406 3131 3298 2873 
Q 3191 2616 2906 2266 
Q 2828 2175 2409 1742 
Q 1991 1309 1228 531 
z
" transform="scale(0.015625)"/>
        <path id="DejaVuSans-35" d="M 691 4666 
L 3169 4666 
L 3169 4134 
L 1269 4134 
L 1269 2991 
Q 1406 3038 1543 3061 
Q 1681 3084 1819 3084 
Q 2600 3084 3056 2656 
Q 3513 2228 3513 1497 
Q 3513 744 3044 326 
Q 2575 -91 1722 -91 
Q 1428 -91 1123 -41 
Q 819 9 494 109 
L 494 744 
Q 775 591 1075 516 
Q 1375 441 1709 441 
Q 2250 441 2565 725 
Q 2881 1009 2881 1497 
Q 2881 1984 2565 2268 
Q 2250 2553 1709 2553 
Q 1456 2553 1204 2497 
Q 953 2441 691 2322 
L 691 4666 
z
" transform="scale(0.015625)"/>
       </defs>
       <use xlink:href="#DejaVuSans-32"/>
       <use xlink:href="#DejaVuSans-35" x="63.623047"/>
      </g>
     </g>
    </g>
    <g id="xtick_3">
     <g id="line2d_3">
      <g>
       <use xlink:href="#mcfcd332c7c" x="364.228643" y="640.8" style="stroke: #000000; stroke-width: 0.8"/>
      </g>
     </g>
     <g id="text_3">
      <!-- 50 -->
      <g transform="translate(357.866143 655.398438) scale(0.1 -0.1)">
       <use xlink:href="#DejaVuSans-35"/>
       <use xlink:href="#DejaVuSans-30" x="63.623047"/>
      </g>
     </g>
    </g>
    <g id="xtick_4">
     <g id="line2d_4">
      <g>
       <use xlink:href="#mcfcd332c7c" x="459.820238" y="640.8" style="stroke: #000000; stroke-width: 0.8"/>
      </g>
     </g>
     <g id="text_4">
      <!-- 75 -->
      <g transform="translate(453.457738 655.398438) scale(0.1 -0.1)">
       <defs>
        <path id="DejaVuSans-37" d="M 525 4666 
L 3525 4666 
L 3525 4397 
L 1831 0 
L 1172 0 
L 2766 4134 
L 525 4134 
L 525 4666 
z
" transform="scale(0.015625)"/>
       </defs>
       <use xlink:href="#DejaVuSans-37"/>
       <use xlink:href="#DejaVuSans-35" x="63.623047"/>
      </g>
     </g>
    </g>
    <g id="xtick_5">
     <g id="line2d_5">
      <g>
       <use xlink:href="#mcfcd332c7c" x="555.411832" y="640.8" style="stroke: #000000; stroke-width: 0.8"/>
      </g>
     </g>
     <g id="text_5">
      <!-- 100 -->
      <g transform="translate(545.868082 655.398438) scale(0.1 -0.1)">
       <defs>
        <path id="DejaVuSans-31" d="M 794 531 
L 1825 531 
L 1825 4091 
L 703 3866 
L 703 4441 
L 1819 4666 
L 2450 4666 
L 2450 531 
L 3481 531 
L 3481 0 
L 794 0 
L 794 531 
z
" transform="scale(0.015625)"/>
       </defs>
       <use xlink:href="#DejaVuSans-31"/>
       <use xlink:href="#DejaVuSans-30" x="63.623047"/>
       <use xlink:href="#DejaVuSans-30" x="127.246094"/>
      </g>
     </g>
    </g>
    <g id="xtick_6">
     <g id="line2d_6">
      <g>
       <use xlink:href="#mcfcd332c7c" x="651.003426" y="640.8" style="stroke: #000000; stroke-width: 0.8"/>
      </g>
     </g>
     <g id="text_6">
      <!-- 125 -->
      <g transform="translate(641.459676 655.398438) scale(0.1 -0.1)">
       <use xlink:href="#DejaVuSans-31"/>
       <use xlink:href="#DejaVuSans-32" x="63.623047"/>
       <use xlink:href="#DejaVuSans-35" x="127.246094"/>
      </g>
     </g>
    </g>
    <g id="xtick_7">
     <g id="line2d_7">
      <g>
       <use xlink:href="#mcfcd332c7c" x="746.595021" y="640.8" style="stroke: #000000; stroke-width: 0.8"/>
      </g>
     </g>
     <g id="text_7">
      <!-- 150 -->
      <g transform="translate(737.051271 655.398438) scale(0.1 -0.1)">
       <use xlink:href="#DejaVuSans-31"/>
       <use xlink:href="#DejaVuSans-35" x="63.623047"/>
       <use xlink:href="#DejaVuSans-30" x="127.246094"/>
      </g>
     </g>
    </g>
    <g id="xtick_8">
     <g id="line2d_8">
      <g>
       <use xlink:href="#mcfcd332c7c" x="842.186615" y="640.8" style="stroke: #000000; stroke-width: 0.8"/>
      </g>
     </g>
     <g id="text_8">
      <!-- 175 -->
      <g transform="translate(832.642865 655.398438) scale(0.1 -0.1)">
       <use xlink:href="#DejaVuSans-31"/>
       <use xlink:href="#DejaVuSans-37" x="63.623047"/>
       <use xlink:href="#DejaVuSans-35" x="127.246094"/>
      </g>
     </g>
    </g>
    <g id="xtick_9">
     <g id="line2d_9">
      <g>
       <use xlink:href="#mcfcd332c7c" x="937.778209" y="640.8" style="stroke: #000000; stroke-width: 0.8"/>
      </g>
     </g>
     <g id="text_9">
      <!-- 200 -->
      <g transform="translate(928.234459 655.398438) scale(0.1 -0.1)">
       <use xlink:href="#DejaVuSans-32"/>
       <use xlink:href="#DejaVuSans-30" x="63.623047"/>
       <use xlink:href="#DejaVuSans-30" x="127.246094"/>
      </g>
     </g>
    </g>
    <g id="text_10">
     <!-- epoch -->
     <g transform="translate(526.089375 675.155313) scale(0.18 -0.18)">
      <defs>
       <path id="DejaVuSans-65" d="M 3597 1894 
L 3597 1613 
L 953 1613 
Q 991 1019 1311 708 
Q 1631 397 2203 397 
Q 2534 397 2845 478 
Q 3156 559 3463 722 
L 3463 178 
Q 3153 47 2828 -22 
Q 2503 -91 2169 -91 
Q 1331 -91 842 396 
Q 353 884 353 1716 
Q 353 2575 817 3079 
Q 1281 3584 2069 3584 
Q 2775 3584 3186 3129 
Q 3597 2675 3597 1894 
z
M 3022 2063 
Q 3016 2534 2758 2815 
Q 2500 3097 2075 3097 
Q 1594 3097 1305 2825 
Q 1016 2553 972 2059 
L 3022 2063 
z
" transform="scale(0.015625)"/>
       <path id="DejaVuSans-70" d="M 1159 525 
L 1159 -1331 
L 581 -1331 
L 581 3500 
L 1159 3500 
L 1159 2969 
Q 1341 3281 1617 3432 
Q 1894 3584 2278 3584 
Q 2916 3584 3314 3078 
Q 3713 2572 3713 1747 
Q 3713 922 3314 415 
Q 2916 -91 2278 -91 
Q 1894 -91 1617 61 
Q 1341 213 1159 525 
z
M 3116 1747 
Q 3116 2381 2855 2742 
Q 2594 3103 2138 3103 
Q 1681 3103 1420 2742 
Q 1159 2381 1159 1747 
Q 1159 1113 1420 752 
Q 1681 391 2138 391 
Q 2594 391 2855 752 
Q 3116 1113 3116 1747 
z
" transform="scale(0.015625)"/>
       <path id="DejaVuSans-6f" d="M 1959 3097 
Q 1497 3097 1228 2736 
Q 959 2375 959 1747 
Q 959 1119 1226 758 
Q 1494 397 1959 397 
Q 2419 397 2687 759 
Q 2956 1122 2956 1747 
Q 2956 2369 2687 2733 
Q 2419 3097 1959 3097 
z
M 1959 3584 
Q 2709 3584 3137 3096 
Q 3566 2609 3566 1747 
Q 3566 888 3137 398 
Q 2709 -91 1959 -91 
Q 1206 -91 779 398 
Q 353 888 353 1747 
Q 353 2609 779 3096 
Q 1206 3584 1959 3584 
z
" transform="scale(0.015625)"/>
       <path id="DejaVuSans-63" d="M 3122 3366 
L 3122 2828 
Q 2878 2963 2633 3030 
Q 2388 3097 2138 3097 
Q 1578 3097 1268 2742 
Q 959 2388 959 1747 
Q 959 1106 1268 751 
Q 1578 397 2138 397 
Q 2388 397 2633 464 
Q 2878 531 3122 666 
L 3122 134 
Q 2881 22 2623 -34 
Q 2366 -91 2075 -91 
Q 1284 -91 818 406 
Q 353 903 353 1747 
Q 353 2603 823 3093 
Q 1294 3584 2113 3584 
Q 2378 3584 2631 3529 
Q 2884 3475 3122 3366 
z
" transform="scale(0.015625)"/>
       <path id="DejaVuSans-68" d="M 3513 2113 
L 3513 0 
L 2938 0 
L 2938 2094 
Q 2938 2591 2744 2837 
Q 2550 3084 2163 3084 
Q 1697 3084 1428 2787 
Q 1159 2491 1159 1978 
L 1159 0 
L 581 0 
L 581 4863 
L 1159 4863 
L 1159 2956 
Q 1366 3272 1645 3428 
Q 1925 3584 2291 3584 
Q 2894 3584 3203 3211 
Q 3513 2838 3513 2113 
z
" transform="scale(0.015625)"/>
      </defs>
      <use xlink:href="#DejaVuSans-65"/>
      <use xlink:href="#DejaVuSans-70" x="61.523438"/>
      <use xlink:href="#DejaVuSans-6f" x="125"/>
      <use xlink:href="#DejaVuSans-63" x="186.181641"/>
      <use xlink:href="#DejaVuSans-68" x="241.162109"/>
     </g>
    </g>
   </g>
   <g id="matplotlib.axis_2">
    <g id="ytick_1">
     <g id="line2d_10">
      <defs>
       <path id="m174b89fd41" d="M 0 0 
L -3.5 0 
" style="stroke: #000000; stroke-width: 0.8"/>
      </defs>
      <g>
       <use xlink:href="#m174b89fd41" x="135" y="629.215277" style="stroke: #000000; stroke-width: 0.8"/>
      </g>
     </g>
     <g id="text_11">
      <!-- 1000 -->
      <g transform="translate(102.55 633.014496) scale(0.1 -0.1)">
       <use xlink:href="#DejaVuSans-31"/>
       <use xlink:href="#DejaVuSans-30" x="63.623047"/>
       <use xlink:href="#DejaVuSans-30" x="127.246094"/>
       <use xlink:href="#DejaVuSans-30" x="190.869141"/>
      </g>
     </g>
    </g>
    <g id="ytick_2">
     <g id="line2d_11">
      <g>
       <use xlink:href="#m174b89fd41" x="135" y="512.324881" style="stroke: #000000; stroke-width: 0.8"/>
      </g>
     </g>
     <g id="text_12">
      <!-- 2000 -->
      <g transform="translate(102.55 516.1241) scale(0.1 -0.1)">
       <use xlink:href="#DejaVuSans-32"/>
       <use xlink:href="#DejaVuSans-30" x="63.623047"/>
       <use xlink:href="#DejaVuSans-30" x="127.246094"/>
       <use xlink:href="#DejaVuSans-30" x="190.869141"/>
      </g>
     </g>
    </g>
    <g id="ytick_3">
     <g id="line2d_12">
      <g>
       <use xlink:href="#m174b89fd41" x="135" y="395.434484" style="stroke: #000000; stroke-width: 0.8"/>
      </g>
     </g>
     <g id="text_13">
      <!-- 3000 -->
      <g transform="translate(102.55 399.233703) scale(0.1 -0.1)">
       <defs>
        <path id="DejaVuSans-33" d="M 2597 2516 
Q 3050 2419 3304 2112 
Q 3559 1806 3559 1356 
Q 3559 666 3084 287 
Q 2609 -91 1734 -91 
Q 1441 -91 1130 -33 
Q 819 25 488 141 
L 488 750 
Q 750 597 1062 519 
Q 1375 441 1716 441 
Q 2309 441 2620 675 
Q 2931 909 2931 1356 
Q 2931 1769 2642 2001 
Q 2353 2234 1838 2234 
L 1294 2234 
L 1294 2753 
L 1863 2753 
Q 2328 2753 2575 2939 
Q 2822 3125 2822 3475 
Q 2822 3834 2567 4026 
Q 2313 4219 1838 4219 
Q 1578 4219 1281 4162 
Q 984 4106 628 3988 
L 628 4550 
Q 988 4650 1302 4700 
Q 1616 4750 1894 4750 
Q 2613 4750 3031 4423 
Q 3450 4097 3450 3541 
Q 3450 3153 3228 2886 
Q 3006 2619 2597 2516 
z
" transform="scale(0.015625)"/>
       </defs>
       <use xlink:href="#DejaVuSans-33"/>
       <use xlink:href="#DejaVuSans-30" x="63.623047"/>
       <use xlink:href="#DejaVuSans-30" x="127.246094"/>
       <use xlink:href="#DejaVuSans-30" x="190.869141"/>
      </g>
     </g>
    </g>
    <g id="ytick_4">
     <g id="line2d_13">
      <g>
       <use xlink:href="#m174b89fd41" x="135" y="278.544088" style="stroke: #000000; stroke-width: 0.8"/>
      </g>
     </g>
     <g id="text_14">
      <!-- 4000 -->
      <g transform="translate(102.55 282.343307) scale(0.1 -0.1)">
       <defs>
        <path id="DejaVuSans-34" d="M 2419 4116 
L 825 1625 
L 2419 1625 
L 2419 4116 
z
M 2253 4666 
L 3047 4666 
L 3047 1625 
L 3713 1625 
L 3713 1100 
L 3047 1100 
L 3047 0 
L 2419 0 
L 2419 1100 
L 313 1100 
L 313 1709 
L 2253 4666 
z
" transform="scale(0.015625)"/>
       </defs>
       <use xlink:href="#DejaVuSans-34"/>
       <use xlink:href="#DejaVuSans-30" x="63.623047"/>
       <use xlink:href="#DejaVuSans-30" x="127.246094"/>
       <use xlink:href="#DejaVuSans-30" x="190.869141"/>
      </g>
     </g>
    </g>
    <g id="ytick_5">
     <g id="line2d_14">
      <g>
       <use xlink:href="#m174b89fd41" x="135" y="161.653692" style="stroke: #000000; stroke-width: 0.8"/>
      </g>
     </g>
     <g id="text_15">
      <!-- 5000 -->
      <g transform="translate(102.55 165.45291) scale(0.1 -0.1)">
       <use xlink:href="#DejaVuSans-35"/>
       <use xlink:href="#DejaVuSans-30" x="63.623047"/>
       <use xlink:href="#DejaVuSans-30" x="127.246094"/>
       <use xlink:href="#DejaVuSans-30" x="190.869141"/>
      </g>
     </g>
    </g>
    <g id="text_16">
     <!-- Reconstruction score -->
     <g transform="translate(94.806562 457.993125) rotate(-90) scale(0.18 -0.18)">
      <defs>
       <path id="DejaVuSans-52" d="M 2841 2188 
Q 3044 2119 3236 1894 
Q 3428 1669 3622 1275 
L 4263 0 
L 3584 0 
L 2988 1197 
Q 2756 1666 2539 1819 
Q 2322 1972 1947 1972 
L 1259 1972 
L 1259 0 
L 628 0 
L 628 4666 
L 2053 4666 
Q 2853 4666 3247 4331 
Q 3641 3997 3641 3322 
Q 3641 2881 3436 2590 
Q 3231 2300 2841 2188 
z
M 1259 4147 
L 1259 2491 
L 2053 2491 
Q 2509 2491 2742 2702 
Q 2975 2913 2975 3322 
Q 2975 3731 2742 3939 
Q 2509 4147 2053 4147 
L 1259 4147 
z
" transform="scale(0.015625)"/>
       <path id="DejaVuSans-6e" d="M 3513 2113 
L 3513 0 
L 2938 0 
L 2938 2094 
Q 2938 2591 2744 2837 
Q 2550 3084 2163 3084 
Q 1697 3084 1428 2787 
Q 1159 2491 1159 1978 
L 1159 0 
L 581 0 
L 581 3500 
L 1159 3500 
L 1159 2956 
Q 1366 3272 1645 3428 
Q 1925 3584 2291 3584 
Q 2894 3584 3203 3211 
Q 3513 2838 3513 2113 
z
" transform="scale(0.015625)"/>
       <path id="DejaVuSans-73" d="M 2834 3397 
L 2834 2853 
Q 2591 2978 2328 3040 
Q 2066 3103 1784 3103 
Q 1356 3103 1142 2972 
Q 928 2841 928 2578 
Q 928 2378 1081 2264 
Q 1234 2150 1697 2047 
L 1894 2003 
Q 2506 1872 2764 1633 
Q 3022 1394 3022 966 
Q 3022 478 2636 193 
Q 2250 -91 1575 -91 
Q 1294 -91 989 -36 
Q 684 19 347 128 
L 347 722 
Q 666 556 975 473 
Q 1284 391 1588 391 
Q 1994 391 2212 530 
Q 2431 669 2431 922 
Q 2431 1156 2273 1281 
Q 2116 1406 1581 1522 
L 1381 1569 
Q 847 1681 609 1914 
Q 372 2147 372 2553 
Q 372 3047 722 3315 
Q 1072 3584 1716 3584 
Q 2034 3584 2315 3537 
Q 2597 3491 2834 3397 
z
" transform="scale(0.015625)"/>
       <path id="DejaVuSans-74" d="M 1172 4494 
L 1172 3500 
L 2356 3500 
L 2356 3053 
L 1172 3053 
L 1172 1153 
Q 1172 725 1289 603 
Q 1406 481 1766 481 
L 2356 481 
L 2356 0 
L 1766 0 
Q 1100 0 847 248 
Q 594 497 594 1153 
L 594 3053 
L 172 3053 
L 172 3500 
L 594 3500 
L 594 4494 
L 1172 4494 
z
" transform="scale(0.015625)"/>
       <path id="DejaVuSans-72" d="M 2631 2963 
Q 2534 3019 2420 3045 
Q 2306 3072 2169 3072 
Q 1681 3072 1420 2755 
Q 1159 2438 1159 1844 
L 1159 0 
L 581 0 
L 581 3500 
L 1159 3500 
L 1159 2956 
Q 1341 3275 1631 3429 
Q 1922 3584 2338 3584 
Q 2397 3584 2469 3576 
Q 2541 3569 2628 3553 
L 2631 2963 
z
" transform="scale(0.015625)"/>
       <path id="DejaVuSans-75" d="M 544 1381 
L 544 3500 
L 1119 3500 
L 1119 1403 
Q 1119 906 1312 657 
Q 1506 409 1894 409 
Q 2359 409 2629 706 
Q 2900 1003 2900 1516 
L 2900 3500 
L 3475 3500 
L 3475 0 
L 2900 0 
L 2900 538 
Q 2691 219 2414 64 
Q 2138 -91 1772 -91 
Q 1169 -91 856 284 
Q 544 659 544 1381 
z
M 1991 3584 
L 1991 3584 
z
" transform="scale(0.015625)"/>
       <path id="DejaVuSans-69" d="M 603 3500 
L 1178 3500 
L 1178 0 
L 603 0 
L 603 3500 
z
M 603 4863 
L 1178 4863 
L 1178 4134 
L 603 4134 
L 603 4863 
z
" transform="scale(0.015625)"/>
       <path id="DejaVuSans-20" transform="scale(0.015625)"/>
      </defs>
      <use xlink:href="#DejaVuSans-52"/>
      <use xlink:href="#DejaVuSans-65" x="64.982422"/>
      <use xlink:href="#DejaVuSans-63" x="126.505859"/>
      <use xlink:href="#DejaVuSans-6f" x="181.486328"/>
      <use xlink:href="#DejaVuSans-6e" x="242.667969"/>
      <use xlink:href="#DejaVuSans-73" x="306.046875"/>
      <use xlink:href="#DejaVuSans-74" x="358.146484"/>
      <use xlink:href="#DejaVuSans-72" x="397.355469"/>
      <use xlink:href="#DejaVuSans-75" x="438.46875"/>
      <use xlink:href="#DejaVuSans-63" x="501.847656"/>
      <use xlink:href="#DejaVuSans-74" x="556.828125"/>
      <use xlink:href="#DejaVuSans-69" x="596.037109"/>
      <use xlink:href="#DejaVuSans-6f" x="623.820312"/>
      <use xlink:href="#DejaVuSans-6e" x="685.001953"/>
      <use xlink:href="#DejaVuSans-20" x="748.380859"/>
      <use xlink:href="#DejaVuSans-73" x="780.167969"/>
      <use xlink:href="#DejaVuSans-63" x="832.267578"/>
      <use xlink:href="#DejaVuSans-6f" x="887.248047"/>
      <use xlink:href="#DejaVuSans-72" x="948.429688"/>
      <use xlink:href="#DejaVuSans-65" x="987.292969"/>
     </g>
    </g>
   </g>
   <g id="line2d_15">
    <path d="M 173.045455 113.870294 
L 176.869118 217.904823 
L 180.692782 289.08717 
L 184.516446 346.693434 
L 188.34011 390.680757 
L 192.163773 413.060311 
L 195.987437 439.344814 
L 199.811101 451.018904 
L 203.634765 468.024388 
L 207.458429 488.263463 
L 211.282092 507.234015 
L 215.105756 516.850483 
L 218.92942 525.564446 
L 222.753084 524.719018 
L 226.576747 534.027927 
L 230.400411 531.02729 
L 234.224075 542.04601 
L 238.047739 543.762625 
L 241.871402 546.756123 
L 245.695066 551.852673 
L 249.51873 550.46371 
L 253.342394 544.651589 
L 257.166058 547.765723 
L 260.989721 560.226972 
L 264.813385 557.806478 
L 268.637049 560.473474 
L 272.460713 561.872374 
L 276.284376 567.286134 
L 280.10804 565.332016 
L 283.931704 568.764976 
L 287.755368 569.336423 
L 291.579032 572.027325 
L 295.402695 573.803622 
L 299.226359 575.03146 
L 303.050023 577.247394 
L 306.873687 575.39236 
L 310.69735 573.077596 
L 314.521014 579.029503 
L 318.344678 574.759755 
L 322.168342 579.893517 
L 325.992005 581.978985 
L 329.815669 581.586084 
L 333.639333 582.416139 
L 337.462997 583.791133 
L 341.286661 585.363562 
L 345.110324 585.065065 
L 348.933988 573.608404 
L 352.757652 584.171975 
L 356.581316 586.947206 
L 360.404979 583.654247 
L 364.228643 587.21197 
L 368.052307 586.602009 
L 371.875971 590.047279 
L 375.699635 592.195115 
L 379.523298 588.295291 
L 383.346962 593.011376 
L 387.170626 593.65151 
L 390.99429 594.020152 
L 394.817953 594.519204 
L 398.641617 593.709427 
L 402.465281 590.92152 
L 406.288945 595.760581 
L 410.112608 596.467449 
L 413.936272 592.69903 
L 417.759936 595.485725 
L 421.5836 591.999771 
L 425.407264 597.970834 
L 429.230927 590.340249 
L 433.054591 598.293399 
L 436.878255 598.694124 
L 440.701919 598.458359 
L 444.525582 596.201925 
L 448.349246 597.024046 
L 452.17291 597.057761 
L 455.996574 595.755731 
L 459.820238 599.22383 
L 463.643901 602.069468 
L 467.467565 599.063808 
L 471.291229 601.078008 
L 475.114893 603.277395 
L 482.76222 604.970343 
L 486.585884 603.846519 
L 490.409548 604.664881 
L 494.233212 605.156184 
L 498.056875 604.783897 
L 501.880539 602.54799 
L 505.704203 605.80676 
L 509.527867 604.003166 
L 513.35153 605.580569 
L 517.175194 605.293341 
L 520.998858 607.447665 
L 524.822522 606.468643 
L 528.646185 607.238986 
L 532.469849 606.198558 
L 536.293513 608.446462 
L 540.117177 608.55459 
L 543.940841 607.843678 
L 547.764504 607.84009 
L 551.588168 608.063339 
L 555.411832 609.118074 
L 559.235496 608.034225 
L 563.059159 605.743977 
L 566.882823 608.989821 
L 570.706487 608.736158 
L 574.530151 609.4344 
L 578.353815 610.748451 
L 582.177478 608.869305 
L 586.001142 609.575907 
L 589.824806 608.961407 
L 593.64847 610.397754 
L 597.472133 610.373614 
L 601.295797 608.97152 
L 605.119461 609.717153 
L 608.943125 608.528794 
L 612.766788 610.69083 
L 616.590452 606.804582 
L 620.414116 608.350734 
L 624.23778 610.902566 
L 628.061444 610.87071 
L 631.885107 609.954099 
L 635.708771 610.23438 
L 639.532435 609.084554 
L 643.356099 606.877371 
L 647.179762 610.26221 
L 651.003426 610.491057 
L 654.82709 607.567251 
L 658.650754 611.659556 
L 662.474418 611.661233 
L 666.298081 607.989802 
L 670.121745 610.152036 
L 673.945409 610.682303 
L 677.769073 605.718498 
L 681.592736 610.148037 
L 685.4164 611.528229 
L 689.240064 609.623358 
L 693.063728 610.848867 
L 696.887392 611.787383 
L 700.711055 614.710722 
L 704.534719 614.719041 
L 708.358383 615.288444 
L 712.182047 615.34123 
L 716.00571 614.983374 
L 719.829374 615.593537 
L 738.947693 615.547589 
L 758.066012 615.514839 
L 761.889676 615.359104 
L 769.537003 615.442751 
L 773.360667 615.234964 
L 777.184331 615.407132 
L 781.007995 615.290132 
L 784.831658 614.637349 
L 788.655322 615.434461 
L 796.30265 615.134249 
L 800.126313 615.392866 
L 803.949977 615.497547 
L 807.773641 615.3208 
L 819.244632 615.341095 
L 826.89196 615.411897 
L 849.833942 615.508079 
L 861.304934 615.458281 
L 884.246916 615.476319 
L 888.07058 615.433233 
L 891.894244 615.512972 
L 895.717908 615.348061 
L 899.541571 615.434817 
L 907.188899 615.407462 
L 922.483554 615.479318 
L 926.307218 615.409603 
L 933.954545 615.449441 
L 933.954545 615.449441 
" clip-path="url(#pcc9c7a63b9)" style="fill: none; stroke: #ff0000; stroke-width: 1.5; stroke-linecap: square"/>
   </g>
   <g id="line2d_16">
    <path d="M 173.045455 111.6 
L 176.869118 216.877493 
L 180.692782 288.579235 
L 184.516446 345.969897 
L 188.34011 389.602711 
L 192.163773 412.415946 
L 195.987437 438.133431 
L 199.811101 449.281491 
L 203.634765 466.340933 
L 211.282092 504.842746 
L 215.105756 514.382862 
L 218.92942 523.190641 
L 222.753084 522.646691 
L 226.576747 531.807901 
L 230.400411 528.638507 
L 234.224075 539.826327 
L 238.047739 541.278507 
L 241.871402 544.365896 
L 245.695066 549.23366 
L 249.51873 548.216636 
L 253.342394 542.607113 
L 257.166058 545.596831 
L 260.989721 558.175547 
L 264.813385 555.581925 
L 268.637049 558.66645 
L 272.460713 559.746939 
L 276.284376 565.240252 
L 280.10804 563.108511 
L 283.931704 566.962116 
L 287.755368 567.08125 
L 291.579032 569.880899 
L 295.402695 571.788537 
L 299.226359 572.966932 
L 303.050023 574.956502 
L 306.873687 573.261283 
L 310.69735 570.985134 
L 314.521014 577.093635 
L 318.344678 572.703347 
L 322.168342 577.924833 
L 325.992005 579.901397 
L 329.815669 579.703979 
L 333.639333 580.308177 
L 341.286661 583.233111 
L 345.110324 583.223049 
L 348.933988 571.632127 
L 352.757652 582.204251 
L 356.581316 585.082665 
L 360.404979 581.778691 
L 364.228643 585.0621 
L 368.052307 584.537356 
L 371.875971 587.953937 
L 375.699635 590.325126 
L 379.523298 586.396625 
L 383.346962 591.155217 
L 387.170626 591.859391 
L 390.99429 592.147392 
L 394.817953 592.614225 
L 398.641617 591.81794 
L 402.465281 589.108377 
L 406.288945 593.826739 
L 410.112608 594.502249 
L 413.936272 590.763256 
L 417.759936 593.685952 
L 421.5836 589.90687 
L 425.407264 596.13634 
L 429.230927 588.643083 
L 433.054591 596.43444 
L 436.878255 596.65252 
L 440.701919 596.749721 
L 444.525582 594.596503 
L 448.349246 595.238154 
L 452.17291 595.282232 
L 455.996574 593.81074 
L 459.820238 597.590494 
L 463.643901 600.415812 
L 467.467565 597.428081 
L 475.114893 601.511171 
L 478.938556 602.356554 
L 482.76222 603.398953 
L 486.585884 602.162939 
L 490.409548 603.133066 
L 494.233212 603.555281 
L 498.056875 603.041744 
L 501.880539 600.90675 
L 505.704203 604.152641 
L 509.527867 602.442617 
L 513.35153 603.855358 
L 517.175194 603.67588 
L 520.998858 605.928546 
L 524.822522 604.899828 
L 528.646185 605.750111 
L 532.469849 604.425418 
L 536.293513 607.010002 
L 540.117177 607.002467 
L 543.940841 606.347175 
L 547.764504 606.262918 
L 551.588168 606.575218 
L 555.411832 607.488276 
L 559.235496 606.578798 
L 563.059159 604.253308 
L 566.882823 607.533575 
L 570.706487 607.417605 
L 574.530151 608.033588 
L 578.353815 609.249918 
L 582.177478 607.417685 
L 586.001142 608.017474 
L 589.824806 607.425719 
L 593.64847 608.954528 
L 597.472133 608.820202 
L 601.295797 607.549441 
L 605.119461 608.154685 
L 608.943125 607.040294 
L 612.766788 609.360156 
L 616.590452 605.483293 
L 620.414116 607.084781 
L 624.23778 609.394989 
L 628.061444 609.173428 
L 631.885107 608.346015 
L 635.708771 608.730362 
L 639.532435 607.612107 
L 643.356099 605.539132 
L 647.179762 608.918732 
L 651.003426 609.042553 
L 654.82709 606.158476 
L 658.650754 610.280503 
L 662.474418 610.219748 
L 666.298081 606.52689 
L 670.121745 608.704209 
L 673.945409 609.345924 
L 677.769073 604.175912 
L 681.592736 608.793909 
L 685.4164 610.190609 
L 689.240064 608.321619 
L 693.063728 609.433157 
L 696.887392 610.371434 
L 700.711055 613.324276 
L 704.534719 613.304405 
L 708.358383 613.92484 
L 712.182047 613.961457 
L 716.00571 613.669977 
L 719.829374 614.177676 
L 727.476702 614.262317 
L 731.300365 614.0554 
L 735.124029 614.253558 
L 750.418684 614.342886 
L 754.242348 614.128117 
L 781.007995 613.961615 
L 784.831658 613.300028 
L 788.655322 614.126504 
L 796.30265 613.807607 
L 800.126313 614.077837 
L 803.949977 614.147926 
L 807.773641 613.978396 
L 834.539287 614.128125 
L 838.362951 614.025627 
L 842.186615 614.167753 
L 891.894244 614.240958 
L 895.717908 614.000921 
L 899.541571 614.129216 
L 903.365235 614.044936 
L 911.012563 614.156831 
L 918.65989 614.067172 
L 922.483554 614.165326 
L 933.954545 614.10537 
L 933.954545 614.10537 
" clip-path="url(#pcc9c7a63b9)" style="fill: none; stroke: #1e90ff; stroke-width: 1.5; stroke-linecap: square"/>
   </g>
   <g id="patch_3">
    <path d="M 135 640.8 
L 135 86.4 
" style="fill: none; stroke: #000000; stroke-width: 0.8; stroke-linejoin: miter; stroke-linecap: square"/>
   </g>
   <g id="patch_4">
    <path d="M 972 640.8 
L 972 86.4 
" style="fill: none; stroke: #000000; stroke-width: 0.8; stroke-linejoin: miter; stroke-linecap: square"/>
   </g>
   <g id="patch_5">
    <path d="M 135 640.8 
L 972 640.8 
" style="fill: none; stroke: #000000; stroke-width: 0.8; stroke-linejoin: miter; stroke-linecap: square"/>
   </g>
   <g id="patch_6">
    <path d="M 135 86.4 
L 972 86.4 
" style="fill: none; stroke: #000000; stroke-width: 0.8; stroke-linejoin: miter; stroke-linecap: square"/>
   </g>
   <g id="text_17">
    <!-- Reconstruction score during validation -->
    <g transform="translate(380.040469 80.4) scale(0.18 -0.18)">
     <defs>
      <path id="DejaVuSans-64" d="M 2906 2969 
L 2906 4863 
L 3481 4863 
L 3481 0 
L 2906 0 
L 2906 525 
Q 2725 213 2448 61 
Q 2172 -91 1784 -91 
Q 1150 -91 751 415 
Q 353 922 353 1747 
Q 353 2572 751 3078 
Q 1150 3584 1784 3584 
Q 2172 3584 2448 3432 
Q 2725 3281 2906 2969 
z
M 947 1747 
Q 947 1113 1208 752 
Q 1469 391 1925 391 
Q 2381 391 2643 752 
Q 2906 1113 2906 1747 
Q 2906 2381 2643 2742 
Q 2381 3103 1925 3103 
Q 1469 3103 1208 2742 
Q 947 2381 947 1747 
z
" transform="scale(0.015625)"/>
      <path id="DejaVuSans-67" d="M 2906 1791 
Q 2906 2416 2648 2759 
Q 2391 3103 1925 3103 
Q 1463 3103 1205 2759 
Q 947 2416 947 1791 
Q 947 1169 1205 825 
Q 1463 481 1925 481 
Q 2391 481 2648 825 
Q 2906 1169 2906 1791 
z
M 3481 434 
Q 3481 -459 3084 -895 
Q 2688 -1331 1869 -1331 
Q 1566 -1331 1297 -1286 
Q 1028 -1241 775 -1147 
L 775 -588 
Q 1028 -725 1275 -790 
Q 1522 -856 1778 -856 
Q 2344 -856 2625 -561 
Q 2906 -266 2906 331 
L 2906 616 
Q 2728 306 2450 153 
Q 2172 0 1784 0 
Q 1141 0 747 490 
Q 353 981 353 1791 
Q 353 2603 747 3093 
Q 1141 3584 1784 3584 
Q 2172 3584 2450 3431 
Q 2728 3278 2906 2969 
L 2906 3500 
L 3481 3500 
L 3481 434 
z
" transform="scale(0.015625)"/>
      <path id="DejaVuSans-76" d="M 191 3500 
L 800 3500 
L 1894 563 
L 2988 3500 
L 3597 3500 
L 2284 0 
L 1503 0 
L 191 3500 
z
" transform="scale(0.015625)"/>
      <path id="DejaVuSans-61" d="M 2194 1759 
Q 1497 1759 1228 1600 
Q 959 1441 959 1056 
Q 959 750 1161 570 
Q 1363 391 1709 391 
Q 2188 391 2477 730 
Q 2766 1069 2766 1631 
L 2766 1759 
L 2194 1759 
z
M 3341 1997 
L 3341 0 
L 2766 0 
L 2766 531 
Q 2569 213 2275 61 
Q 1981 -91 1556 -91 
Q 1019 -91 701 211 
Q 384 513 384 1019 
Q 384 1609 779 1909 
Q 1175 2209 1959 2209 
L 2766 2209 
L 2766 2266 
Q 2766 2663 2505 2880 
Q 2244 3097 1772 3097 
Q 1472 3097 1187 3025 
Q 903 2953 641 2809 
L 641 3341 
Q 956 3463 1253 3523 
Q 1550 3584 1831 3584 
Q 2591 3584 2966 3190 
Q 3341 2797 3341 1997 
z
" transform="scale(0.015625)"/>
      <path id="DejaVuSans-6c" d="M 603 4863 
L 1178 4863 
L 1178 0 
L 603 0 
L 603 4863 
z
" transform="scale(0.015625)"/>
     </defs>
     <use xlink:href="#DejaVuSans-52"/>
     <use xlink:href="#DejaVuSans-65" x="64.982422"/>
     <use xlink:href="#DejaVuSans-63" x="126.505859"/>
     <use xlink:href="#DejaVuSans-6f" x="181.486328"/>
     <use xlink:href="#DejaVuSans-6e" x="242.667969"/>
     <use xlink:href="#DejaVuSans-73" x="306.046875"/>
     <use xlink:href="#DejaVuSans-74" x="358.146484"/>
     <use xlink:href="#DejaVuSans-72" x="397.355469"/>
     <use xlink:href="#DejaVuSans-75" x="438.46875"/>
     <use xlink:href="#DejaVuSans-63" x="501.847656"/>
     <use xlink:href="#DejaVuSans-74" x="556.828125"/>
     <use xlink:href="#DejaVuSans-69" x="596.037109"/>
     <use xlink:href="#DejaVuSans-6f" x="623.820312"/>
     <use xlink:href="#DejaVuSans-6e" x="685.001953"/>
     <use xlink:href="#DejaVuSans-20" x="748.380859"/>
     <use xlink:href="#DejaVuSans-73" x="780.167969"/>
     <use xlink:href="#DejaVuSans-63" x="832.267578"/>
     <use xlink:href="#DejaVuSans-6f" x="887.248047"/>
     <use xlink:href="#DejaVuSans-72" x="948.429688"/>
     <use xlink:href="#DejaVuSans-65" x="987.292969"/>
     <use xlink:href="#DejaVuSans-20" x="1048.816406"/>
     <use xlink:href="#DejaVuSans-64" x="1080.603516"/>
     <use xlink:href="#DejaVuSans-75" x="1144.080078"/>
     <use xlink:href="#DejaVuSans-72" x="1207.458984"/>
     <use xlink:href="#DejaVuSans-69" x="1248.572266"/>
     <use xlink:href="#DejaVuSans-6e" x="1276.355469"/>
     <use xlink:href="#DejaVuSans-67" x="1339.734375"/>
     <use xlink:href="#DejaVuSans-20" x="1403.210938"/>
     <use xlink:href="#DejaVuSans-76" x="1434.998047"/>
     <use xlink:href="#DejaVuSans-61" x="1494.177734"/>
     <use xlink:href="#DejaVuSans-6c" x="1555.457031"/>
     <use xlink:href="#DejaVuSans-69" x="1583.240234"/>
     <use xlink:href="#DejaVuSans-64" x="1611.023438"/>
     <use xlink:href="#DejaVuSans-61" x="1674.5"/>
     <use xlink:href="#DejaVuSans-74" x="1735.779297"/>
     <use xlink:href="#DejaVuSans-69" x="1774.988281"/>
     <use xlink:href="#DejaVuSans-6f" x="1802.771484"/>
     <use xlink:href="#DejaVuSans-6e" x="1863.953125"/>
    </g>
   </g>
   <g id="legend_1">
    <g id="patch_7">
     <path d="M 555.179063 153.64125 
L 959.4 153.64125 
Q 963 153.64125 963 150.04125 
L 963 99 
Q 963 95.4 959.4 95.4 
L 555.179063 95.4 
Q 551.579063 95.4 551.579063 99 
L 551.579063 150.04125 
Q 551.579063 153.64125 555.179063 153.64125 
z
" style="fill: #ffffff; opacity: 0.8; stroke: #cccccc; stroke-linejoin: miter"/>
    </g>
    <g id="line2d_17">
     <path d="M 558.779063 109.977187 
L 576.779063 109.977187 
L 594.779063 109.977187 
" style="fill: none; stroke: #ff0000; stroke-width: 1.5; stroke-linecap: square"/>
    </g>
    <g id="text_18">
     <!-- Deepfake images reconstruction score -->
     <g transform="translate(609.179063 116.277187) scale(0.18 -0.18)">
      <defs>
       <path id="DejaVuSans-44" d="M 1259 4147 
L 1259 519 
L 2022 519 
Q 2988 519 3436 956 
Q 3884 1394 3884 2338 
Q 3884 3275 3436 3711 
Q 2988 4147 2022 4147 
L 1259 4147 
z
M 628 4666 
L 1925 4666 
Q 3281 4666 3915 4102 
Q 4550 3538 4550 2338 
Q 4550 1131 3912 565 
Q 3275 0 1925 0 
L 628 0 
L 628 4666 
z
" transform="scale(0.015625)"/>
       <path id="DejaVuSans-66" d="M 2375 4863 
L 2375 4384 
L 1825 4384 
Q 1516 4384 1395 4259 
Q 1275 4134 1275 3809 
L 1275 3500 
L 2222 3500 
L 2222 3053 
L 1275 3053 
L 1275 0 
L 697 0 
L 697 3053 
L 147 3053 
L 147 3500 
L 697 3500 
L 697 3744 
Q 697 4328 969 4595 
Q 1241 4863 1831 4863 
L 2375 4863 
z
" transform="scale(0.015625)"/>
       <path id="DejaVuSans-6b" d="M 581 4863 
L 1159 4863 
L 1159 1991 
L 2875 3500 
L 3609 3500 
L 1753 1863 
L 3688 0 
L 2938 0 
L 1159 1709 
L 1159 0 
L 581 0 
L 581 4863 
z
" transform="scale(0.015625)"/>
       <path id="DejaVuSans-6d" d="M 3328 2828 
Q 3544 3216 3844 3400 
Q 4144 3584 4550 3584 
Q 5097 3584 5394 3201 
Q 5691 2819 5691 2113 
L 5691 0 
L 5113 0 
L 5113 2094 
Q 5113 2597 4934 2840 
Q 4756 3084 4391 3084 
Q 3944 3084 3684 2787 
Q 3425 2491 3425 1978 
L 3425 0 
L 2847 0 
L 2847 2094 
Q 2847 2600 2669 2842 
Q 2491 3084 2119 3084 
Q 1678 3084 1418 2786 
Q 1159 2488 1159 1978 
L 1159 0 
L 581 0 
L 581 3500 
L 1159 3500 
L 1159 2956 
Q 1356 3278 1631 3431 
Q 1906 3584 2284 3584 
Q 2666 3584 2933 3390 
Q 3200 3197 3328 2828 
z
" transform="scale(0.015625)"/>
      </defs>
      <use xlink:href="#DejaVuSans-44"/>
      <use xlink:href="#DejaVuSans-65" x="77.001953"/>
      <use xlink:href="#DejaVuSans-65" x="138.525391"/>
      <use xlink:href="#DejaVuSans-70" x="200.048828"/>
      <use xlink:href="#DejaVuSans-66" x="263.525391"/>
      <use xlink:href="#DejaVuSans-61" x="298.730469"/>
      <use xlink:href="#DejaVuSans-6b" x="360.009766"/>
      <use xlink:href="#DejaVuSans-65" x="414.294922"/>
      <use xlink:href="#DejaVuSans-20" x="475.818359"/>
      <use xlink:href="#DejaVuSans-69" x="507.605469"/>
      <use xlink:href="#DejaVuSans-6d" x="535.388672"/>
      <use xlink:href="#DejaVuSans-61" x="632.800781"/>
      <use xlink:href="#DejaVuSans-67" x="694.080078"/>
      <use xlink:href="#DejaVuSans-65" x="757.556641"/>
      <use xlink:href="#DejaVuSans-73" x="819.080078"/>
      <use xlink:href="#DejaVuSans-20" x="871.179688"/>
      <use xlink:href="#DejaVuSans-72" x="902.966797"/>
      <use xlink:href="#DejaVuSans-65" x="941.830078"/>
      <use xlink:href="#DejaVuSans-63" x="1003.353516"/>
      <use xlink:href="#DejaVuSans-6f" x="1058.333984"/>
      <use xlink:href="#DejaVuSans-6e" x="1119.515625"/>
      <use xlink:href="#DejaVuSans-73" x="1182.894531"/>
      <use xlink:href="#DejaVuSans-74" x="1234.994141"/>
      <use xlink:href="#DejaVuSans-72" x="1274.203125"/>
      <use xlink:href="#DejaVuSans-75" x="1315.316406"/>
      <use xlink:href="#DejaVuSans-63" x="1378.695312"/>
      <use xlink:href="#DejaVuSans-74" x="1433.675781"/>
      <use xlink:href="#DejaVuSans-69" x="1472.884766"/>
      <use xlink:href="#DejaVuSans-6f" x="1500.667969"/>
      <use xlink:href="#DejaVuSans-6e" x="1561.849609"/>
      <use xlink:href="#DejaVuSans-20" x="1625.228516"/>
      <use xlink:href="#DejaVuSans-73" x="1657.015625"/>
      <use xlink:href="#DejaVuSans-63" x="1709.115234"/>
      <use xlink:href="#DejaVuSans-6f" x="1764.095703"/>
      <use xlink:href="#DejaVuSans-72" x="1825.277344"/>
      <use xlink:href="#DejaVuSans-65" x="1864.140625"/>
     </g>
    </g>
    <g id="line2d_18">
     <path d="M 558.779063 136.397812 
L 576.779063 136.397812 
L 594.779063 136.397812 
" style="fill: none; stroke: #1e90ff; stroke-width: 1.5; stroke-linecap: square"/>
    </g>
    <g id="text_19">
     <!-- Real images reconstruction score -->
     <g transform="translate(609.179063 142.697812) scale(0.18 -0.18)">
      <use xlink:href="#DejaVuSans-52"/>
      <use xlink:href="#DejaVuSans-65" x="64.982422"/>
      <use xlink:href="#DejaVuSans-61" x="126.505859"/>
      <use xlink:href="#DejaVuSans-6c" x="187.785156"/>
      <use xlink:href="#DejaVuSans-20" x="215.568359"/>
      <use xlink:href="#DejaVuSans-69" x="247.355469"/>
      <use xlink:href="#DejaVuSans-6d" x="275.138672"/>
      <use xlink:href="#DejaVuSans-61" x="372.550781"/>
      <use xlink:href="#DejaVuSans-67" x="433.830078"/>
      <use xlink:href="#DejaVuSans-65" x="497.306641"/>
      <use xlink:href="#DejaVuSans-73" x="558.830078"/>
      <use xlink:href="#DejaVuSans-20" x="610.929688"/>
      <use xlink:href="#DejaVuSans-72" x="642.716797"/>
      <use xlink:href="#DejaVuSans-65" x="681.580078"/>
      <use xlink:href="#DejaVuSans-63" x="743.103516"/>
      <use xlink:href="#DejaVuSans-6f" x="798.083984"/>
      <use xlink:href="#DejaVuSans-6e" x="859.265625"/>
      <use xlink:href="#DejaVuSans-73" x="922.644531"/>
      <use xlink:href="#DejaVuSans-74" x="974.744141"/>
      <use xlink:href="#DejaVuSans-72" x="1013.953125"/>
      <use xlink:href="#DejaVuSans-75" x="1055.066406"/>
      <use xlink:href="#DejaVuSans-63" x="1118.445312"/>
      <use xlink:href="#DejaVuSans-74" x="1173.425781"/>
      <use xlink:href="#DejaVuSans-69" x="1212.634766"/>
      <use xlink:href="#DejaVuSans-6f" x="1240.417969"/>
      <use xlink:href="#DejaVuSans-6e" x="1301.599609"/>
      <use xlink:href="#DejaVuSans-20" x="1364.978516"/>
      <use xlink:href="#DejaVuSans-73" x="1396.765625"/>
      <use xlink:href="#DejaVuSans-63" x="1448.865234"/>
      <use xlink:href="#DejaVuSans-6f" x="1503.845703"/>
      <use xlink:href="#DejaVuSans-72" x="1565.027344"/>
      <use xlink:href="#DejaVuSans-65" x="1603.890625"/>
     </g>
    </g>
   </g>
  </g>
 </g>
 <defs>
  <clipPath id="pcc9c7a63b9">
   <rect x="135" y="86.4" width="837" height="554.4"/>
  </clipPath>
 </defs>
</svg>
