<?xml version="1.0" encoding="utf-8" standalone="no"?>
<!DOCTYPE svg PUBLIC "-//W3C//DTD SVG 1.1//EN"
  "http://www.w3.org/Graphics/SVG/1.1/DTD/svg11.dtd">
<svg xmlns:xlink="http://www.w3.org/1999/xlink" width="1080pt" height="720pt" viewBox="0 0 1080 720" xmlns="http://www.w3.org/2000/svg" version="1.1">
 <metadata>
  <rdf:RDF xmlns:dc="http://purl.org/dc/elements/1.1/" xmlns:cc="http://creativecommons.org/ns#" xmlns:rdf="http://www.w3.org/1999/02/22-rdf-syntax-ns#">
   <cc:Work>
    <dc:type rdf:resource="http://purl.org/dc/dcmitype/StillImage"/>
    <dc:date>2024-01-09T09:26:10.098593</dc:date>
    <dc:format>image/svg+xml</dc:format>
    <dc:creator>
     <cc:Agent>
      <dc:title>Matplotlib v3.7.4, https://matplotlib.org/</dc:title>
     </cc:Agent>
    </dc:creator>
   </cc:Work>
  </rdf:RDF>
 </metadata>
 <defs>
  <style type="text/css">*{stroke-linejoin: round; stroke-linecap: butt}</style>
 </defs>
 <g id="figure_1">
  <g id="patch_1">
   <path d="M 0 720 
L 1080 720 
L 1080 0 
L 0 0 
z
" style="fill: #ffffff"/>
  </g>
  <g id="axes_1">
   <g id="patch_2">
    <path d="M 135 640.8 
L 972 640.8 
L 972 86.4 
L 135 86.4 
z
" style="fill: #ffffff"/>
   </g>
   <g id="matplotlib.axis_1">
    <g id="xtick_1">
     <g id="line2d_1">
      <defs>
       <path id="mee41b141ab" d="M 0 0 
L 0 3.5 
" style="stroke: #000000; stroke-width: 0.8"/>
      </defs>
      <g>
       <use xlink:href="#mee41b141ab" x="173.045455" y="640.8" style="stroke: #000000; stroke-width: 0.8"/>
      </g>
     </g>
     <g id="text_1">
      <!-- 0 -->
      <g transform="translate(169.864205 655.398438) scale(0.1 -0.1)">
       <defs>
        <path id="DejaVuSans-30" d="M 2034 4250 
Q 1547 4250 1301 3770 
Q 1056 3291 1056 2328 
Q 1056 1369 1301 889 
Q 1547 409 2034 409 
Q 2525 409 2770 889 
Q 3016 1369 3016 2328 
Q 3016 3291 2770 3770 
Q 2525 4250 2034 4250 
z
M 2034 4750 
Q 2819 4750 3233 4129 
Q 3647 3509 3647 2328 
Q 3647 1150 3233 529 
Q 2819 -91 2034 -91 
Q 1250 -91 836 529 
Q 422 1150 422 2328 
Q 422 3509 836 4129 
Q 1250 4750 2034 4750 
z
" transform="scale(0.015625)"/>
       </defs>
       <use xlink:href="#DejaVuSans-30"/>
      </g>
     </g>
    </g>
    <g id="xtick_2">
     <g id="line2d_2">
      <g>
       <use xlink:href="#mee41b141ab" x="312.661802" y="640.8" style="stroke: #000000; stroke-width: 0.8"/>
      </g>
     </g>
     <g id="text_2">
      <!-- 20 -->
      <g transform="translate(306.299302 655.398438) scale(0.1 -0.1)">
       <defs>
        <path id="DejaVuSans-32" d="M 1228 531 
L 3431 531 
L 3431 0 
L 469 0 
L 469 531 
Q 828 903 1448 1529 
Q 2069 2156 2228 2338 
Q 2531 2678 2651 2914 
Q 2772 3150 2772 3378 
Q 2772 3750 2511 3984 
Q 2250 4219 1831 4219 
Q 1534 4219 1204 4116 
Q 875 4013 500 3803 
L 500 4441 
Q 881 4594 1212 4672 
Q 1544 4750 1819 4750 
Q 2544 4750 2975 4387 
Q 3406 4025 3406 3419 
Q 3406 3131 3298 2873 
Q 3191 2616 2906 2266 
Q 2828 2175 2409 1742 
Q 1991 1309 1228 531 
z
" transform="scale(0.015625)"/>
       </defs>
       <use xlink:href="#DejaVuSans-32"/>
       <use xlink:href="#DejaVuSans-30" x="63.623047"/>
      </g>
     </g>
    </g>
    <g id="xtick_3">
     <g id="line2d_3">
      <g>
       <use xlink:href="#mee41b141ab" x="452.278148" y="640.8" style="stroke: #000000; stroke-width: 0.8"/>
      </g>
     </g>
     <g id="text_3">
      <!-- 40 -->
      <g transform="translate(445.915648 655.398438) scale(0.1 -0.1)">
       <defs>
        <path id="DejaVuSans-34" d="M 2419 4116 
L 825 1625 
L 2419 1625 
L 2419 4116 
z
M 2253 4666 
L 3047 4666 
L 3047 1625 
L 3713 1625 
L 3713 1100 
L 3047 1100 
L 3047 0 
L 2419 0 
L 2419 1100 
L 313 1100 
L 313 1709 
L 2253 4666 
z
" transform="scale(0.015625)"/>
       </defs>
       <use xlink:href="#DejaVuSans-34"/>
       <use xlink:href="#DejaVuSans-30" x="63.623047"/>
      </g>
     </g>
    </g>
    <g id="xtick_4">
     <g id="line2d_4">
      <g>
       <use xlink:href="#mee41b141ab" x="591.894495" y="640.8" style="stroke: #000000; stroke-width: 0.8"/>
      </g>
     </g>
     <g id="text_4">
      <!-- 60 -->
      <g transform="translate(585.531995 655.398438) scale(0.1 -0.1)">
       <defs>
        <path id="DejaVuSans-36" d="M 2113 2584 
Q 1688 2584 1439 2293 
Q 1191 2003 1191 1497 
Q 1191 994 1439 701 
Q 1688 409 2113 409 
Q 2538 409 2786 701 
Q 3034 994 3034 1497 
Q 3034 2003 2786 2293 
Q 2538 2584 2113 2584 
z
M 3366 4563 
L 3366 3988 
Q 3128 4100 2886 4159 
Q 2644 4219 2406 4219 
Q 1781 4219 1451 3797 
Q 1122 3375 1075 2522 
Q 1259 2794 1537 2939 
Q 1816 3084 2150 3084 
Q 2853 3084 3261 2657 
Q 3669 2231 3669 1497 
Q 3669 778 3244 343 
Q 2819 -91 2113 -91 
Q 1303 -91 875 529 
Q 447 1150 447 2328 
Q 447 3434 972 4092 
Q 1497 4750 2381 4750 
Q 2619 4750 2861 4703 
Q 3103 4656 3366 4563 
z
" transform="scale(0.015625)"/>
       </defs>
       <use xlink:href="#DejaVuSans-36"/>
       <use xlink:href="#DejaVuSans-30" x="63.623047"/>
      </g>
     </g>
    </g>
    <g id="xtick_5">
     <g id="line2d_5">
      <g>
       <use xlink:href="#mee41b141ab" x="731.510842" y="640.8" style="stroke: #000000; stroke-width: 0.8"/>
      </g>
     </g>
     <g id="text_5">
      <!-- 80 -->
      <g transform="translate(725.148342 655.398438) scale(0.1 -0.1)">
       <defs>
        <path id="DejaVuSans-38" d="M 2034 2216 
Q 1584 2216 1326 1975 
Q 1069 1734 1069 1313 
Q 1069 891 1326 650 
Q 1584 409 2034 409 
Q 2484 409 2743 651 
Q 3003 894 3003 1313 
Q 3003 1734 2745 1975 
Q 2488 2216 2034 2216 
z
M 1403 2484 
Q 997 2584 770 2862 
Q 544 3141 544 3541 
Q 544 4100 942 4425 
Q 1341 4750 2034 4750 
Q 2731 4750 3128 4425 
Q 3525 4100 3525 3541 
Q 3525 3141 3298 2862 
Q 3072 2584 2669 2484 
Q 3125 2378 3379 2068 
Q 3634 1759 3634 1313 
Q 3634 634 3220 271 
Q 2806 -91 2034 -91 
Q 1263 -91 848 271 
Q 434 634 434 1313 
Q 434 1759 690 2068 
Q 947 2378 1403 2484 
z
M 1172 3481 
Q 1172 3119 1398 2916 
Q 1625 2713 2034 2713 
Q 2441 2713 2670 2916 
Q 2900 3119 2900 3481 
Q 2900 3844 2670 4047 
Q 2441 4250 2034 4250 
Q 1625 4250 1398 4047 
Q 1172 3844 1172 3481 
z
" transform="scale(0.015625)"/>
       </defs>
       <use xlink:href="#DejaVuSans-38"/>
       <use xlink:href="#DejaVuSans-30" x="63.623047"/>
      </g>
     </g>
    </g>
    <g id="xtick_6">
     <g id="line2d_6">
      <g>
       <use xlink:href="#mee41b141ab" x="871.127189" y="640.8" style="stroke: #000000; stroke-width: 0.8"/>
      </g>
     </g>
     <g id="text_6">
      <!-- 100 -->
      <g transform="translate(861.583439 655.398438) scale(0.1 -0.1)">
       <defs>
        <path id="DejaVuSans-31" d="M 794 531 
L 1825 531 
L 1825 4091 
L 703 3866 
L 703 4441 
L 1819 4666 
L 2450 4666 
L 2450 531 
L 3481 531 
L 3481 0 
L 794 0 
L 794 531 
z
" transform="scale(0.015625)"/>
       </defs>
       <use xlink:href="#DejaVuSans-31"/>
       <use xlink:href="#DejaVuSans-30" x="63.623047"/>
       <use xlink:href="#DejaVuSans-30" x="127.246094"/>
      </g>
     </g>
    </g>
    <g id="text_7">
     <!-- epoch -->
     <g transform="translate(526.089375 675.155313) scale(0.18 -0.18)">
      <defs>
       <path id="DejaVuSans-65" d="M 3597 1894 
L 3597 1613 
L 953 1613 
Q 991 1019 1311 708 
Q 1631 397 2203 397 
Q 2534 397 2845 478 
Q 3156 559 3463 722 
L 3463 178 
Q 3153 47 2828 -22 
Q 2503 -91 2169 -91 
Q 1331 -91 842 396 
Q 353 884 353 1716 
Q 353 2575 817 3079 
Q 1281 3584 2069 3584 
Q 2775 3584 3186 3129 
Q 3597 2675 3597 1894 
z
M 3022 2063 
Q 3016 2534 2758 2815 
Q 2500 3097 2075 3097 
Q 1594 3097 1305 2825 
Q 1016 2553 972 2059 
L 3022 2063 
z
" transform="scale(0.015625)"/>
       <path id="DejaVuSans-70" d="M 1159 525 
L 1159 -1331 
L 581 -1331 
L 581 3500 
L 1159 3500 
L 1159 2969 
Q 1341 3281 1617 3432 
Q 1894 3584 2278 3584 
Q 2916 3584 3314 3078 
Q 3713 2572 3713 1747 
Q 3713 922 3314 415 
Q 2916 -91 2278 -91 
Q 1894 -91 1617 61 
Q 1341 213 1159 525 
z
M 3116 1747 
Q 3116 2381 2855 2742 
Q 2594 3103 2138 3103 
Q 1681 3103 1420 2742 
Q 1159 2381 1159 1747 
Q 1159 1113 1420 752 
Q 1681 391 2138 391 
Q 2594 391 2855 752 
Q 3116 1113 3116 1747 
z
" transform="scale(0.015625)"/>
       <path id="DejaVuSans-6f" d="M 1959 3097 
Q 1497 3097 1228 2736 
Q 959 2375 959 1747 
Q 959 1119 1226 758 
Q 1494 397 1959 397 
Q 2419 397 2687 759 
Q 2956 1122 2956 1747 
Q 2956 2369 2687 2733 
Q 2419 3097 1959 3097 
z
M 1959 3584 
Q 2709 3584 3137 3096 
Q 3566 2609 3566 1747 
Q 3566 888 3137 398 
Q 2709 -91 1959 -91 
Q 1206 -91 779 398 
Q 353 888 353 1747 
Q 353 2609 779 3096 
Q 1206 3584 1959 3584 
z
" transform="scale(0.015625)"/>
       <path id="DejaVuSans-63" d="M 3122 3366 
L 3122 2828 
Q 2878 2963 2633 3030 
Q 2388 3097 2138 3097 
Q 1578 3097 1268 2742 
Q 959 2388 959 1747 
Q 959 1106 1268 751 
Q 1578 397 2138 397 
Q 2388 397 2633 464 
Q 2878 531 3122 666 
L 3122 134 
Q 2881 22 2623 -34 
Q 2366 -91 2075 -91 
Q 1284 -91 818 406 
Q 353 903 353 1747 
Q 353 2603 823 3093 
Q 1294 3584 2113 3584 
Q 2378 3584 2631 3529 
Q 2884 3475 3122 3366 
z
" transform="scale(0.015625)"/>
       <path id="DejaVuSans-68" d="M 3513 2113 
L 3513 0 
L 2938 0 
L 2938 2094 
Q 2938 2591 2744 2837 
Q 2550 3084 2163 3084 
Q 1697 3084 1428 2787 
Q 1159 2491 1159 1978 
L 1159 0 
L 581 0 
L 581 4863 
L 1159 4863 
L 1159 2956 
Q 1366 3272 1645 3428 
Q 1925 3584 2291 3584 
Q 2894 3584 3203 3211 
Q 3513 2838 3513 2113 
z
" transform="scale(0.015625)"/>
      </defs>
      <use xlink:href="#DejaVuSans-65"/>
      <use xlink:href="#DejaVuSans-70" x="61.523438"/>
      <use xlink:href="#DejaVuSans-6f" x="125"/>
      <use xlink:href="#DejaVuSans-63" x="186.181641"/>
      <use xlink:href="#DejaVuSans-68" x="241.162109"/>
     </g>
    </g>
   </g>
   <g id="matplotlib.axis_2">
    <g id="ytick_1">
     <g id="line2d_7">
      <defs>
       <path id="mfedbe64c54" d="M 0 0 
L -3.5 0 
" style="stroke: #000000; stroke-width: 0.8"/>
      </defs>
      <g>
       <use xlink:href="#mfedbe64c54" x="135" y="629.335954" style="stroke: #000000; stroke-width: 0.8"/>
      </g>
     </g>
     <g id="text_8">
      <!-- 1300 -->
      <g transform="translate(102.55 633.135173) scale(0.1 -0.1)">
       <defs>
        <path id="DejaVuSans-33" d="M 2597 2516 
Q 3050 2419 3304 2112 
Q 3559 1806 3559 1356 
Q 3559 666 3084 287 
Q 2609 -91 1734 -91 
Q 1441 -91 1130 -33 
Q 819 25 488 141 
L 488 750 
Q 750 597 1062 519 
Q 1375 441 1716 441 
Q 2309 441 2620 675 
Q 2931 909 2931 1356 
Q 2931 1769 2642 2001 
Q 2353 2234 1838 2234 
L 1294 2234 
L 1294 2753 
L 1863 2753 
Q 2328 2753 2575 2939 
Q 2822 3125 2822 3475 
Q 2822 3834 2567 4026 
Q 2313 4219 1838 4219 
Q 1578 4219 1281 4162 
Q 984 4106 628 3988 
L 628 4550 
Q 988 4650 1302 4700 
Q 1616 4750 1894 4750 
Q 2613 4750 3031 4423 
Q 3450 4097 3450 3541 
Q 3450 3153 3228 2886 
Q 3006 2619 2597 2516 
z
" transform="scale(0.015625)"/>
       </defs>
       <use xlink:href="#DejaVuSans-31"/>
       <use xlink:href="#DejaVuSans-33" x="63.623047"/>
       <use xlink:href="#DejaVuSans-30" x="127.246094"/>
       <use xlink:href="#DejaVuSans-30" x="190.869141"/>
      </g>
     </g>
    </g>
    <g id="ytick_2">
     <g id="line2d_8">
      <g>
       <use xlink:href="#mfedbe64c54" x="135" y="562.469482" style="stroke: #000000; stroke-width: 0.8"/>
      </g>
     </g>
     <g id="text_9">
      <!-- 1400 -->
      <g transform="translate(102.55 566.2687) scale(0.1 -0.1)">
       <use xlink:href="#DejaVuSans-31"/>
       <use xlink:href="#DejaVuSans-34" x="63.623047"/>
       <use xlink:href="#DejaVuSans-30" x="127.246094"/>
       <use xlink:href="#DejaVuSans-30" x="190.869141"/>
      </g>
     </g>
    </g>
    <g id="ytick_3">
     <g id="line2d_9">
      <g>
       <use xlink:href="#mfedbe64c54" x="135" y="495.603009" style="stroke: #000000; stroke-width: 0.8"/>
      </g>
     </g>
     <g id="text_10">
      <!-- 1500 -->
      <g transform="translate(102.55 499.402228) scale(0.1 -0.1)">
       <defs>
        <path id="DejaVuSans-35" d="M 691 4666 
L 3169 4666 
L 3169 4134 
L 1269 4134 
L 1269 2991 
Q 1406 3038 1543 3061 
Q 1681 3084 1819 3084 
Q 2600 3084 3056 2656 
Q 3513 2228 3513 1497 
Q 3513 744 3044 326 
Q 2575 -91 1722 -91 
Q 1428 -91 1123 -41 
Q 819 9 494 109 
L 494 744 
Q 775 591 1075 516 
Q 1375 441 1709 441 
Q 2250 441 2565 725 
Q 2881 1009 2881 1497 
Q 2881 1984 2565 2268 
Q 2250 2553 1709 2553 
Q 1456 2553 1204 2497 
Q 953 2441 691 2322 
L 691 4666 
z
" transform="scale(0.015625)"/>
       </defs>
       <use xlink:href="#DejaVuSans-31"/>
       <use xlink:href="#DejaVuSans-35" x="63.623047"/>
       <use xlink:href="#DejaVuSans-30" x="127.246094"/>
       <use xlink:href="#DejaVuSans-30" x="190.869141"/>
      </g>
     </g>
    </g>
    <g id="ytick_4">
     <g id="line2d_10">
      <g>
       <use xlink:href="#mfedbe64c54" x="135" y="428.736537" style="stroke: #000000; stroke-width: 0.8"/>
      </g>
     </g>
     <g id="text_11">
      <!-- 1600 -->
      <g transform="translate(102.55 432.535756) scale(0.1 -0.1)">
       <use xlink:href="#DejaVuSans-31"/>
       <use xlink:href="#DejaVuSans-36" x="63.623047"/>
       <use xlink:href="#DejaVuSans-30" x="127.246094"/>
       <use xlink:href="#DejaVuSans-30" x="190.869141"/>
      </g>
     </g>
    </g>
    <g id="ytick_5">
     <g id="line2d_11">
      <g>
       <use xlink:href="#mfedbe64c54" x="135" y="361.870065" style="stroke: #000000; stroke-width: 0.8"/>
      </g>
     </g>
     <g id="text_12">
      <!-- 1700 -->
      <g transform="translate(102.55 365.669284) scale(0.1 -0.1)">
       <defs>
        <path id="DejaVuSans-37" d="M 525 4666 
L 3525 4666 
L 3525 4397 
L 1831 0 
L 1172 0 
L 2766 4134 
L 525 4134 
L 525 4666 
z
" transform="scale(0.015625)"/>
       </defs>
       <use xlink:href="#DejaVuSans-31"/>
       <use xlink:href="#DejaVuSans-37" x="63.623047"/>
       <use xlink:href="#DejaVuSans-30" x="127.246094"/>
       <use xlink:href="#DejaVuSans-30" x="190.869141"/>
      </g>
     </g>
    </g>
    <g id="ytick_6">
     <g id="line2d_12">
      <g>
       <use xlink:href="#mfedbe64c54" x="135" y="295.003593" style="stroke: #000000; stroke-width: 0.8"/>
      </g>
     </g>
     <g id="text_13">
      <!-- 1800 -->
      <g transform="translate(102.55 298.802811) scale(0.1 -0.1)">
       <use xlink:href="#DejaVuSans-31"/>
       <use xlink:href="#DejaVuSans-38" x="63.623047"/>
       <use xlink:href="#DejaVuSans-30" x="127.246094"/>
       <use xlink:href="#DejaVuSans-30" x="190.869141"/>
      </g>
     </g>
    </g>
    <g id="ytick_7">
     <g id="line2d_13">
      <g>
       <use xlink:href="#mfedbe64c54" x="135" y="228.13712" style="stroke: #000000; stroke-width: 0.8"/>
      </g>
     </g>
     <g id="text_14">
      <!-- 1900 -->
      <g transform="translate(102.55 231.936339) scale(0.1 -0.1)">
       <defs>
        <path id="DejaVuSans-39" d="M 703 97 
L 703 672 
Q 941 559 1184 500 
Q 1428 441 1663 441 
Q 2288 441 2617 861 
Q 2947 1281 2994 2138 
Q 2813 1869 2534 1725 
Q 2256 1581 1919 1581 
Q 1219 1581 811 2004 
Q 403 2428 403 3163 
Q 403 3881 828 4315 
Q 1253 4750 1959 4750 
Q 2769 4750 3195 4129 
Q 3622 3509 3622 2328 
Q 3622 1225 3098 567 
Q 2575 -91 1691 -91 
Q 1453 -91 1209 -44 
Q 966 3 703 97 
z
M 1959 2075 
Q 2384 2075 2632 2365 
Q 2881 2656 2881 3163 
Q 2881 3666 2632 3958 
Q 2384 4250 1959 4250 
Q 1534 4250 1286 3958 
Q 1038 3666 1038 3163 
Q 1038 2656 1286 2365 
Q 1534 2075 1959 2075 
z
" transform="scale(0.015625)"/>
       </defs>
       <use xlink:href="#DejaVuSans-31"/>
       <use xlink:href="#DejaVuSans-39" x="63.623047"/>
       <use xlink:href="#DejaVuSans-30" x="127.246094"/>
       <use xlink:href="#DejaVuSans-30" x="190.869141"/>
      </g>
     </g>
    </g>
    <g id="ytick_8">
     <g id="line2d_14">
      <g>
       <use xlink:href="#mfedbe64c54" x="135" y="161.270648" style="stroke: #000000; stroke-width: 0.8"/>
      </g>
     </g>
     <g id="text_15">
      <!-- 2000 -->
      <g transform="translate(102.55 165.069867) scale(0.1 -0.1)">
       <use xlink:href="#DejaVuSans-32"/>
       <use xlink:href="#DejaVuSans-30" x="63.623047"/>
       <use xlink:href="#DejaVuSans-30" x="127.246094"/>
       <use xlink:href="#DejaVuSans-30" x="190.869141"/>
      </g>
     </g>
    </g>
    <g id="ytick_9">
     <g id="line2d_15">
      <g>
       <use xlink:href="#mfedbe64c54" x="135" y="94.404176" style="stroke: #000000; stroke-width: 0.8"/>
      </g>
     </g>
     <g id="text_16">
      <!-- 2100 -->
      <g transform="translate(102.55 98.203395) scale(0.1 -0.1)">
       <use xlink:href="#DejaVuSans-32"/>
       <use xlink:href="#DejaVuSans-31" x="63.623047"/>
       <use xlink:href="#DejaVuSans-30" x="127.246094"/>
       <use xlink:href="#DejaVuSans-30" x="190.869141"/>
      </g>
     </g>
    </g>
    <g id="text_17">
     <!-- Reconstruction score -->
     <g transform="translate(94.806562 457.993125) rotate(-90) scale(0.18 -0.18)">
      <defs>
       <path id="DejaVuSans-52" d="M 2841 2188 
Q 3044 2119 3236 1894 
Q 3428 1669 3622 1275 
L 4263 0 
L 3584 0 
L 2988 1197 
Q 2756 1666 2539 1819 
Q 2322 1972 1947 1972 
L 1259 1972 
L 1259 0 
L 628 0 
L 628 4666 
L 2053 4666 
Q 2853 4666 3247 4331 
Q 3641 3997 3641 3322 
Q 3641 2881 3436 2590 
Q 3231 2300 2841 2188 
z
M 1259 4147 
L 1259 2491 
L 2053 2491 
Q 2509 2491 2742 2702 
Q 2975 2913 2975 3322 
Q 2975 3731 2742 3939 
Q 2509 4147 2053 4147 
L 1259 4147 
z
" transform="scale(0.015625)"/>
       <path id="DejaVuSans-6e" d="M 3513 2113 
L 3513 0 
L 2938 0 
L 2938 2094 
Q 2938 2591 2744 2837 
Q 2550 3084 2163 3084 
Q 1697 3084 1428 2787 
Q 1159 2491 1159 1978 
L 1159 0 
L 581 0 
L 581 3500 
L 1159 3500 
L 1159 2956 
Q 1366 3272 1645 3428 
Q 1925 3584 2291 3584 
Q 2894 3584 3203 3211 
Q 3513 2838 3513 2113 
z
" transform="scale(0.015625)"/>
       <path id="DejaVuSans-73" d="M 2834 3397 
L 2834 2853 
Q 2591 2978 2328 3040 
Q 2066 3103 1784 3103 
Q 1356 3103 1142 2972 
Q 928 2841 928 2578 
Q 928 2378 1081 2264 
Q 1234 2150 1697 2047 
L 1894 2003 
Q 2506 1872 2764 1633 
Q 3022 1394 3022 966 
Q 3022 478 2636 193 
Q 2250 -91 1575 -91 
Q 1294 -91 989 -36 
Q 684 19 347 128 
L 347 722 
Q 666 556 975 473 
Q 1284 391 1588 391 
Q 1994 391 2212 530 
Q 2431 669 2431 922 
Q 2431 1156 2273 1281 
Q 2116 1406 1581 1522 
L 1381 1569 
Q 847 1681 609 1914 
Q 372 2147 372 2553 
Q 372 3047 722 3315 
Q 1072 3584 1716 3584 
Q 2034 3584 2315 3537 
Q 2597 3491 2834 3397 
z
" transform="scale(0.015625)"/>
       <path id="DejaVuSans-74" d="M 1172 4494 
L 1172 3500 
L 2356 3500 
L 2356 3053 
L 1172 3053 
L 1172 1153 
Q 1172 725 1289 603 
Q 1406 481 1766 481 
L 2356 481 
L 2356 0 
L 1766 0 
Q 1100 0 847 248 
Q 594 497 594 1153 
L 594 3053 
L 172 3053 
L 172 3500 
L 594 3500 
L 594 4494 
L 1172 4494 
z
" transform="scale(0.015625)"/>
       <path id="DejaVuSans-72" d="M 2631 2963 
Q 2534 3019 2420 3045 
Q 2306 3072 2169 3072 
Q 1681 3072 1420 2755 
Q 1159 2438 1159 1844 
L 1159 0 
L 581 0 
L 581 3500 
L 1159 3500 
L 1159 2956 
Q 1341 3275 1631 3429 
Q 1922 3584 2338 3584 
Q 2397 3584 2469 3576 
Q 2541 3569 2628 3553 
L 2631 2963 
z
" transform="scale(0.015625)"/>
       <path id="DejaVuSans-75" d="M 544 1381 
L 544 3500 
L 1119 3500 
L 1119 1403 
Q 1119 906 1312 657 
Q 1506 409 1894 409 
Q 2359 409 2629 706 
Q 2900 1003 2900 1516 
L 2900 3500 
L 3475 3500 
L 3475 0 
L 2900 0 
L 2900 538 
Q 2691 219 2414 64 
Q 2138 -91 1772 -91 
Q 1169 -91 856 284 
Q 544 659 544 1381 
z
M 1991 3584 
L 1991 3584 
z
" transform="scale(0.015625)"/>
       <path id="DejaVuSans-69" d="M 603 3500 
L 1178 3500 
L 1178 0 
L 603 0 
L 603 3500 
z
M 603 4863 
L 1178 4863 
L 1178 4134 
L 603 4134 
L 603 4863 
z
" transform="scale(0.015625)"/>
       <path id="DejaVuSans-20" transform="scale(0.015625)"/>
      </defs>
      <use xlink:href="#DejaVuSans-52"/>
      <use xlink:href="#DejaVuSans-65" x="64.982422"/>
      <use xlink:href="#DejaVuSans-63" x="126.505859"/>
      <use xlink:href="#DejaVuSans-6f" x="181.486328"/>
      <use xlink:href="#DejaVuSans-6e" x="242.667969"/>
      <use xlink:href="#DejaVuSans-73" x="306.046875"/>
      <use xlink:href="#DejaVuSans-74" x="358.146484"/>
      <use xlink:href="#DejaVuSans-72" x="397.355469"/>
      <use xlink:href="#DejaVuSans-75" x="438.46875"/>
      <use xlink:href="#DejaVuSans-63" x="501.847656"/>
      <use xlink:href="#DejaVuSans-74" x="556.828125"/>
      <use xlink:href="#DejaVuSans-69" x="596.037109"/>
      <use xlink:href="#DejaVuSans-6f" x="623.820312"/>
      <use xlink:href="#DejaVuSans-6e" x="685.001953"/>
      <use xlink:href="#DejaVuSans-20" x="748.380859"/>
      <use xlink:href="#DejaVuSans-73" x="780.167969"/>
      <use xlink:href="#DejaVuSans-63" x="832.267578"/>
      <use xlink:href="#DejaVuSans-6f" x="887.248047"/>
      <use xlink:href="#DejaVuSans-72" x="948.429688"/>
      <use xlink:href="#DejaVuSans-65" x="987.292969"/>
     </g>
    </g>
   </g>
   <g id="line2d_16">
    <path d="M 173.045455 129.442358 
L 180.026272 225.182649 
L 187.007089 289.682597 
L 193.987907 351.156213 
L 200.968724 390.416652 
L 207.949541 414.41289 
L 214.930359 447.476308 
L 221.911176 469.647181 
L 228.891993 482.573377 
L 235.872811 496.518855 
L 242.853628 504.273278 
L 249.834445 512.232709 
L 256.815263 524.735514 
L 263.79608 543.001651 
L 270.776897 546.571681 
L 277.757715 546.810655 
L 284.738532 556.845862 
L 291.719349 559.654211 
L 298.700167 546.066456 
L 305.680984 568.79101 
L 312.661802 567.4574 
L 319.642619 564.12754 
L 326.623436 560.571686 
L 333.604254 569.975607 
L 340.585071 573.655289 
L 347.565888 584.421579 
L 354.546706 576.764439 
L 361.527523 575.301417 
L 368.50834 567.340968 
L 375.489158 580.426046 
L 382.469975 584.064281 
L 389.450792 580.57808 
L 396.43161 583.492116 
L 403.412427 587.205367 
L 410.393244 586.032398 
L 417.374062 582.62134 
L 424.354879 581.602976 
L 431.335696 583.98725 
L 438.316514 591.023252 
L 445.297331 576.81455 
L 452.278148 591.740802 
L 459.258966 584.726859 
L 466.239783 591.380011 
L 473.220601 589.683111 
L 480.201418 590.013601 
L 487.182235 589.482144 
L 494.163053 597.962085 
L 501.14387 583.463881 
L 508.124687 591.900899 
L 515.105505 601.776395 
L 522.086322 587.540867 
L 529.067139 592.478346 
L 536.047957 590.228953 
L 543.028774 586.792653 
L 550.009591 601.138836 
L 556.990409 594.454089 
L 563.971226 581.739818 
L 570.952043 588.413834 
L 577.932861 598.477571 
L 584.913678 596.850411 
L 591.894495 597.001922 
L 598.875313 597.534288 
L 605.85613 579.849692 
L 612.836947 595.398594 
L 619.817765 591.463691 
L 626.798582 604.740204 
L 633.779399 598.235331 
L 640.760217 593.691083 
L 647.741034 612.260555 
L 654.721852 615.6 
L 661.702669 611.226541 
L 668.683486 614.361792 
L 675.664304 610.15557 
L 682.645121 611.300191 
L 689.625938 610.366995 
L 696.606756 611.422149 
L 703.587573 610.351366 
L 710.56839 608.219558 
L 717.549208 607.81622 
L 724.530025 604.872827 
L 731.510842 607.316655 
L 738.49166 608.781179 
L 745.472477 608.966935 
L 752.453294 606.579874 
L 759.434112 604.306563 
L 766.414929 605.961463 
L 773.395746 604.309887 
L 780.376564 603.963153 
L 787.357381 606.16955 
L 794.338198 607.815203 
L 801.319016 608.052107 
L 808.299833 604.36075 
L 815.280651 604.581676 
L 822.261468 606.851408 
L 829.242285 605.359829 
L 836.223103 605.69534 
L 843.20392 605.240399 
L 850.184737 604.334765 
L 857.165555 605.704359 
L 864.146372 605.59033 
L 871.127189 603.769746 
L 878.108007 604.480023 
L 885.088824 606.100297 
L 892.069641 606.21721 
L 899.050459 605.484122 
L 906.031276 605.599532 
L 913.012093 603.872651 
L 919.992911 605.816357 
L 926.973728 604.032379 
L 933.954545 605.335465 
" clip-path="url(#p47707441cd)" style="fill: none; stroke: #ff0000; stroke-width: 1.5; stroke-linecap: square"/>
   </g>
   <g id="line2d_17">
    <path d="M 173.045455 111.6 
L 180.026272 209.822194 
L 187.007089 273.454495 
L 193.987907 334.953934 
L 200.968724 376.760882 
L 207.949541 396.817876 
L 214.930359 431.738995 
L 221.911176 453.611352 
L 228.891993 465.89458 
L 235.872811 483.366528 
L 242.853628 488.373715 
L 249.834445 497.126418 
L 256.815263 508.77231 
L 263.79608 528.187481 
L 270.776897 531.104069 
L 277.757715 531.889071 
L 284.738532 541.892104 
L 291.719349 544.231799 
L 298.700167 531.577754 
L 305.680984 552.932947 
L 312.661802 551.969249 
L 319.642619 549.398714 
L 326.623436 547.121653 
L 333.604254 556.242716 
L 340.585071 558.734125 
L 347.565888 569.223941 
L 354.546706 562.021027 
L 361.527523 560.156995 
L 368.50834 552.942711 
L 375.489158 565.962124 
L 382.469975 570.816335 
L 389.450792 568.269968 
L 396.43161 569.78298 
L 403.412427 572.931263 
L 410.393244 572.713536 
L 417.374062 569.545659 
L 424.354879 566.482863 
L 431.335696 569.94848 
L 438.316514 577.256487 
L 445.297331 563.156311 
L 452.278148 577.762211 
L 459.258966 570.452548 
L 466.239783 577.56442 
L 473.220601 575.379191 
L 480.201418 577.048132 
L 487.182235 575.024409 
L 494.163053 585.132114 
L 501.14387 569.337179 
L 508.124687 579.223364 
L 515.105505 587.49485 
L 522.086322 574.152984 
L 529.067139 579.38572 
L 536.047957 576.251226 
L 543.028774 573.612023 
L 550.009591 587.640933 
L 556.990409 581.189264 
L 563.971226 568.756624 
L 570.952043 574.522384 
L 577.932861 584.923505 
L 584.913678 583.270734 
L 591.894495 583.512583 
L 598.875313 584.135421 
L 605.85613 566.551757 
L 612.836947 582.140739 
L 619.817765 578.6703 
L 626.798582 590.343333 
L 633.779399 584.513758 
L 640.760217 579.686751 
L 647.741034 598.54536 
L 654.721852 601.817697 
L 661.702669 597.605769 
L 668.683486 600.033713 
L 675.664304 597.013934 
L 682.645121 598.058947 
L 689.625938 596.551549 
L 696.606756 598.057267 
L 703.587573 596.505522 
L 710.56839 594.472976 
L 717.549208 594.610456 
L 724.530025 590.834059 
L 731.510842 593.802918 
L 738.49166 595.6025 
L 745.472477 595.562447 
L 752.453294 593.270599 
L 759.434112 590.321569 
L 766.414929 592.343102 
L 773.395746 591.282091 
L 780.376564 590.30454 
L 787.357381 592.987758 
L 794.338198 593.755443 
L 801.319016 594.838707 
L 808.299833 591.375221 
L 815.280651 591.087227 
L 822.261468 593.141835 
L 829.242285 591.844497 
L 836.223103 592.534172 
L 843.20392 591.56295 
L 850.184737 590.908115 
L 857.165555 592.384005 
L 864.146372 592.252665 
L 871.127189 590.702477 
L 878.108007 590.962889 
L 885.088824 591.670314 
L 892.069641 592.864963 
L 899.050459 591.801304 
L 906.031276 591.813209 
L 913.012093 590.185307 
L 919.992911 591.685719 
L 926.973728 590.97456 
L 933.954545 592.317934 
" clip-path="url(#p47707441cd)" style="fill: none; stroke: #1e90ff; stroke-width: 1.5; stroke-linecap: square"/>
   </g>
   <g id="patch_3">
    <path d="M 135 640.8 
L 135 86.4 
" style="fill: none; stroke: #000000; stroke-width: 0.8; stroke-linejoin: miter; stroke-linecap: square"/>
   </g>
   <g id="patch_4">
    <path d="M 972 640.8 
L 972 86.4 
" style="fill: none; stroke: #000000; stroke-width: 0.8; stroke-linejoin: miter; stroke-linecap: square"/>
   </g>
   <g id="patch_5">
    <path d="M 135 640.8 
L 972 640.8 
" style="fill: none; stroke: #000000; stroke-width: 0.8; stroke-linejoin: miter; stroke-linecap: square"/>
   </g>
   <g id="patch_6">
    <path d="M 135 86.4 
L 972 86.4 
" style="fill: none; stroke: #000000; stroke-width: 0.8; stroke-linejoin: miter; stroke-linecap: square"/>
   </g>
   <g id="text_18">
    <!-- Reconstruction score during validation -->
    <g transform="translate(380.040469 80.4) scale(0.18 -0.18)">
     <defs>
      <path id="DejaVuSans-64" d="M 2906 2969 
L 2906 4863 
L 3481 4863 
L 3481 0 
L 2906 0 
L 2906 525 
Q 2725 213 2448 61 
Q 2172 -91 1784 -91 
Q 1150 -91 751 415 
Q 353 922 353 1747 
Q 353 2572 751 3078 
Q 1150 3584 1784 3584 
Q 2172 3584 2448 3432 
Q 2725 3281 2906 2969 
z
M 947 1747 
Q 947 1113 1208 752 
Q 1469 391 1925 391 
Q 2381 391 2643 752 
Q 2906 1113 2906 1747 
Q 2906 2381 2643 2742 
Q 2381 3103 1925 3103 
Q 1469 3103 1208 2742 
Q 947 2381 947 1747 
z
" transform="scale(0.015625)"/>
      <path id="DejaVuSans-67" d="M 2906 1791 
Q 2906 2416 2648 2759 
Q 2391 3103 1925 3103 
Q 1463 3103 1205 2759 
Q 947 2416 947 1791 
Q 947 1169 1205 825 
Q 1463 481 1925 481 
Q 2391 481 2648 825 
Q 2906 1169 2906 1791 
z
M 3481 434 
Q 3481 -459 3084 -895 
Q 2688 -1331 1869 -1331 
Q 1566 -1331 1297 -1286 
Q 1028 -1241 775 -1147 
L 775 -588 
Q 1028 -725 1275 -790 
Q 1522 -856 1778 -856 
Q 2344 -856 2625 -561 
Q 2906 -266 2906 331 
L 2906 616 
Q 2728 306 2450 153 
Q 2172 0 1784 0 
Q 1141 0 747 490 
Q 353 981 353 1791 
Q 353 2603 747 3093 
Q 1141 3584 1784 3584 
Q 2172 3584 2450 3431 
Q 2728 3278 2906 2969 
L 2906 3500 
L 3481 3500 
L 3481 434 
z
" transform="scale(0.015625)"/>
      <path id="DejaVuSans-76" d="M 191 3500 
L 800 3500 
L 1894 563 
L 2988 3500 
L 3597 3500 
L 2284 0 
L 1503 0 
L 191 3500 
z
" transform="scale(0.015625)"/>
      <path id="DejaVuSans-61" d="M 2194 1759 
Q 1497 1759 1228 1600 
Q 959 1441 959 1056 
Q 959 750 1161 570 
Q 1363 391 1709 391 
Q 2188 391 2477 730 
Q 2766 1069 2766 1631 
L 2766 1759 
L 2194 1759 
z
M 3341 1997 
L 3341 0 
L 2766 0 
L 2766 531 
Q 2569 213 2275 61 
Q 1981 -91 1556 -91 
Q 1019 -91 701 211 
Q 384 513 384 1019 
Q 384 1609 779 1909 
Q 1175 2209 1959 2209 
L 2766 2209 
L 2766 2266 
Q 2766 2663 2505 2880 
Q 2244 3097 1772 3097 
Q 1472 3097 1187 3025 
Q 903 2953 641 2809 
L 641 3341 
Q 956 3463 1253 3523 
Q 1550 3584 1831 3584 
Q 2591 3584 2966 3190 
Q 3341 2797 3341 1997 
z
" transform="scale(0.015625)"/>
      <path id="DejaVuSans-6c" d="M 603 4863 
L 1178 4863 
L 1178 0 
L 603 0 
L 603 4863 
z
" transform="scale(0.015625)"/>
     </defs>
     <use xlink:href="#DejaVuSans-52"/>
     <use xlink:href="#DejaVuSans-65" x="64.982422"/>
     <use xlink:href="#DejaVuSans-63" x="126.505859"/>
     <use xlink:href="#DejaVuSans-6f" x="181.486328"/>
     <use xlink:href="#DejaVuSans-6e" x="242.667969"/>
     <use xlink:href="#DejaVuSans-73" x="306.046875"/>
     <use xlink:href="#DejaVuSans-74" x="358.146484"/>
     <use xlink:href="#DejaVuSans-72" x="397.355469"/>
     <use xlink:href="#DejaVuSans-75" x="438.46875"/>
     <use xlink:href="#DejaVuSans-63" x="501.847656"/>
     <use xlink:href="#DejaVuSans-74" x="556.828125"/>
     <use xlink:href="#DejaVuSans-69" x="596.037109"/>
     <use xlink:href="#DejaVuSans-6f" x="623.820312"/>
     <use xlink:href="#DejaVuSans-6e" x="685.001953"/>
     <use xlink:href="#DejaVuSans-20" x="748.380859"/>
     <use xlink:href="#DejaVuSans-73" x="780.167969"/>
     <use xlink:href="#DejaVuSans-63" x="832.267578"/>
     <use xlink:href="#DejaVuSans-6f" x="887.248047"/>
     <use xlink:href="#DejaVuSans-72" x="948.429688"/>
     <use xlink:href="#DejaVuSans-65" x="987.292969"/>
     <use xlink:href="#DejaVuSans-20" x="1048.816406"/>
     <use xlink:href="#DejaVuSans-64" x="1080.603516"/>
     <use xlink:href="#DejaVuSans-75" x="1144.080078"/>
     <use xlink:href="#DejaVuSans-72" x="1207.458984"/>
     <use xlink:href="#DejaVuSans-69" x="1248.572266"/>
     <use xlink:href="#DejaVuSans-6e" x="1276.355469"/>
     <use xlink:href="#DejaVuSans-67" x="1339.734375"/>
     <use xlink:href="#DejaVuSans-20" x="1403.210938"/>
     <use xlink:href="#DejaVuSans-76" x="1434.998047"/>
     <use xlink:href="#DejaVuSans-61" x="1494.177734"/>
     <use xlink:href="#DejaVuSans-6c" x="1555.457031"/>
     <use xlink:href="#DejaVuSans-69" x="1583.240234"/>
     <use xlink:href="#DejaVuSans-64" x="1611.023438"/>
     <use xlink:href="#DejaVuSans-61" x="1674.5"/>
     <use xlink:href="#DejaVuSans-74" x="1735.779297"/>
     <use xlink:href="#DejaVuSans-69" x="1774.988281"/>
     <use xlink:href="#DejaVuSans-6f" x="1802.771484"/>
     <use xlink:href="#DejaVuSans-6e" x="1863.953125"/>
    </g>
   </g>
   <g id="legend_1">
    <g id="patch_7">
     <path d="M 555.179063 153.64125 
L 959.4 153.64125 
Q 963 153.64125 963 150.04125 
L 963 99 
Q 963 95.4 959.4 95.4 
L 555.179063 95.4 
Q 551.579063 95.4 551.579063 99 
L 551.579063 150.04125 
Q 551.579063 153.64125 555.179063 153.64125 
z
" style="fill: #ffffff; opacity: 0.8; stroke: #cccccc; stroke-linejoin: miter"/>
    </g>
    <g id="line2d_18">
     <path d="M 558.779063 109.977187 
L 576.779063 109.977187 
L 594.779063 109.977187 
" style="fill: none; stroke: #ff0000; stroke-width: 1.5; stroke-linecap: square"/>
    </g>
    <g id="text_19">
     <!-- Deepfake images reconstruction score -->
     <g transform="translate(609.179063 116.277187) scale(0.18 -0.18)">
      <defs>
       <path id="DejaVuSans-44" d="M 1259 4147 
L 1259 519 
L 2022 519 
Q 2988 519 3436 956 
Q 3884 1394 3884 2338 
Q 3884 3275 3436 3711 
Q 2988 4147 2022 4147 
L 1259 4147 
z
M 628 4666 
L 1925 4666 
Q 3281 4666 3915 4102 
Q 4550 3538 4550 2338 
Q 4550 1131 3912 565 
Q 3275 0 1925 0 
L 628 0 
L 628 4666 
z
" transform="scale(0.015625)"/>
       <path id="DejaVuSans-66" d="M 2375 4863 
L 2375 4384 
L 1825 4384 
Q 1516 4384 1395 4259 
Q 1275 4134 1275 3809 
L 1275 3500 
L 2222 3500 
L 2222 3053 
L 1275 3053 
L 1275 0 
L 697 0 
L 697 3053 
L 147 3053 
L 147 3500 
L 697 3500 
L 697 3744 
Q 697 4328 969 4595 
Q 1241 4863 1831 4863 
L 2375 4863 
z
" transform="scale(0.015625)"/>
       <path id="DejaVuSans-6b" d="M 581 4863 
L 1159 4863 
L 1159 1991 
L 2875 3500 
L 3609 3500 
L 1753 1863 
L 3688 0 
L 2938 0 
L 1159 1709 
L 1159 0 
L 581 0 
L 581 4863 
z
" transform="scale(0.015625)"/>
       <path id="DejaVuSans-6d" d="M 3328 2828 
Q 3544 3216 3844 3400 
Q 4144 3584 4550 3584 
Q 5097 3584 5394 3201 
Q 5691 2819 5691 2113 
L 5691 0 
L 5113 0 
L 5113 2094 
Q 5113 2597 4934 2840 
Q 4756 3084 4391 3084 
Q 3944 3084 3684 2787 
Q 3425 2491 3425 1978 
L 3425 0 
L 2847 0 
L 2847 2094 
Q 2847 2600 2669 2842 
Q 2491 3084 2119 3084 
Q 1678 3084 1418 2786 
Q 1159 2488 1159 1978 
L 1159 0 
L 581 0 
L 581 3500 
L 1159 3500 
L 1159 2956 
Q 1356 3278 1631 3431 
Q 1906 3584 2284 3584 
Q 2666 3584 2933 3390 
Q 3200 3197 3328 2828 
z
" transform="scale(0.015625)"/>
      </defs>
      <use xlink:href="#DejaVuSans-44"/>
      <use xlink:href="#DejaVuSans-65" x="77.001953"/>
      <use xlink:href="#DejaVuSans-65" x="138.525391"/>
      <use xlink:href="#DejaVuSans-70" x="200.048828"/>
      <use xlink:href="#DejaVuSans-66" x="263.525391"/>
      <use xlink:href="#DejaVuSans-61" x="298.730469"/>
      <use xlink:href="#DejaVuSans-6b" x="360.009766"/>
      <use xlink:href="#DejaVuSans-65" x="414.294922"/>
      <use xlink:href="#DejaVuSans-20" x="475.818359"/>
      <use xlink:href="#DejaVuSans-69" x="507.605469"/>
      <use xlink:href="#DejaVuSans-6d" x="535.388672"/>
      <use xlink:href="#DejaVuSans-61" x="632.800781"/>
      <use xlink:href="#DejaVuSans-67" x="694.080078"/>
      <use xlink:href="#DejaVuSans-65" x="757.556641"/>
      <use xlink:href="#DejaVuSans-73" x="819.080078"/>
      <use xlink:href="#DejaVuSans-20" x="871.179688"/>
      <use xlink:href="#DejaVuSans-72" x="902.966797"/>
      <use xlink:href="#DejaVuSans-65" x="941.830078"/>
      <use xlink:href="#DejaVuSans-63" x="1003.353516"/>
      <use xlink:href="#DejaVuSans-6f" x="1058.333984"/>
      <use xlink:href="#DejaVuSans-6e" x="1119.515625"/>
      <use xlink:href="#DejaVuSans-73" x="1182.894531"/>
      <use xlink:href="#DejaVuSans-74" x="1234.994141"/>
      <use xlink:href="#DejaVuSans-72" x="1274.203125"/>
      <use xlink:href="#DejaVuSans-75" x="1315.316406"/>
      <use xlink:href="#DejaVuSans-63" x="1378.695312"/>
      <use xlink:href="#DejaVuSans-74" x="1433.675781"/>
      <use xlink:href="#DejaVuSans-69" x="1472.884766"/>
      <use xlink:href="#DejaVuSans-6f" x="1500.667969"/>
      <use xlink:href="#DejaVuSans-6e" x="1561.849609"/>
      <use xlink:href="#DejaVuSans-20" x="1625.228516"/>
      <use xlink:href="#DejaVuSans-73" x="1657.015625"/>
      <use xlink:href="#DejaVuSans-63" x="1709.115234"/>
      <use xlink:href="#DejaVuSans-6f" x="1764.095703"/>
      <use xlink:href="#DejaVuSans-72" x="1825.277344"/>
      <use xlink:href="#DejaVuSans-65" x="1864.140625"/>
     </g>
    </g>
    <g id="line2d_19">
     <path d="M 558.779063 136.397812 
L 576.779063 136.397812 
L 594.779063 136.397812 
" style="fill: none; stroke: #1e90ff; stroke-width: 1.5; stroke-linecap: square"/>
    </g>
    <g id="text_20">
     <!-- Real images reconstruction score -->
     <g transform="translate(609.179063 142.697812) scale(0.18 -0.18)">
      <use xlink:href="#DejaVuSans-52"/>
      <use xlink:href="#DejaVuSans-65" x="64.982422"/>
      <use xlink:href="#DejaVuSans-61" x="126.505859"/>
      <use xlink:href="#DejaVuSans-6c" x="187.785156"/>
      <use xlink:href="#DejaVuSans-20" x="215.568359"/>
      <use xlink:href="#DejaVuSans-69" x="247.355469"/>
      <use xlink:href="#DejaVuSans-6d" x="275.138672"/>
      <use xlink:href="#DejaVuSans-61" x="372.550781"/>
      <use xlink:href="#DejaVuSans-67" x="433.830078"/>
      <use xlink:href="#DejaVuSans-65" x="497.306641"/>
      <use xlink:href="#DejaVuSans-73" x="558.830078"/>
      <use xlink:href="#DejaVuSans-20" x="610.929688"/>
      <use xlink:href="#DejaVuSans-72" x="642.716797"/>
      <use xlink:href="#DejaVuSans-65" x="681.580078"/>
      <use xlink:href="#DejaVuSans-63" x="743.103516"/>
      <use xlink:href="#DejaVuSans-6f" x="798.083984"/>
      <use xlink:href="#DejaVuSans-6e" x="859.265625"/>
      <use xlink:href="#DejaVuSans-73" x="922.644531"/>
      <use xlink:href="#DejaVuSans-74" x="974.744141"/>
      <use xlink:href="#DejaVuSans-72" x="1013.953125"/>
      <use xlink:href="#DejaVuSans-75" x="1055.066406"/>
      <use xlink:href="#DejaVuSans-63" x="1118.445312"/>
      <use xlink:href="#DejaVuSans-74" x="1173.425781"/>
      <use xlink:href="#DejaVuSans-69" x="1212.634766"/>
      <use xlink:href="#DejaVuSans-6f" x="1240.417969"/>
      <use xlink:href="#DejaVuSans-6e" x="1301.599609"/>
      <use xlink:href="#DejaVuSans-20" x="1364.978516"/>
      <use xlink:href="#DejaVuSans-73" x="1396.765625"/>
      <use xlink:href="#DejaVuSans-63" x="1448.865234"/>
      <use xlink:href="#DejaVuSans-6f" x="1503.845703"/>
      <use xlink:href="#DejaVuSans-72" x="1565.027344"/>
      <use xlink:href="#DejaVuSans-65" x="1603.890625"/>
     </g>
    </g>
   </g>
  </g>
 </g>
 <defs>
  <clipPath id="p47707441cd">
   <rect x="135" y="86.4" width="837" height="554.4"/>
  </clipPath>
 </defs>
</svg>
