<?xml version="1.0" encoding="utf-8" standalone="no"?>
<!DOCTYPE svg PUBLIC "-//W3C//DTD SVG 1.1//EN"
  "http://www.w3.org/Graphics/SVG/1.1/DTD/svg11.dtd">
<svg xmlns:xlink="http://www.w3.org/1999/xlink" width="1080pt" height="720pt" viewBox="0 0 1080 720" xmlns="http://www.w3.org/2000/svg" version="1.1">
 <metadata>
  <rdf:RDF xmlns:dc="http://purl.org/dc/elements/1.1/" xmlns:cc="http://creativecommons.org/ns#" xmlns:rdf="http://www.w3.org/1999/02/22-rdf-syntax-ns#">
   <cc:Work>
    <dc:type rdf:resource="http://purl.org/dc/dcmitype/StillImage"/>
    <dc:date>2024-01-11T22:41:25.772084</dc:date>
    <dc:format>image/svg+xml</dc:format>
    <dc:creator>
     <cc:Agent>
      <dc:title>Matplotlib v3.7.4, https://matplotlib.org/</dc:title>
     </cc:Agent>
    </dc:creator>
   </cc:Work>
  </rdf:RDF>
 </metadata>
 <defs>
  <style type="text/css">*{stroke-linejoin: round; stroke-linecap: butt}</style>
 </defs>
 <g id="figure_1">
  <g id="patch_1">
   <path d="M 0 720 
L 1080 720 
L 1080 0 
L 0 0 
z
" style="fill: #ffffff"/>
  </g>
  <g id="axes_1">
   <g id="patch_2">
    <path d="M 135 640.8 
L 972 640.8 
L 972 86.4 
L 135 86.4 
z
" style="fill: #ffffff"/>
   </g>
   <g id="matplotlib.axis_1">
    <g id="xtick_1">
     <g id="line2d_1">
      <defs>
       <path id="m9c5e255f10" d="M 0 0 
L 0 3.5 
" style="stroke: #000000; stroke-width: 0.8"/>
      </defs>
      <g>
       <use xlink:href="#m9c5e255f10" x="173.045455" y="640.8" style="stroke: #000000; stroke-width: 0.8"/>
      </g>
     </g>
     <g id="text_1">
      <!-- 0 -->
      <g transform="translate(169.864205 655.398438) scale(0.1 -0.1)">
       <defs>
        <path id="DejaVuSans-30" d="M 2034 4250 
Q 1547 4250 1301 3770 
Q 1056 3291 1056 2328 
Q 1056 1369 1301 889 
Q 1547 409 2034 409 
Q 2525 409 2770 889 
Q 3016 1369 3016 2328 
Q 3016 3291 2770 3770 
Q 2525 4250 2034 4250 
z
M 2034 4750 
Q 2819 4750 3233 4129 
Q 3647 3509 3647 2328 
Q 3647 1150 3233 529 
Q 2819 -91 2034 -91 
Q 1250 -91 836 529 
Q 422 1150 422 2328 
Q 422 3509 836 4129 
Q 1250 4750 2034 4750 
z
" transform="scale(0.015625)"/>
       </defs>
       <use xlink:href="#DejaVuSans-30"/>
      </g>
     </g>
    </g>
    <g id="xtick_2">
     <g id="line2d_2">
      <g>
       <use xlink:href="#m9c5e255f10" x="325.838445" y="640.8" style="stroke: #000000; stroke-width: 0.8"/>
      </g>
     </g>
     <g id="text_2">
      <!-- 100 -->
      <g transform="translate(316.294695 655.398438) scale(0.1 -0.1)">
       <defs>
        <path id="DejaVuSans-31" d="M 794 531 
L 1825 531 
L 1825 4091 
L 703 3866 
L 703 4441 
L 1819 4666 
L 2450 4666 
L 2450 531 
L 3481 531 
L 3481 0 
L 794 0 
L 794 531 
z
" transform="scale(0.015625)"/>
       </defs>
       <use xlink:href="#DejaVuSans-31"/>
       <use xlink:href="#DejaVuSans-30" x="63.623047"/>
       <use xlink:href="#DejaVuSans-30" x="127.246094"/>
      </g>
     </g>
    </g>
    <g id="xtick_3">
     <g id="line2d_3">
      <g>
       <use xlink:href="#m9c5e255f10" x="478.631435" y="640.8" style="stroke: #000000; stroke-width: 0.8"/>
      </g>
     </g>
     <g id="text_3">
      <!-- 200 -->
      <g transform="translate(469.087685 655.398438) scale(0.1 -0.1)">
       <defs>
        <path id="DejaVuSans-32" d="M 1228 531 
L 3431 531 
L 3431 0 
L 469 0 
L 469 531 
Q 828 903 1448 1529 
Q 2069 2156 2228 2338 
Q 2531 2678 2651 2914 
Q 2772 3150 2772 3378 
Q 2772 3750 2511 3984 
Q 2250 4219 1831 4219 
Q 1534 4219 1204 4116 
Q 875 4013 500 3803 
L 500 4441 
Q 881 4594 1212 4672 
Q 1544 4750 1819 4750 
Q 2544 4750 2975 4387 
Q 3406 4025 3406 3419 
Q 3406 3131 3298 2873 
Q 3191 2616 2906 2266 
Q 2828 2175 2409 1742 
Q 1991 1309 1228 531 
z
" transform="scale(0.015625)"/>
       </defs>
       <use xlink:href="#DejaVuSans-32"/>
       <use xlink:href="#DejaVuSans-30" x="63.623047"/>
       <use xlink:href="#DejaVuSans-30" x="127.246094"/>
      </g>
     </g>
    </g>
    <g id="xtick_4">
     <g id="line2d_4">
      <g>
       <use xlink:href="#m9c5e255f10" x="631.424425" y="640.8" style="stroke: #000000; stroke-width: 0.8"/>
      </g>
     </g>
     <g id="text_4">
      <!-- 300 -->
      <g transform="translate(621.880675 655.398438) scale(0.1 -0.1)">
       <defs>
        <path id="DejaVuSans-33" d="M 2597 2516 
Q 3050 2419 3304 2112 
Q 3559 1806 3559 1356 
Q 3559 666 3084 287 
Q 2609 -91 1734 -91 
Q 1441 -91 1130 -33 
Q 819 25 488 141 
L 488 750 
Q 750 597 1062 519 
Q 1375 441 1716 441 
Q 2309 441 2620 675 
Q 2931 909 2931 1356 
Q 2931 1769 2642 2001 
Q 2353 2234 1838 2234 
L 1294 2234 
L 1294 2753 
L 1863 2753 
Q 2328 2753 2575 2939 
Q 2822 3125 2822 3475 
Q 2822 3834 2567 4026 
Q 2313 4219 1838 4219 
Q 1578 4219 1281 4162 
Q 984 4106 628 3988 
L 628 4550 
Q 988 4650 1302 4700 
Q 1616 4750 1894 4750 
Q 2613 4750 3031 4423 
Q 3450 4097 3450 3541 
Q 3450 3153 3228 2886 
Q 3006 2619 2597 2516 
z
" transform="scale(0.015625)"/>
       </defs>
       <use xlink:href="#DejaVuSans-33"/>
       <use xlink:href="#DejaVuSans-30" x="63.623047"/>
       <use xlink:href="#DejaVuSans-30" x="127.246094"/>
      </g>
     </g>
    </g>
    <g id="xtick_5">
     <g id="line2d_5">
      <g>
       <use xlink:href="#m9c5e255f10" x="784.217415" y="640.8" style="stroke: #000000; stroke-width: 0.8"/>
      </g>
     </g>
     <g id="text_5">
      <!-- 400 -->
      <g transform="translate(774.673665 655.398438) scale(0.1 -0.1)">
       <defs>
        <path id="DejaVuSans-34" d="M 2419 4116 
L 825 1625 
L 2419 1625 
L 2419 4116 
z
M 2253 4666 
L 3047 4666 
L 3047 1625 
L 3713 1625 
L 3713 1100 
L 3047 1100 
L 3047 0 
L 2419 0 
L 2419 1100 
L 313 1100 
L 313 1709 
L 2253 4666 
z
" transform="scale(0.015625)"/>
       </defs>
       <use xlink:href="#DejaVuSans-34"/>
       <use xlink:href="#DejaVuSans-30" x="63.623047"/>
       <use xlink:href="#DejaVuSans-30" x="127.246094"/>
      </g>
     </g>
    </g>
    <g id="xtick_6">
     <g id="line2d_6">
      <g>
       <use xlink:href="#m9c5e255f10" x="937.010405" y="640.8" style="stroke: #000000; stroke-width: 0.8"/>
      </g>
     </g>
     <g id="text_6">
      <!-- 500 -->
      <g transform="translate(927.466655 655.398438) scale(0.1 -0.1)">
       <defs>
        <path id="DejaVuSans-35" d="M 691 4666 
L 3169 4666 
L 3169 4134 
L 1269 4134 
L 1269 2991 
Q 1406 3038 1543 3061 
Q 1681 3084 1819 3084 
Q 2600 3084 3056 2656 
Q 3513 2228 3513 1497 
Q 3513 744 3044 326 
Q 2575 -91 1722 -91 
Q 1428 -91 1123 -41 
Q 819 9 494 109 
L 494 744 
Q 775 591 1075 516 
Q 1375 441 1709 441 
Q 2250 441 2565 725 
Q 2881 1009 2881 1497 
Q 2881 1984 2565 2268 
Q 2250 2553 1709 2553 
Q 1456 2553 1204 2497 
Q 953 2441 691 2322 
L 691 4666 
z
" transform="scale(0.015625)"/>
       </defs>
       <use xlink:href="#DejaVuSans-35"/>
       <use xlink:href="#DejaVuSans-30" x="63.623047"/>
       <use xlink:href="#DejaVuSans-30" x="127.246094"/>
      </g>
     </g>
    </g>
    <g id="text_7">
     <!-- epoch -->
     <g transform="translate(526.089375 675.155313) scale(0.18 -0.18)">
      <defs>
       <path id="DejaVuSans-65" d="M 3597 1894 
L 3597 1613 
L 953 1613 
Q 991 1019 1311 708 
Q 1631 397 2203 397 
Q 2534 397 2845 478 
Q 3156 559 3463 722 
L 3463 178 
Q 3153 47 2828 -22 
Q 2503 -91 2169 -91 
Q 1331 -91 842 396 
Q 353 884 353 1716 
Q 353 2575 817 3079 
Q 1281 3584 2069 3584 
Q 2775 3584 3186 3129 
Q 3597 2675 3597 1894 
z
M 3022 2063 
Q 3016 2534 2758 2815 
Q 2500 3097 2075 3097 
Q 1594 3097 1305 2825 
Q 1016 2553 972 2059 
L 3022 2063 
z
" transform="scale(0.015625)"/>
       <path id="DejaVuSans-70" d="M 1159 525 
L 1159 -1331 
L 581 -1331 
L 581 3500 
L 1159 3500 
L 1159 2969 
Q 1341 3281 1617 3432 
Q 1894 3584 2278 3584 
Q 2916 3584 3314 3078 
Q 3713 2572 3713 1747 
Q 3713 922 3314 415 
Q 2916 -91 2278 -91 
Q 1894 -91 1617 61 
Q 1341 213 1159 525 
z
M 3116 1747 
Q 3116 2381 2855 2742 
Q 2594 3103 2138 3103 
Q 1681 3103 1420 2742 
Q 1159 2381 1159 1747 
Q 1159 1113 1420 752 
Q 1681 391 2138 391 
Q 2594 391 2855 752 
Q 3116 1113 3116 1747 
z
" transform="scale(0.015625)"/>
       <path id="DejaVuSans-6f" d="M 1959 3097 
Q 1497 3097 1228 2736 
Q 959 2375 959 1747 
Q 959 1119 1226 758 
Q 1494 397 1959 397 
Q 2419 397 2687 759 
Q 2956 1122 2956 1747 
Q 2956 2369 2687 2733 
Q 2419 3097 1959 3097 
z
M 1959 3584 
Q 2709 3584 3137 3096 
Q 3566 2609 3566 1747 
Q 3566 888 3137 398 
Q 2709 -91 1959 -91 
Q 1206 -91 779 398 
Q 353 888 353 1747 
Q 353 2609 779 3096 
Q 1206 3584 1959 3584 
z
" transform="scale(0.015625)"/>
       <path id="DejaVuSans-63" d="M 3122 3366 
L 3122 2828 
Q 2878 2963 2633 3030 
Q 2388 3097 2138 3097 
Q 1578 3097 1268 2742 
Q 959 2388 959 1747 
Q 959 1106 1268 751 
Q 1578 397 2138 397 
Q 2388 397 2633 464 
Q 2878 531 3122 666 
L 3122 134 
Q 2881 22 2623 -34 
Q 2366 -91 2075 -91 
Q 1284 -91 818 406 
Q 353 903 353 1747 
Q 353 2603 823 3093 
Q 1294 3584 2113 3584 
Q 2378 3584 2631 3529 
Q 2884 3475 3122 3366 
z
" transform="scale(0.015625)"/>
       <path id="DejaVuSans-68" d="M 3513 2113 
L 3513 0 
L 2938 0 
L 2938 2094 
Q 2938 2591 2744 2837 
Q 2550 3084 2163 3084 
Q 1697 3084 1428 2787 
Q 1159 2491 1159 1978 
L 1159 0 
L 581 0 
L 581 4863 
L 1159 4863 
L 1159 2956 
Q 1366 3272 1645 3428 
Q 1925 3584 2291 3584 
Q 2894 3584 3203 3211 
Q 3513 2838 3513 2113 
z
" transform="scale(0.015625)"/>
      </defs>
      <use xlink:href="#DejaVuSans-65"/>
      <use xlink:href="#DejaVuSans-70" x="61.523438"/>
      <use xlink:href="#DejaVuSans-6f" x="125"/>
      <use xlink:href="#DejaVuSans-63" x="186.181641"/>
      <use xlink:href="#DejaVuSans-68" x="241.162109"/>
     </g>
    </g>
   </g>
   <g id="matplotlib.axis_2">
    <g id="ytick_1">
     <g id="line2d_7">
      <defs>
       <path id="ma970f70770" d="M 0 0 
L -3.5 0 
" style="stroke: #000000; stroke-width: 0.8"/>
      </defs>
      <g>
       <use xlink:href="#ma970f70770" x="135" y="541.948279" style="stroke: #000000; stroke-width: 0.8"/>
      </g>
     </g>
     <g id="text_8">
      <!-- 0.490 -->
      <g transform="translate(99.371875 545.747498) scale(0.1 -0.1)">
       <defs>
        <path id="DejaVuSans-2e" d="M 684 794 
L 1344 794 
L 1344 0 
L 684 0 
L 684 794 
z
" transform="scale(0.015625)"/>
        <path id="DejaVuSans-39" d="M 703 97 
L 703 672 
Q 941 559 1184 500 
Q 1428 441 1663 441 
Q 2288 441 2617 861 
Q 2947 1281 2994 2138 
Q 2813 1869 2534 1725 
Q 2256 1581 1919 1581 
Q 1219 1581 811 2004 
Q 403 2428 403 3163 
Q 403 3881 828 4315 
Q 1253 4750 1959 4750 
Q 2769 4750 3195 4129 
Q 3622 3509 3622 2328 
Q 3622 1225 3098 567 
Q 2575 -91 1691 -91 
Q 1453 -91 1209 -44 
Q 966 3 703 97 
z
M 1959 2075 
Q 2384 2075 2632 2365 
Q 2881 2656 2881 3163 
Q 2881 3666 2632 3958 
Q 2384 4250 1959 4250 
Q 1534 4250 1286 3958 
Q 1038 3666 1038 3163 
Q 1038 2656 1286 2365 
Q 1534 2075 1959 2075 
z
" transform="scale(0.015625)"/>
       </defs>
       <use xlink:href="#DejaVuSans-30"/>
       <use xlink:href="#DejaVuSans-2e" x="63.623047"/>
       <use xlink:href="#DejaVuSans-34" x="95.410156"/>
       <use xlink:href="#DejaVuSans-39" x="159.033203"/>
       <use xlink:href="#DejaVuSans-30" x="222.65625"/>
      </g>
     </g>
    </g>
    <g id="ytick_2">
     <g id="line2d_8">
      <g>
       <use xlink:href="#ma970f70770" x="135" y="424.022204" style="stroke: #000000; stroke-width: 0.8"/>
      </g>
     </g>
     <g id="text_9">
      <!-- 0.495 -->
      <g transform="translate(99.371875 427.821423) scale(0.1 -0.1)">
       <use xlink:href="#DejaVuSans-30"/>
       <use xlink:href="#DejaVuSans-2e" x="63.623047"/>
       <use xlink:href="#DejaVuSans-34" x="95.410156"/>
       <use xlink:href="#DejaVuSans-39" x="159.033203"/>
       <use xlink:href="#DejaVuSans-35" x="222.65625"/>
      </g>
     </g>
    </g>
    <g id="ytick_3">
     <g id="line2d_9">
      <g>
       <use xlink:href="#ma970f70770" x="135" y="306.09613" style="stroke: #000000; stroke-width: 0.8"/>
      </g>
     </g>
     <g id="text_10">
      <!-- 0.500 -->
      <g transform="translate(99.371875 309.895349) scale(0.1 -0.1)">
       <use xlink:href="#DejaVuSans-30"/>
       <use xlink:href="#DejaVuSans-2e" x="63.623047"/>
       <use xlink:href="#DejaVuSans-35" x="95.410156"/>
       <use xlink:href="#DejaVuSans-30" x="159.033203"/>
       <use xlink:href="#DejaVuSans-30" x="222.65625"/>
      </g>
     </g>
    </g>
    <g id="ytick_4">
     <g id="line2d_10">
      <g>
       <use xlink:href="#ma970f70770" x="135" y="188.170055" style="stroke: #000000; stroke-width: 0.8"/>
      </g>
     </g>
     <g id="text_11">
      <!-- 0.505 -->
      <g transform="translate(99.371875 191.969274) scale(0.1 -0.1)">
       <use xlink:href="#DejaVuSans-30"/>
       <use xlink:href="#DejaVuSans-2e" x="63.623047"/>
       <use xlink:href="#DejaVuSans-35" x="95.410156"/>
       <use xlink:href="#DejaVuSans-30" x="159.033203"/>
       <use xlink:href="#DejaVuSans-35" x="222.65625"/>
      </g>
     </g>
    </g>
   </g>
   <g id="line2d_11">
    <path d="M 173.045455 155.958766 
L 174.573384 210.554171 
L 176.101314 155.958766 
L 177.629244 145.722128 
L 179.157174 169.607618 
L 180.685104 135.48549 
L 182.213034 173.01983 
L 183.740964 138.897702 
L 185.268894 118.424426 
L 186.796824 128.661064 
L 188.324754 111.6 
L 189.852683 166.195405 
L 192.908543 125.248851 
L 194.436473 173.01983 
L 195.964403 152.546554 
L 197.492333 176.432043 
L 199.020263 152.546554 
L 200.548193 142.309915 
L 202.076123 227.615235 
L 203.604053 183.256469 
L 205.131982 173.01983 
L 206.659912 166.195405 
L 208.187842 149.134341 
L 209.715772 207.141959 
L 211.243702 155.958766 
L 212.771632 210.554171 
L 214.299562 152.546554 
L 215.827492 186.668682 
L 217.355422 217.378597 
L 218.883352 152.546554 
L 220.411281 190.080895 
L 221.939211 210.554171 
L 223.467141 210.554171 
L 224.995071 155.958766 
L 226.523001 193.493107 
L 228.050931 217.378597 
L 229.578861 190.080895 
L 231.106791 179.844256 
L 232.634721 224.203023 
L 234.162651 173.01983 
L 235.690581 220.79081 
L 237.21851 210.554171 
L 238.74644 203.729746 
L 240.27437 183.256469 
L 241.8023 186.668682 
L 243.33023 227.615235 
L 244.85816 203.729746 
L 246.38609 193.493107 
L 247.91402 237.851874 
L 249.44195 193.493107 
L 250.96988 210.554171 
L 252.497809 224.203023 
L 254.025739 224.203023 
L 255.553669 193.493107 
L 257.081599 217.378597 
L 258.609529 203.729746 
L 260.137459 217.378597 
L 261.665389 190.080895 
L 263.193319 224.203023 
L 264.721249 200.317533 
L 266.249179 203.729746 
L 267.777108 210.554171 
L 269.305038 203.729746 
L 270.832968 234.439661 
L 272.360898 237.851874 
L 273.888828 210.554171 
L 275.416758 217.378597 
L 276.944688 231.027448 
L 278.472618 200.317533 
L 280.000548 210.554171 
L 281.528478 207.141959 
L 283.056407 196.90532 
L 284.584337 190.080895 
L 286.112267 196.90532 
L 287.640197 196.90532 
L 289.168127 203.729746 
L 290.696057 241.264087 
L 292.223987 241.264087 
L 293.751917 224.203023 
L 295.279847 220.79081 
L 296.807777 213.966384 
L 298.335706 203.729746 
L 299.863636 220.79081 
L 301.391566 203.729746 
L 302.919496 231.027448 
L 304.447426 224.203023 
L 305.975356 234.439661 
L 307.503286 210.554171 
L 309.031216 220.79081 
L 310.559146 213.966384 
L 312.087076 241.264087 
L 313.615005 210.554171 
L 315.142935 220.79081 
L 316.670865 213.966384 
L 318.198795 224.203023 
L 319.726725 217.378597 
L 321.254655 224.203023 
L 322.782585 203.729746 
L 324.310515 210.554171 
L 325.838445 193.493107 
L 327.366375 237.851874 
L 328.894304 217.378597 
L 330.422234 203.729746 
L 331.950164 244.676299 
L 333.478094 207.141959 
L 335.006024 203.729746 
L 336.533954 217.378597 
L 338.061884 207.141959 
L 342.645674 186.668682 
L 344.173604 217.378597 
L 345.701533 210.554171 
L 347.229463 234.439661 
L 348.757393 231.027448 
L 350.285323 210.554171 
L 351.813253 183.256469 
L 353.341183 241.264087 
L 354.869113 213.966384 
L 356.397043 203.729746 
L 357.924973 234.439661 
L 359.452903 241.264087 
L 360.980832 217.378597 
L 362.508762 213.966384 
L 364.036692 231.027448 
L 365.564622 213.966384 
L 367.092552 210.554171 
L 368.620482 234.439661 
L 370.148412 217.378597 
L 371.676342 227.615235 
L 373.204272 207.141959 
L 374.732202 244.676299 
L 376.260131 217.378597 
L 377.788061 213.966384 
L 379.315991 217.378597 
L 380.843921 203.729746 
L 382.371851 200.317533 
L 383.899781 200.317533 
L 385.427711 207.141959 
L 386.955641 227.615235 
L 388.483571 220.79081 
L 390.011501 210.554171 
L 391.53943 224.203023 
L 393.06736 248.088512 
L 394.59529 213.966384 
L 396.12322 227.615235 
L 397.65115 213.966384 
L 399.17908 234.439661 
L 400.70701 224.203023 
L 402.23494 231.027448 
L 403.76287 203.729746 
L 405.2908 231.027448 
L 406.818729 220.79081 
L 408.346659 224.203023 
L 409.874589 244.676299 
L 411.402519 220.79081 
L 412.930449 220.79081 
L 414.458379 213.966384 
L 415.986309 224.203023 
L 417.514239 207.141959 
L 420.570099 220.79081 
L 422.098028 234.439661 
L 423.625958 210.554171 
L 425.153888 224.203023 
L 426.681818 203.729746 
L 428.209748 224.203023 
L 429.737678 248.088512 
L 431.265608 213.966384 
L 432.793538 227.615235 
L 434.321468 213.966384 
L 435.849398 224.203023 
L 437.377327 237.851874 
L 438.905257 220.79081 
L 440.433187 241.264087 
L 441.961117 217.378597 
L 443.489047 227.615235 
L 445.016977 207.141959 
L 446.544907 227.615235 
L 448.072837 254.912938 
L 449.600767 227.615235 
L 451.128697 224.203023 
L 452.656627 227.615235 
L 454.184556 213.966384 
L 455.712486 241.264087 
L 457.240416 231.027448 
L 458.768346 237.851874 
L 460.296276 224.203023 
L 461.824206 227.615235 
L 463.352136 227.615235 
L 464.880066 224.203023 
L 466.407996 227.615235 
L 467.935926 210.554171 
L 469.463855 217.378597 
L 470.991785 220.79081 
L 472.519715 241.264087 
L 474.047645 251.500725 
L 475.575575 227.615235 
L 477.103505 220.79081 
L 478.631435 248.088512 
L 480.159365 254.912938 
L 481.687295 241.264087 
L 483.215225 231.027448 
L 484.743154 265.149576 
L 486.271084 224.203023 
L 487.799014 248.088512 
L 489.326944 200.317533 
L 490.854874 234.439661 
L 492.382804 258.325151 
L 493.910734 237.851874 
L 495.438664 231.027448 
L 496.966594 227.615235 
L 498.494524 207.141959 
L 500.022453 244.676299 
L 501.550383 227.615235 
L 503.078313 234.439661 
L 504.606243 234.439661 
L 506.134173 244.676299 
L 507.662103 237.851874 
L 509.190033 241.264087 
L 510.717963 213.966384 
L 512.245893 248.088512 
L 513.773823 234.439661 
L 515.301752 237.851874 
L 516.829682 244.676299 
L 518.357612 254.912938 
L 519.885542 231.027448 
L 521.413472 265.149576 
L 522.941402 220.79081 
L 524.469332 237.851874 
L 525.997262 231.027448 
L 527.525192 251.500725 
L 529.053122 213.966384 
L 530.581051 217.378597 
L 532.108981 227.615235 
L 533.636911 234.439661 
L 535.164841 237.851874 
L 536.692771 224.203023 
L 538.220701 234.439661 
L 539.748631 220.79081 
L 541.276561 227.615235 
L 542.804491 244.676299 
L 544.332421 234.439661 
L 545.86035 254.912938 
L 547.38828 234.439661 
L 548.91621 248.088512 
L 550.44414 213.966384 
L 551.97207 282.21064 
L 553.5 237.851874 
L 555.02793 241.264087 
L 556.55586 220.79081 
L 559.61172 241.264087 
L 561.13965 227.615235 
L 562.667579 237.851874 
L 564.195509 251.500725 
L 565.723439 244.676299 
L 567.251369 210.554171 
L 568.779299 268.561789 
L 570.307229 234.439661 
L 571.835159 237.851874 
L 573.363089 231.027448 
L 574.891019 213.966384 
L 576.418949 224.203023 
L 577.946878 231.027448 
L 579.474808 220.79081 
L 581.002738 248.088512 
L 582.530668 244.676299 
L 584.058598 254.912938 
L 585.586528 224.203023 
L 587.114458 224.203023 
L 588.642388 268.561789 
L 590.170318 234.439661 
L 591.698248 224.203023 
L 593.226177 217.378597 
L 594.754107 234.439661 
L 596.282037 234.439661 
L 597.809967 261.737363 
L 599.337897 217.378597 
L 600.865827 231.027448 
L 602.393757 217.378597 
L 603.921687 231.027448 
L 605.449617 217.378597 
L 606.977547 261.737363 
L 608.505476 251.500725 
L 610.033406 231.027448 
L 611.561336 258.325151 
L 613.089266 234.439661 
L 614.617196 231.027448 
L 616.145126 237.851874 
L 617.673056 220.79081 
L 620.728916 241.264087 
L 622.256846 268.561789 
L 623.784775 217.378597 
L 625.312705 251.500725 
L 626.840635 251.500725 
L 628.368565 241.264087 
L 629.896495 244.676299 
L 631.424425 251.500725 
L 632.952355 261.737363 
L 634.480285 231.027448 
L 636.008215 258.325151 
L 637.536145 244.676299 
L 639.064074 237.851874 
L 640.592004 248.088512 
L 642.119934 231.027448 
L 643.647864 227.615235 
L 646.703724 275.386215 
L 648.231654 224.203023 
L 649.759584 244.676299 
L 651.287514 251.500725 
L 652.815444 234.439661 
L 654.343373 224.203023 
L 655.871303 237.851874 
L 657.399233 234.439661 
L 658.927163 251.500725 
L 660.455093 237.851874 
L 661.983023 251.500725 
L 663.510953 268.561789 
L 665.038883 258.325151 
L 666.566813 210.554171 
L 668.094743 248.088512 
L 669.622673 234.439661 
L 671.150602 261.737363 
L 672.678532 241.264087 
L 674.206462 227.615235 
L 675.734392 231.027448 
L 677.262322 251.500725 
L 678.790252 244.676299 
L 680.318182 268.561789 
L 681.846112 248.088512 
L 683.374042 251.500725 
L 684.901972 248.088512 
L 686.429901 237.851874 
L 689.485761 251.500725 
L 691.013691 278.798427 
L 694.069551 237.851874 
L 695.597481 248.088512 
L 697.125411 234.439661 
L 698.653341 241.264087 
L 700.181271 268.561789 
L 701.7092 220.79081 
L 703.23713 248.088512 
L 704.76506 231.027448 
L 706.29299 261.737363 
L 707.82092 248.088512 
L 709.34885 244.676299 
L 710.87678 244.676299 
L 712.40471 241.264087 
L 713.93264 275.386215 
L 715.46057 237.851874 
L 716.988499 241.264087 
L 718.516429 285.622853 
L 720.044359 258.325151 
L 721.572289 217.378597 
L 723.100219 258.325151 
L 724.628149 261.737363 
L 726.156079 237.851874 
L 727.684009 251.500725 
L 729.211939 244.676299 
L 730.739869 261.737363 
L 732.267798 241.264087 
L 733.795728 237.851874 
L 735.323658 241.264087 
L 736.851588 271.974002 
L 738.379518 244.676299 
L 739.907448 271.974002 
L 741.435378 244.676299 
L 742.963308 258.325151 
L 744.491238 254.912938 
L 746.019168 258.325151 
L 747.547097 248.088512 
L 749.075027 261.737363 
L 750.602957 217.378597 
L 752.130887 261.737363 
L 753.658817 251.500725 
L 755.186747 251.500725 
L 756.714677 258.325151 
L 758.242607 248.088512 
L 759.770537 271.974002 
L 761.298467 258.325151 
L 762.826396 251.500725 
L 764.354326 254.912938 
L 765.882256 265.149576 
L 767.410186 224.203023 
L 768.938116 248.088512 
L 770.466046 237.851874 
L 771.993976 244.676299 
L 773.521906 234.439661 
L 775.049836 244.676299 
L 776.577766 231.027448 
L 778.105696 234.439661 
L 779.633625 251.500725 
L 781.161555 241.264087 
L 782.689485 251.500725 
L 784.217415 241.264087 
L 785.745345 207.141959 
L 787.273275 251.500725 
L 788.801205 248.088512 
L 790.329135 237.851874 
L 791.857065 234.439661 
L 793.384995 268.561789 
L 794.912924 258.325151 
L 796.440854 268.561789 
L 797.968784 220.79081 
L 799.496714 237.851874 
L 801.024644 237.851874 
L 802.552574 282.21064 
L 804.080504 244.676299 
L 805.608434 237.851874 
L 807.136364 248.088512 
L 808.664294 248.088512 
L 810.192223 302.683917 
L 811.720153 258.325151 
L 813.248083 275.386215 
L 814.776013 244.676299 
L 816.303943 234.439661 
L 817.831873 268.561789 
L 819.359803 268.561789 
L 820.887733 237.851874 
L 823.943593 258.325151 
L 825.471522 244.676299 
L 826.999452 234.439661 
L 828.527382 271.974002 
L 830.055312 251.500725 
L 831.583242 275.386215 
L 833.111172 265.149576 
L 834.639102 207.141959 
L 836.167032 265.149576 
L 837.694962 241.264087 
L 839.222892 241.264087 
L 840.750821 248.088512 
L 842.278751 261.737363 
L 843.806681 237.851874 
L 845.334611 224.203023 
L 846.862541 254.912938 
L 848.390471 261.737363 
L 849.918401 231.027448 
L 851.446331 254.912938 
L 852.974261 237.851874 
L 854.502191 265.149576 
L 857.55805 258.325151 
L 859.08598 241.264087 
L 860.61391 258.325151 
L 862.14184 271.974002 
L 863.66977 261.737363 
L 865.1977 244.676299 
L 866.72563 258.325151 
L 868.25356 234.439661 
L 869.78149 248.088512 
L 871.309419 241.264087 
L 872.837349 244.676299 
L 874.365279 251.500725 
L 875.893209 254.912938 
L 877.421139 234.439661 
L 878.949069 258.325151 
L 880.476999 220.79081 
L 882.004929 227.615235 
L 883.532859 254.912938 
L 885.060789 251.500725 
L 886.588719 237.851874 
L 889.644578 231.027448 
L 891.172508 224.203023 
L 892.700438 258.325151 
L 894.228368 227.615235 
L 895.756298 275.386215 
L 897.284228 251.500725 
L 898.812158 271.974002 
L 900.340088 254.912938 
L 901.868018 254.912938 
L 903.395947 275.386215 
L 904.923877 237.851874 
L 906.451807 282.21064 
L 907.979737 248.088512 
L 909.507667 258.325151 
L 911.035597 244.676299 
L 912.563527 265.149576 
L 914.091457 227.615235 
L 915.619387 251.500725 
L 917.147317 234.439661 
L 918.675246 244.676299 
L 920.203176 251.500725 
L 923.259036 251.500725 
L 924.786966 234.439661 
L 926.314896 251.500725 
L 927.842826 244.676299 
L 929.370756 254.912938 
L 930.898686 244.676299 
L 932.426616 258.325151 
L 933.954545 237.851874 
L 933.954545 237.851874 
" clip-path="url(#p4821ee9062)" style="fill: none; stroke: #1e90ff; stroke-width: 1.5; stroke-linecap: square"/>
   </g>
   <g id="line2d_12">
    <path d="M 173.045455 568.385515 
L 174.573384 570.603984 
L 176.101314 587.450658 
L 177.629244 583.896638 
L 179.157174 595.041153 
L 180.685104 615.6 
L 182.213034 594.216152 
L 183.740964 594.528967 
L 185.268894 580.748204 
L 186.796824 562.325834 
L 188.324754 584.889422 
L 189.852683 539.816097 
L 191.380613 549.735016 
L 192.908543 551.564375 
L 194.436473 551.538002 
L 195.964403 554.747929 
L 197.492333 554.629315 
L 199.020263 540.909118 
L 200.548193 567.834013 
L 202.076123 525.594626 
L 203.604053 573.950197 
L 205.131982 545.367392 
L 206.659912 541.335777 
L 208.187842 560.309209 
L 209.715772 556.053927 
L 211.243702 553.080919 
L 212.771632 564.46337 
L 214.299562 546.502867 
L 215.827492 546.980948 
L 217.355422 526.863824 
L 218.883352 533.9807 
L 220.411281 550.346996 
L 221.939211 533.565748 
L 223.467141 545.02003 
L 224.995071 527.874059 
L 226.523001 548.572107 
L 228.050931 532.972366 
L 229.578861 569.605059 
L 231.106791 535.521806 
L 232.634721 525.069232 
L 234.162651 547.417901 
L 235.690581 540.863042 
L 237.21851 529.767695 
L 238.74644 542.460164 
L 240.27437 553.995599 
L 241.8023 553.46 
L 243.33023 536.654101 
L 244.85816 562.599995 
L 246.38609 549.414292 
L 247.91402 548.853071 
L 249.44195 551.496078 
L 250.96988 548.586243 
L 252.497809 539.455879 
L 254.025739 545.044328 
L 255.553669 541.947802 
L 257.081599 539.366819 
L 258.609529 542.277007 
L 260.137459 549.815373 
L 261.665389 547.626017 
L 263.193319 552.746678 
L 264.721249 534.11005 
L 266.249179 552.874128 
L 267.777108 552.96363 
L 269.305038 539.137542 
L 270.832968 554.513969 
L 272.360898 538.232802 
L 273.888828 539.314337 
L 275.416758 536.61443 
L 276.944688 531.037777 
L 278.472618 544.270837 
L 280.000548 552.958726 
L 281.528478 540.293117 
L 283.056407 547.774672 
L 284.584337 548.516046 
L 286.112267 538.202717 
L 287.640197 545.90277 
L 289.168127 557.001474 
L 290.696057 558.872271 
L 292.223987 553.959462 
L 293.751917 539.916466 
L 295.279847 542.964309 
L 296.807777 559.744718 
L 298.335706 546.858225 
L 299.863636 541.525119 
L 301.391566 542.108782 
L 302.919496 550.785583 
L 304.447426 539.330461 
L 305.975356 545.976148 
L 307.503286 554.436483 
L 309.031216 541.221801 
L 310.559146 548.820248 
L 312.087076 539.999121 
L 313.615005 566.19828 
L 315.142935 536.876354 
L 316.670865 561.831098 
L 318.198795 539.182779 
L 319.726725 552.841879 
L 321.254655 542.872863 
L 322.782585 554.210475 
L 324.310515 554.483973 
L 325.838445 556.051409 
L 327.366375 536.016763 
L 328.894304 534.135407 
L 330.422234 549.849654 
L 331.950164 559.965734 
L 333.478094 542.030457 
L 335.006024 552.042765 
L 336.533954 545.302894 
L 338.061884 555.86591 
L 339.589814 557.958298 
L 341.117744 559.16291 
L 342.645674 553.513631 
L 344.173604 526.597571 
L 345.701533 538.660653 
L 347.229463 545.569413 
L 348.757393 535.848229 
L 350.285323 548.088106 
L 351.813253 536.171426 
L 353.341183 545.161661 
L 354.869113 558.71297 
L 356.397043 539.957595 
L 357.924973 537.960496 
L 359.452903 534.477821 
L 360.980832 540.42472 
L 362.508762 539.60745 
L 364.036692 549.982582 
L 365.564622 555.363444 
L 367.092552 544.938348 
L 368.620482 537.831588 
L 370.148412 550.481868 
L 371.676342 546.171718 
L 373.204272 545.913284 
L 374.732202 540.197254 
L 376.260131 541.350002 
L 377.788061 549.873466 
L 379.315991 552.861935 
L 380.843921 552.30893 
L 382.371851 552.611983 
L 383.899781 542.111079 
L 385.427711 536.433438 
L 386.955641 540.093659 
L 388.483571 540.908853 
L 390.011501 545.666646 
L 391.53943 543.659872 
L 393.06736 534.093042 
L 394.59529 537.53503 
L 396.12322 547.131238 
L 397.65115 553.123815 
L 399.17908 545.182115 
L 400.70701 539.869683 
L 402.23494 542.731277 
L 403.76287 546.554687 
L 405.2908 557.127024 
L 406.818729 550.905921 
L 408.346659 547.435836 
L 409.874589 527.652998 
L 411.402519 542.362003 
L 412.930449 543.92829 
L 414.458379 544.973998 
L 415.986309 550.318767 
L 417.514239 547.695066 
L 419.042169 543.363932 
L 420.570099 541.932207 
L 422.098028 553.669133 
L 423.625958 540.678471 
L 426.681818 540.246908 
L 428.209748 532.06365 
L 429.737678 537.451756 
L 431.265608 545.937582 
L 432.793538 542.516754 
L 435.849398 550.274237 
L 437.377327 546.126791 
L 438.905257 545.579485 
L 440.433187 537.701178 
L 441.961117 551.529962 
L 443.489047 537.266921 
L 445.016977 556.25979 
L 446.544907 558.847842 
L 448.072837 544.098282 
L 449.600767 554.493824 
L 451.128697 548.56632 
L 452.656627 548.738521 
L 454.184556 544.474977 
L 455.712486 545.444436 
L 457.240416 548.868268 
L 458.768346 543.394723 
L 460.296276 528.637256 
L 461.824206 537.022358 
L 463.352136 550.036876 
L 464.880066 547.556041 
L 466.407996 543.694639 
L 467.935926 554.019852 
L 469.463855 537.826287 
L 470.991785 542.831911 
L 474.047645 530.740865 
L 475.575575 550.702133 
L 477.103505 551.898307 
L 478.631435 544.845223 
L 480.159365 546.73696 
L 481.687295 547.099077 
L 483.215225 538.843987 
L 484.743154 538.542083 
L 486.271084 563.176457 
L 487.799014 538.576939 
L 489.326944 548.364034 
L 490.854874 548.66881 
L 492.382804 533.125792 
L 493.910734 543.770623 
L 495.438664 537.839584 
L 496.966594 540.852174 
L 498.494524 537.878769 
L 501.550383 542.277405 
L 503.078313 542.741967 
L 504.606243 542.087047 
L 506.134173 546.850892 
L 507.662103 553.714988 
L 509.190033 552.868341 
L 510.717963 553.196044 
L 512.245893 549.878767 
L 513.773823 545.559694 
L 515.301752 534.117251 
L 516.829682 550.806302 
L 518.357612 545.192585 
L 519.885542 544.428548 
L 521.413472 548.556203 
L 522.941402 549.920823 
L 524.469332 543.424145 
L 525.997262 539.769799 
L 527.525192 538.121785 
L 529.053122 541.955003 
L 530.581051 547.237704 
L 532.108981 542.10136 
L 533.636911 554.221431 
L 535.164841 546.355494 
L 536.692771 533.479117 
L 538.220701 544.580604 
L 539.748631 540.313218 
L 541.276561 544.680444 
L 542.804491 550.858519 
L 544.332421 554.07494 
L 545.86035 536.965768 
L 547.38828 531.976489 
L 548.91621 539.3222 
L 550.44414 550.322346 
L 551.97207 542.310758 
L 553.5 540.668443 
L 555.02793 535.156155 
L 556.55586 548.134801 
L 558.08379 556.562666 
L 559.61172 535.319123 
L 561.13965 541.368335 
L 562.667579 548.783669 
L 564.195509 557.888499 
L 565.723439 551.645351 
L 567.251369 539.725313 
L 568.779299 544.876235 
L 570.307229 544.773303 
L 571.835159 535.319389 
L 574.891019 550.3758 
L 576.418949 543.331727 
L 577.946878 545.963734 
L 579.474808 537.606463 
L 581.002738 539.209815 
L 582.530668 539.940454 
L 584.058598 544.872303 
L 585.586528 544.373989 
L 587.114458 551.104186 
L 588.642388 536.157466 
L 590.170318 538.072705 
L 591.698248 535.430361 
L 593.226177 545.625915 
L 594.754107 545.873039 
L 596.282037 549.49412 
L 597.809967 553.955531 
L 599.337897 539.848566 
L 600.865827 545.319902 
L 602.393757 552.033356 
L 603.921687 537.350592 
L 605.449617 542.822369 
L 606.977547 531.486127 
L 608.505476 552.637208 
L 610.033406 544.773568 
L 611.561336 536.187285 
L 613.089266 542.142931 
L 614.617196 544.661536 
L 616.145126 546.270895 
L 617.673056 541.93044 
L 619.200986 535.646208 
L 620.728916 548.068492 
L 622.256846 535.336971 
L 623.784775 535.570887 
L 625.312705 556.101858 
L 626.840635 539.93396 
L 628.368565 546.764261 
L 629.896495 538.351416 
L 631.424425 537.206575 
L 632.952355 538.202187 
L 634.480285 550.022871 
L 636.008215 539.396771 
L 637.536145 535.75422 
L 639.064074 537.078949 
L 640.592004 530.998725 
L 642.119934 535.099388 
L 643.647864 538.488276 
L 645.175794 531.899887 
L 646.703724 534.917027 
L 648.231654 547.832455 
L 649.759584 536.476466 
L 651.287514 547.101816 
L 652.815444 522.73343 
L 654.343373 538.721706 
L 655.871303 537.440801 
L 657.399233 530.292029 
L 658.927163 533.658563 
L 660.455093 543.1639 
L 661.983023 521.846935 
L 663.510953 533.459768 
L 665.038883 541.749537 
L 666.566813 545.810397 
L 668.094743 540.486611 
L 671.150602 550.223036 
L 672.678532 535.962602 
L 674.206462 541.608922 
L 675.734392 540.779194 
L 677.262322 533.811061 
L 678.790252 547.645455 
L 680.318182 535.56775 
L 681.846112 539.096369 
L 683.374042 546.711338 
L 684.901972 539.991213 
L 686.429901 539.157156 
L 687.957831 538.827288 
L 689.485761 547.516636 
L 691.013691 536.51353 
L 692.541621 548.794934 
L 694.069551 545.787381 
L 695.597481 535.678899 
L 697.125411 540.295105 
L 698.653341 536.835888 
L 700.181271 530.399776 
L 701.7092 538.201038 
L 703.23713 537.450078 
L 704.76506 535.284886 
L 706.29299 534.671095 
L 707.82092 545.01685 
L 709.34885 540.440623 
L 710.87678 531.80283 
L 712.40471 541.397448 
L 713.93264 534.23454 
L 715.46057 539.084662 
L 716.988499 539.973498 
L 718.516429 537.482415 
L 720.044359 534.17362 
L 721.572289 531.953164 
L 723.100219 523.036704 
L 724.628149 534.107267 
L 726.156079 531.337472 
L 727.684009 532.661361 
L 729.211939 532.050043 
L 730.739869 537.333716 
L 732.267798 532.000345 
L 735.323658 536.605109 
L 736.851588 541.758902 
L 738.379518 540.655808 
L 739.907448 533.909266 
L 741.435378 547.13592 
L 742.963308 545.60926 
L 744.491238 536.770904 
L 746.019168 524.859967 
L 747.547097 537.950556 
L 749.075027 541.223436 
L 750.602957 528.157232 
L 752.130887 546.179008 
L 753.658817 531.895955 
L 755.186747 533.483358 
L 756.714677 533.822327 
L 758.242607 539.146951 
L 759.770537 535.684863 
L 761.298467 530.423323 
L 762.826396 541.232271 
L 764.354326 540.715049 
L 765.882256 553.053132 
L 767.410186 548.880019 
L 768.938116 544.339399 
L 770.466046 533.8927 
L 771.993976 529.287538 
L 773.521906 540.237189 
L 775.049836 542.701413 
L 776.577766 540.271515 
L 778.105696 542.478409 
L 779.633625 540.985146 
L 781.161555 530.761142 
L 782.689485 546.510863 
L 784.217415 552.211521 
L 785.745345 542.626754 
L 787.273275 539.650566 
L 788.801205 537.496596 
L 790.329135 541.988003 
L 791.857065 528.437754 
L 793.384995 535.392059 
L 794.912924 532.386891 
L 796.440854 527.971292 
L 797.968784 539.974426 
L 799.496714 535.083573 
L 801.024644 536.995146 
L 802.552574 524.68887 
L 804.080504 543.184354 
L 805.608434 533.909178 
L 807.136364 542.51914 
L 808.664294 548.297151 
L 810.192223 543.025538 
L 811.720153 530.761761 
L 813.248083 535.93402 
L 814.776013 542.318401 
L 817.831873 531.246645 
L 819.359803 539.946153 
L 820.887733 536.584655 
L 822.415663 537.792624 
L 823.943593 527.268837 
L 825.471522 535.662863 
L 826.999452 533.939837 
L 828.527382 535.966136 
L 830.055312 533.657194 
L 831.583242 520.999581 
L 833.111172 534.306946 
L 834.639102 529.652085 
L 836.167032 538.915774 
L 837.694962 528.724903 
L 839.222892 532.54151 
L 840.750821 536.996294 
L 842.278751 535.133404 
L 843.806681 539.77541 
L 845.334611 533.948893 
L 846.862541 537.203174 
L 848.390471 533.341418 
L 849.918401 543.476936 
L 851.446331 523.882998 
L 852.974261 531.16801 
L 856.03012 527.901625 
L 857.55805 545.606609 
L 859.08598 540.827965 
L 860.61391 541.655308 
L 862.14184 530.411483 
L 863.66977 526.954033 
L 865.1977 520.367146 
L 866.72563 530.973058 
L 868.25356 521.25987 
L 869.78149 543.441992 
L 872.837349 531.45538 
L 874.365279 522.729012 
L 875.893209 541.001182 
L 877.421139 533.465688 
L 878.949069 532.987077 
L 880.476999 524.853473 
L 882.004929 532.180674 
L 883.532859 532.628626 
L 885.060789 537.865914 
L 886.588719 543.813386 
L 888.116648 536.549004 
L 889.644578 539.547723 
L 891.172508 534.213821 
L 892.700438 528.42322 
L 894.228368 531.82165 
L 895.756298 542.647076 
L 897.284228 529.114409 
L 898.812158 523.016603 
L 900.340088 528.492489 
L 901.868018 522.52496 
L 903.395947 529.93782 
L 904.923877 534.294488 
L 906.451807 526.869612 
L 907.979737 535.332244 
L 909.507667 535.855739 
L 911.035597 530.658431 
L 912.563527 524.220331 
L 914.091457 539.349811 
L 915.619387 526.738804 
L 917.147317 532.186373 
L 918.675246 535.839216 
L 920.203176 529.144803 
L 921.731106 540.572933 
L 923.259036 528.810473 
L 924.786966 537.752733 
L 926.314896 529.849643 
L 927.842826 544.794464 
L 929.370756 532.528124 
L 930.898686 527.058467 
L 932.426616 531.272179 
L 933.954545 542.536192 
L 933.954545 542.536192 
" clip-path="url(#p4821ee9062)" style="fill: none; stroke: #ff0000; stroke-width: 1.5; stroke-linecap: square"/>
   </g>
   <g id="patch_3">
    <path d="M 135 640.8 
L 135 86.4 
" style="fill: none; stroke: #000000; stroke-width: 0.8; stroke-linejoin: miter; stroke-linecap: square"/>
   </g>
   <g id="patch_4">
    <path d="M 972 640.8 
L 972 86.4 
" style="fill: none; stroke: #000000; stroke-width: 0.8; stroke-linejoin: miter; stroke-linecap: square"/>
   </g>
   <g id="patch_5">
    <path d="M 135 640.8 
L 972 640.8 
" style="fill: none; stroke: #000000; stroke-width: 0.8; stroke-linejoin: miter; stroke-linecap: square"/>
   </g>
   <g id="patch_6">
    <path d="M 135 86.4 
L 972 86.4 
" style="fill: none; stroke: #000000; stroke-width: 0.8; stroke-linejoin: miter; stroke-linecap: square"/>
   </g>
   <g id="text_12">
    <!-- EER and AUC per epoch -->
    <g transform="translate(446.108906 80.4) scale(0.18 -0.18)">
     <defs>
      <path id="DejaVuSans-45" d="M 628 4666 
L 3578 4666 
L 3578 4134 
L 1259 4134 
L 1259 2753 
L 3481 2753 
L 3481 2222 
L 1259 2222 
L 1259 531 
L 3634 531 
L 3634 0 
L 628 0 
L 628 4666 
z
" transform="scale(0.015625)"/>
      <path id="DejaVuSans-52" d="M 2841 2188 
Q 3044 2119 3236 1894 
Q 3428 1669 3622 1275 
L 4263 0 
L 3584 0 
L 2988 1197 
Q 2756 1666 2539 1819 
Q 2322 1972 1947 1972 
L 1259 1972 
L 1259 0 
L 628 0 
L 628 4666 
L 2053 4666 
Q 2853 4666 3247 4331 
Q 3641 3997 3641 3322 
Q 3641 2881 3436 2590 
Q 3231 2300 2841 2188 
z
M 1259 4147 
L 1259 2491 
L 2053 2491 
Q 2509 2491 2742 2702 
Q 2975 2913 2975 3322 
Q 2975 3731 2742 3939 
Q 2509 4147 2053 4147 
L 1259 4147 
z
" transform="scale(0.015625)"/>
      <path id="DejaVuSans-20" transform="scale(0.015625)"/>
      <path id="DejaVuSans-61" d="M 2194 1759 
Q 1497 1759 1228 1600 
Q 959 1441 959 1056 
Q 959 750 1161 570 
Q 1363 391 1709 391 
Q 2188 391 2477 730 
Q 2766 1069 2766 1631 
L 2766 1759 
L 2194 1759 
z
M 3341 1997 
L 3341 0 
L 2766 0 
L 2766 531 
Q 2569 213 2275 61 
Q 1981 -91 1556 -91 
Q 1019 -91 701 211 
Q 384 513 384 1019 
Q 384 1609 779 1909 
Q 1175 2209 1959 2209 
L 2766 2209 
L 2766 2266 
Q 2766 2663 2505 2880 
Q 2244 3097 1772 3097 
Q 1472 3097 1187 3025 
Q 903 2953 641 2809 
L 641 3341 
Q 956 3463 1253 3523 
Q 1550 3584 1831 3584 
Q 2591 3584 2966 3190 
Q 3341 2797 3341 1997 
z
" transform="scale(0.015625)"/>
      <path id="DejaVuSans-6e" d="M 3513 2113 
L 3513 0 
L 2938 0 
L 2938 2094 
Q 2938 2591 2744 2837 
Q 2550 3084 2163 3084 
Q 1697 3084 1428 2787 
Q 1159 2491 1159 1978 
L 1159 0 
L 581 0 
L 581 3500 
L 1159 3500 
L 1159 2956 
Q 1366 3272 1645 3428 
Q 1925 3584 2291 3584 
Q 2894 3584 3203 3211 
Q 3513 2838 3513 2113 
z
" transform="scale(0.015625)"/>
      <path id="DejaVuSans-64" d="M 2906 2969 
L 2906 4863 
L 3481 4863 
L 3481 0 
L 2906 0 
L 2906 525 
Q 2725 213 2448 61 
Q 2172 -91 1784 -91 
Q 1150 -91 751 415 
Q 353 922 353 1747 
Q 353 2572 751 3078 
Q 1150 3584 1784 3584 
Q 2172 3584 2448 3432 
Q 2725 3281 2906 2969 
z
M 947 1747 
Q 947 1113 1208 752 
Q 1469 391 1925 391 
Q 2381 391 2643 752 
Q 2906 1113 2906 1747 
Q 2906 2381 2643 2742 
Q 2381 3103 1925 3103 
Q 1469 3103 1208 2742 
Q 947 2381 947 1747 
z
" transform="scale(0.015625)"/>
      <path id="DejaVuSans-41" d="M 2188 4044 
L 1331 1722 
L 3047 1722 
L 2188 4044 
z
M 1831 4666 
L 2547 4666 
L 4325 0 
L 3669 0 
L 3244 1197 
L 1141 1197 
L 716 0 
L 50 0 
L 1831 4666 
z
" transform="scale(0.015625)"/>
      <path id="DejaVuSans-55" d="M 556 4666 
L 1191 4666 
L 1191 1831 
Q 1191 1081 1462 751 
Q 1734 422 2344 422 
Q 2950 422 3222 751 
Q 3494 1081 3494 1831 
L 3494 4666 
L 4128 4666 
L 4128 1753 
Q 4128 841 3676 375 
Q 3225 -91 2344 -91 
Q 1459 -91 1007 375 
Q 556 841 556 1753 
L 556 4666 
z
" transform="scale(0.015625)"/>
      <path id="DejaVuSans-43" d="M 4122 4306 
L 4122 3641 
Q 3803 3938 3442 4084 
Q 3081 4231 2675 4231 
Q 1875 4231 1450 3742 
Q 1025 3253 1025 2328 
Q 1025 1406 1450 917 
Q 1875 428 2675 428 
Q 3081 428 3442 575 
Q 3803 722 4122 1019 
L 4122 359 
Q 3791 134 3420 21 
Q 3050 -91 2638 -91 
Q 1578 -91 968 557 
Q 359 1206 359 2328 
Q 359 3453 968 4101 
Q 1578 4750 2638 4750 
Q 3056 4750 3426 4639 
Q 3797 4528 4122 4306 
z
" transform="scale(0.015625)"/>
      <path id="DejaVuSans-72" d="M 2631 2963 
Q 2534 3019 2420 3045 
Q 2306 3072 2169 3072 
Q 1681 3072 1420 2755 
Q 1159 2438 1159 1844 
L 1159 0 
L 581 0 
L 581 3500 
L 1159 3500 
L 1159 2956 
Q 1341 3275 1631 3429 
Q 1922 3584 2338 3584 
Q 2397 3584 2469 3576 
Q 2541 3569 2628 3553 
L 2631 2963 
z
" transform="scale(0.015625)"/>
     </defs>
     <use xlink:href="#DejaVuSans-45"/>
     <use xlink:href="#DejaVuSans-45" x="63.183594"/>
     <use xlink:href="#DejaVuSans-52" x="126.367188"/>
     <use xlink:href="#DejaVuSans-20" x="195.849609"/>
     <use xlink:href="#DejaVuSans-61" x="227.636719"/>
     <use xlink:href="#DejaVuSans-6e" x="288.916016"/>
     <use xlink:href="#DejaVuSans-64" x="352.294922"/>
     <use xlink:href="#DejaVuSans-20" x="415.771484"/>
     <use xlink:href="#DejaVuSans-41" x="447.558594"/>
     <use xlink:href="#DejaVuSans-55" x="515.966797"/>
     <use xlink:href="#DejaVuSans-43" x="589.160156"/>
     <use xlink:href="#DejaVuSans-20" x="658.984375"/>
     <use xlink:href="#DejaVuSans-70" x="690.771484"/>
     <use xlink:href="#DejaVuSans-65" x="754.248047"/>
     <use xlink:href="#DejaVuSans-72" x="815.771484"/>
     <use xlink:href="#DejaVuSans-20" x="856.884766"/>
     <use xlink:href="#DejaVuSans-65" x="888.671875"/>
     <use xlink:href="#DejaVuSans-70" x="950.195312"/>
     <use xlink:href="#DejaVuSans-6f" x="1013.671875"/>
     <use xlink:href="#DejaVuSans-63" x="1074.853516"/>
     <use xlink:href="#DejaVuSans-68" x="1129.833984"/>
    </g>
   </g>
   <g id="legend_1">
    <g id="patch_7">
     <path d="M 863.744063 153.64125 
L 959.4 153.64125 
Q 963 153.64125 963 150.04125 
L 963 99 
Q 963 95.4 959.4 95.4 
L 863.744063 95.4 
Q 860.144063 95.4 860.144063 99 
L 860.144063 150.04125 
Q 860.144063 153.64125 863.744063 153.64125 
z
" style="fill: #ffffff; opacity: 0.8; stroke: #cccccc; stroke-linejoin: miter"/>
    </g>
    <g id="line2d_13">
     <path d="M 867.344063 109.977187 
L 885.344063 109.977187 
L 903.344063 109.977187 
" style="fill: none; stroke: #1e90ff; stroke-width: 1.5; stroke-linecap: square"/>
    </g>
    <g id="text_13">
     <!-- EER -->
     <g transform="translate(917.744063 116.277187) scale(0.18 -0.18)">
      <use xlink:href="#DejaVuSans-45"/>
      <use xlink:href="#DejaVuSans-45" x="63.183594"/>
      <use xlink:href="#DejaVuSans-52" x="126.367188"/>
     </g>
    </g>
    <g id="line2d_14">
     <path d="M 867.344063 136.397812 
L 885.344063 136.397812 
L 903.344063 136.397812 
" style="fill: none; stroke: #ff0000; stroke-width: 1.5; stroke-linecap: square"/>
    </g>
    <g id="text_14">
     <!-- AUC -->
     <g transform="translate(917.744063 142.697812) scale(0.18 -0.18)">
      <use xlink:href="#DejaVuSans-41"/>
      <use xlink:href="#DejaVuSans-55" x="68.408203"/>
      <use xlink:href="#DejaVuSans-43" x="141.601562"/>
     </g>
    </g>
   </g>
  </g>
 </g>
 <defs>
  <clipPath id="p4821ee9062">
   <rect x="135" y="86.4" width="837" height="554.4"/>
  </clipPath>
 </defs>
</svg>
