<?xml version="1.0" encoding="utf-8" standalone="no"?>
<!DOCTYPE svg PUBLIC "-//W3C//DTD SVG 1.1//EN"
  "http://www.w3.org/Graphics/SVG/1.1/DTD/svg11.dtd">
<svg xmlns:xlink="http://www.w3.org/1999/xlink" width="1080pt" height="720pt" viewBox="0 0 1080 720" xmlns="http://www.w3.org/2000/svg" version="1.1">
 <metadata>
  <rdf:RDF xmlns:dc="http://purl.org/dc/elements/1.1/" xmlns:cc="http://creativecommons.org/ns#" xmlns:rdf="http://www.w3.org/1999/02/22-rdf-syntax-ns#">
   <cc:Work>
    <dc:type rdf:resource="http://purl.org/dc/dcmitype/StillImage"/>
    <dc:date>2024-01-11T22:41:25.638474</dc:date>
    <dc:format>image/svg+xml</dc:format>
    <dc:creator>
     <cc:Agent>
      <dc:title>Matplotlib v3.7.4, https://matplotlib.org/</dc:title>
     </cc:Agent>
    </dc:creator>
   </cc:Work>
  </rdf:RDF>
 </metadata>
 <defs>
  <style type="text/css">*{stroke-linejoin: round; stroke-linecap: butt}</style>
 </defs>
 <g id="figure_1">
  <g id="patch_1">
   <path d="M 0 720 
L 1080 720 
L 1080 0 
L 0 0 
z
" style="fill: #ffffff"/>
  </g>
  <g id="axes_1">
   <g id="patch_2">
    <path d="M 135 640.8 
L 972 640.8 
L 972 86.4 
L 135 86.4 
z
" style="fill: #ffffff"/>
   </g>
   <g id="matplotlib.axis_1">
    <g id="xtick_1">
     <g id="line2d_1">
      <defs>
       <path id="m1a4188ee0c" d="M 0 0 
L 0 3.5 
" style="stroke: #000000; stroke-width: 0.8"/>
      </defs>
      <g>
       <use xlink:href="#m1a4188ee0c" x="173.045455" y="640.8" style="stroke: #000000; stroke-width: 0.8"/>
      </g>
     </g>
     <g id="text_1">
      <!-- 0 -->
      <g transform="translate(169.864205 655.398438) scale(0.1 -0.1)">
       <defs>
        <path id="DejaVuSans-30" d="M 2034 4250 
Q 1547 4250 1301 3770 
Q 1056 3291 1056 2328 
Q 1056 1369 1301 889 
Q 1547 409 2034 409 
Q 2525 409 2770 889 
Q 3016 1369 3016 2328 
Q 3016 3291 2770 3770 
Q 2525 4250 2034 4250 
z
M 2034 4750 
Q 2819 4750 3233 4129 
Q 3647 3509 3647 2328 
Q 3647 1150 3233 529 
Q 2819 -91 2034 -91 
Q 1250 -91 836 529 
Q 422 1150 422 2328 
Q 422 3509 836 4129 
Q 1250 4750 2034 4750 
z
" transform="scale(0.015625)"/>
       </defs>
       <use xlink:href="#DejaVuSans-30"/>
      </g>
     </g>
    </g>
    <g id="xtick_2">
     <g id="line2d_2">
      <g>
       <use xlink:href="#m1a4188ee0c" x="325.838445" y="640.8" style="stroke: #000000; stroke-width: 0.8"/>
      </g>
     </g>
     <g id="text_2">
      <!-- 100 -->
      <g transform="translate(316.294695 655.398438) scale(0.1 -0.1)">
       <defs>
        <path id="DejaVuSans-31" d="M 794 531 
L 1825 531 
L 1825 4091 
L 703 3866 
L 703 4441 
L 1819 4666 
L 2450 4666 
L 2450 531 
L 3481 531 
L 3481 0 
L 794 0 
L 794 531 
z
" transform="scale(0.015625)"/>
       </defs>
       <use xlink:href="#DejaVuSans-31"/>
       <use xlink:href="#DejaVuSans-30" x="63.623047"/>
       <use xlink:href="#DejaVuSans-30" x="127.246094"/>
      </g>
     </g>
    </g>
    <g id="xtick_3">
     <g id="line2d_3">
      <g>
       <use xlink:href="#m1a4188ee0c" x="478.631435" y="640.8" style="stroke: #000000; stroke-width: 0.8"/>
      </g>
     </g>
     <g id="text_3">
      <!-- 200 -->
      <g transform="translate(469.087685 655.398438) scale(0.1 -0.1)">
       <defs>
        <path id="DejaVuSans-32" d="M 1228 531 
L 3431 531 
L 3431 0 
L 469 0 
L 469 531 
Q 828 903 1448 1529 
Q 2069 2156 2228 2338 
Q 2531 2678 2651 2914 
Q 2772 3150 2772 3378 
Q 2772 3750 2511 3984 
Q 2250 4219 1831 4219 
Q 1534 4219 1204 4116 
Q 875 4013 500 3803 
L 500 4441 
Q 881 4594 1212 4672 
Q 1544 4750 1819 4750 
Q 2544 4750 2975 4387 
Q 3406 4025 3406 3419 
Q 3406 3131 3298 2873 
Q 3191 2616 2906 2266 
Q 2828 2175 2409 1742 
Q 1991 1309 1228 531 
z
" transform="scale(0.015625)"/>
       </defs>
       <use xlink:href="#DejaVuSans-32"/>
       <use xlink:href="#DejaVuSans-30" x="63.623047"/>
       <use xlink:href="#DejaVuSans-30" x="127.246094"/>
      </g>
     </g>
    </g>
    <g id="xtick_4">
     <g id="line2d_4">
      <g>
       <use xlink:href="#m1a4188ee0c" x="631.424425" y="640.8" style="stroke: #000000; stroke-width: 0.8"/>
      </g>
     </g>
     <g id="text_4">
      <!-- 300 -->
      <g transform="translate(621.880675 655.398438) scale(0.1 -0.1)">
       <defs>
        <path id="DejaVuSans-33" d="M 2597 2516 
Q 3050 2419 3304 2112 
Q 3559 1806 3559 1356 
Q 3559 666 3084 287 
Q 2609 -91 1734 -91 
Q 1441 -91 1130 -33 
Q 819 25 488 141 
L 488 750 
Q 750 597 1062 519 
Q 1375 441 1716 441 
Q 2309 441 2620 675 
Q 2931 909 2931 1356 
Q 2931 1769 2642 2001 
Q 2353 2234 1838 2234 
L 1294 2234 
L 1294 2753 
L 1863 2753 
Q 2328 2753 2575 2939 
Q 2822 3125 2822 3475 
Q 2822 3834 2567 4026 
Q 2313 4219 1838 4219 
Q 1578 4219 1281 4162 
Q 984 4106 628 3988 
L 628 4550 
Q 988 4650 1302 4700 
Q 1616 4750 1894 4750 
Q 2613 4750 3031 4423 
Q 3450 4097 3450 3541 
Q 3450 3153 3228 2886 
Q 3006 2619 2597 2516 
z
" transform="scale(0.015625)"/>
       </defs>
       <use xlink:href="#DejaVuSans-33"/>
       <use xlink:href="#DejaVuSans-30" x="63.623047"/>
       <use xlink:href="#DejaVuSans-30" x="127.246094"/>
      </g>
     </g>
    </g>
    <g id="xtick_5">
     <g id="line2d_5">
      <g>
       <use xlink:href="#m1a4188ee0c" x="784.217415" y="640.8" style="stroke: #000000; stroke-width: 0.8"/>
      </g>
     </g>
     <g id="text_5">
      <!-- 400 -->
      <g transform="translate(774.673665 655.398438) scale(0.1 -0.1)">
       <defs>
        <path id="DejaVuSans-34" d="M 2419 4116 
L 825 1625 
L 2419 1625 
L 2419 4116 
z
M 2253 4666 
L 3047 4666 
L 3047 1625 
L 3713 1625 
L 3713 1100 
L 3047 1100 
L 3047 0 
L 2419 0 
L 2419 1100 
L 313 1100 
L 313 1709 
L 2253 4666 
z
" transform="scale(0.015625)"/>
       </defs>
       <use xlink:href="#DejaVuSans-34"/>
       <use xlink:href="#DejaVuSans-30" x="63.623047"/>
       <use xlink:href="#DejaVuSans-30" x="127.246094"/>
      </g>
     </g>
    </g>
    <g id="xtick_6">
     <g id="line2d_6">
      <g>
       <use xlink:href="#m1a4188ee0c" x="937.010405" y="640.8" style="stroke: #000000; stroke-width: 0.8"/>
      </g>
     </g>
     <g id="text_6">
      <!-- 500 -->
      <g transform="translate(927.466655 655.398438) scale(0.1 -0.1)">
       <defs>
        <path id="DejaVuSans-35" d="M 691 4666 
L 3169 4666 
L 3169 4134 
L 1269 4134 
L 1269 2991 
Q 1406 3038 1543 3061 
Q 1681 3084 1819 3084 
Q 2600 3084 3056 2656 
Q 3513 2228 3513 1497 
Q 3513 744 3044 326 
Q 2575 -91 1722 -91 
Q 1428 -91 1123 -41 
Q 819 9 494 109 
L 494 744 
Q 775 591 1075 516 
Q 1375 441 1709 441 
Q 2250 441 2565 725 
Q 2881 1009 2881 1497 
Q 2881 1984 2565 2268 
Q 2250 2553 1709 2553 
Q 1456 2553 1204 2497 
Q 953 2441 691 2322 
L 691 4666 
z
" transform="scale(0.015625)"/>
       </defs>
       <use xlink:href="#DejaVuSans-35"/>
       <use xlink:href="#DejaVuSans-30" x="63.623047"/>
       <use xlink:href="#DejaVuSans-30" x="127.246094"/>
      </g>
     </g>
    </g>
    <g id="text_7">
     <!-- epoch -->
     <g transform="translate(526.089375 675.155313) scale(0.18 -0.18)">
      <defs>
       <path id="DejaVuSans-65" d="M 3597 1894 
L 3597 1613 
L 953 1613 
Q 991 1019 1311 708 
Q 1631 397 2203 397 
Q 2534 397 2845 478 
Q 3156 559 3463 722 
L 3463 178 
Q 3153 47 2828 -22 
Q 2503 -91 2169 -91 
Q 1331 -91 842 396 
Q 353 884 353 1716 
Q 353 2575 817 3079 
Q 1281 3584 2069 3584 
Q 2775 3584 3186 3129 
Q 3597 2675 3597 1894 
z
M 3022 2063 
Q 3016 2534 2758 2815 
Q 2500 3097 2075 3097 
Q 1594 3097 1305 2825 
Q 1016 2553 972 2059 
L 3022 2063 
z
" transform="scale(0.015625)"/>
       <path id="DejaVuSans-70" d="M 1159 525 
L 1159 -1331 
L 581 -1331 
L 581 3500 
L 1159 3500 
L 1159 2969 
Q 1341 3281 1617 3432 
Q 1894 3584 2278 3584 
Q 2916 3584 3314 3078 
Q 3713 2572 3713 1747 
Q 3713 922 3314 415 
Q 2916 -91 2278 -91 
Q 1894 -91 1617 61 
Q 1341 213 1159 525 
z
M 3116 1747 
Q 3116 2381 2855 2742 
Q 2594 3103 2138 3103 
Q 1681 3103 1420 2742 
Q 1159 2381 1159 1747 
Q 1159 1113 1420 752 
Q 1681 391 2138 391 
Q 2594 391 2855 752 
Q 3116 1113 3116 1747 
z
" transform="scale(0.015625)"/>
       <path id="DejaVuSans-6f" d="M 1959 3097 
Q 1497 3097 1228 2736 
Q 959 2375 959 1747 
Q 959 1119 1226 758 
Q 1494 397 1959 397 
Q 2419 397 2687 759 
Q 2956 1122 2956 1747 
Q 2956 2369 2687 2733 
Q 2419 3097 1959 3097 
z
M 1959 3584 
Q 2709 3584 3137 3096 
Q 3566 2609 3566 1747 
Q 3566 888 3137 398 
Q 2709 -91 1959 -91 
Q 1206 -91 779 398 
Q 353 888 353 1747 
Q 353 2609 779 3096 
Q 1206 3584 1959 3584 
z
" transform="scale(0.015625)"/>
       <path id="DejaVuSans-63" d="M 3122 3366 
L 3122 2828 
Q 2878 2963 2633 3030 
Q 2388 3097 2138 3097 
Q 1578 3097 1268 2742 
Q 959 2388 959 1747 
Q 959 1106 1268 751 
Q 1578 397 2138 397 
Q 2388 397 2633 464 
Q 2878 531 3122 666 
L 3122 134 
Q 2881 22 2623 -34 
Q 2366 -91 2075 -91 
Q 1284 -91 818 406 
Q 353 903 353 1747 
Q 353 2603 823 3093 
Q 1294 3584 2113 3584 
Q 2378 3584 2631 3529 
Q 2884 3475 3122 3366 
z
" transform="scale(0.015625)"/>
       <path id="DejaVuSans-68" d="M 3513 2113 
L 3513 0 
L 2938 0 
L 2938 2094 
Q 2938 2591 2744 2837 
Q 2550 3084 2163 3084 
Q 1697 3084 1428 2787 
Q 1159 2491 1159 1978 
L 1159 0 
L 581 0 
L 581 4863 
L 1159 4863 
L 1159 2956 
Q 1366 3272 1645 3428 
Q 1925 3584 2291 3584 
Q 2894 3584 3203 3211 
Q 3513 2838 3513 2113 
z
" transform="scale(0.015625)"/>
      </defs>
      <use xlink:href="#DejaVuSans-65"/>
      <use xlink:href="#DejaVuSans-70" x="61.523438"/>
      <use xlink:href="#DejaVuSans-6f" x="125"/>
      <use xlink:href="#DejaVuSans-63" x="186.181641"/>
      <use xlink:href="#DejaVuSans-68" x="241.162109"/>
     </g>
    </g>
   </g>
   <g id="matplotlib.axis_2">
    <g id="ytick_1">
     <g id="line2d_7">
      <defs>
       <path id="m095efcad8e" d="M 0 0 
L -3.5 0 
" style="stroke: #000000; stroke-width: 0.8"/>
      </defs>
      <g>
       <use xlink:href="#m095efcad8e" x="135" y="616.946083" style="stroke: #000000; stroke-width: 0.8"/>
      </g>
     </g>
     <g id="text_8">
      <!-- 400 -->
      <g transform="translate(108.9125 620.745302) scale(0.1 -0.1)">
       <use xlink:href="#DejaVuSans-34"/>
       <use xlink:href="#DejaVuSans-30" x="63.623047"/>
       <use xlink:href="#DejaVuSans-30" x="127.246094"/>
      </g>
     </g>
    </g>
    <g id="ytick_2">
     <g id="line2d_8">
      <g>
       <use xlink:href="#m095efcad8e" x="135" y="538.873354" style="stroke: #000000; stroke-width: 0.8"/>
      </g>
     </g>
     <g id="text_9">
      <!-- 600 -->
      <g transform="translate(108.9125 542.672573) scale(0.1 -0.1)">
       <defs>
        <path id="DejaVuSans-36" d="M 2113 2584 
Q 1688 2584 1439 2293 
Q 1191 2003 1191 1497 
Q 1191 994 1439 701 
Q 1688 409 2113 409 
Q 2538 409 2786 701 
Q 3034 994 3034 1497 
Q 3034 2003 2786 2293 
Q 2538 2584 2113 2584 
z
M 3366 4563 
L 3366 3988 
Q 3128 4100 2886 4159 
Q 2644 4219 2406 4219 
Q 1781 4219 1451 3797 
Q 1122 3375 1075 2522 
Q 1259 2794 1537 2939 
Q 1816 3084 2150 3084 
Q 2853 3084 3261 2657 
Q 3669 2231 3669 1497 
Q 3669 778 3244 343 
Q 2819 -91 2113 -91 
Q 1303 -91 875 529 
Q 447 1150 447 2328 
Q 447 3434 972 4092 
Q 1497 4750 2381 4750 
Q 2619 4750 2861 4703 
Q 3103 4656 3366 4563 
z
" transform="scale(0.015625)"/>
       </defs>
       <use xlink:href="#DejaVuSans-36"/>
       <use xlink:href="#DejaVuSans-30" x="63.623047"/>
       <use xlink:href="#DejaVuSans-30" x="127.246094"/>
      </g>
     </g>
    </g>
    <g id="ytick_3">
     <g id="line2d_9">
      <g>
       <use xlink:href="#m095efcad8e" x="135" y="460.800626" style="stroke: #000000; stroke-width: 0.8"/>
      </g>
     </g>
     <g id="text_10">
      <!-- 800 -->
      <g transform="translate(108.9125 464.599844) scale(0.1 -0.1)">
       <defs>
        <path id="DejaVuSans-38" d="M 2034 2216 
Q 1584 2216 1326 1975 
Q 1069 1734 1069 1313 
Q 1069 891 1326 650 
Q 1584 409 2034 409 
Q 2484 409 2743 651 
Q 3003 894 3003 1313 
Q 3003 1734 2745 1975 
Q 2488 2216 2034 2216 
z
M 1403 2484 
Q 997 2584 770 2862 
Q 544 3141 544 3541 
Q 544 4100 942 4425 
Q 1341 4750 2034 4750 
Q 2731 4750 3128 4425 
Q 3525 4100 3525 3541 
Q 3525 3141 3298 2862 
Q 3072 2584 2669 2484 
Q 3125 2378 3379 2068 
Q 3634 1759 3634 1313 
Q 3634 634 3220 271 
Q 2806 -91 2034 -91 
Q 1263 -91 848 271 
Q 434 634 434 1313 
Q 434 1759 690 2068 
Q 947 2378 1403 2484 
z
M 1172 3481 
Q 1172 3119 1398 2916 
Q 1625 2713 2034 2713 
Q 2441 2713 2670 2916 
Q 2900 3119 2900 3481 
Q 2900 3844 2670 4047 
Q 2441 4250 2034 4250 
Q 1625 4250 1398 4047 
Q 1172 3844 1172 3481 
z
" transform="scale(0.015625)"/>
       </defs>
       <use xlink:href="#DejaVuSans-38"/>
       <use xlink:href="#DejaVuSans-30" x="63.623047"/>
       <use xlink:href="#DejaVuSans-30" x="127.246094"/>
      </g>
     </g>
    </g>
    <g id="ytick_4">
     <g id="line2d_10">
      <g>
       <use xlink:href="#m095efcad8e" x="135" y="382.727897" style="stroke: #000000; stroke-width: 0.8"/>
      </g>
     </g>
     <g id="text_11">
      <!-- 1000 -->
      <g transform="translate(102.55 386.527116) scale(0.1 -0.1)">
       <use xlink:href="#DejaVuSans-31"/>
       <use xlink:href="#DejaVuSans-30" x="63.623047"/>
       <use xlink:href="#DejaVuSans-30" x="127.246094"/>
       <use xlink:href="#DejaVuSans-30" x="190.869141"/>
      </g>
     </g>
    </g>
    <g id="ytick_5">
     <g id="line2d_11">
      <g>
       <use xlink:href="#m095efcad8e" x="135" y="304.655168" style="stroke: #000000; stroke-width: 0.8"/>
      </g>
     </g>
     <g id="text_12">
      <!-- 1200 -->
      <g transform="translate(102.55 308.454387) scale(0.1 -0.1)">
       <use xlink:href="#DejaVuSans-31"/>
       <use xlink:href="#DejaVuSans-32" x="63.623047"/>
       <use xlink:href="#DejaVuSans-30" x="127.246094"/>
       <use xlink:href="#DejaVuSans-30" x="190.869141"/>
      </g>
     </g>
    </g>
    <g id="ytick_6">
     <g id="line2d_12">
      <g>
       <use xlink:href="#m095efcad8e" x="135" y="226.58244" style="stroke: #000000; stroke-width: 0.8"/>
      </g>
     </g>
     <g id="text_13">
      <!-- 1400 -->
      <g transform="translate(102.55 230.381658) scale(0.1 -0.1)">
       <use xlink:href="#DejaVuSans-31"/>
       <use xlink:href="#DejaVuSans-34" x="63.623047"/>
       <use xlink:href="#DejaVuSans-30" x="127.246094"/>
       <use xlink:href="#DejaVuSans-30" x="190.869141"/>
      </g>
     </g>
    </g>
    <g id="ytick_7">
     <g id="line2d_13">
      <g>
       <use xlink:href="#m095efcad8e" x="135" y="148.509711" style="stroke: #000000; stroke-width: 0.8"/>
      </g>
     </g>
     <g id="text_14">
      <!-- 1600 -->
      <g transform="translate(102.55 152.30893) scale(0.1 -0.1)">
       <use xlink:href="#DejaVuSans-31"/>
       <use xlink:href="#DejaVuSans-36" x="63.623047"/>
       <use xlink:href="#DejaVuSans-30" x="127.246094"/>
       <use xlink:href="#DejaVuSans-30" x="190.869141"/>
      </g>
     </g>
    </g>
    <g id="text_15">
     <!-- loss -->
     <g transform="translate(94.806562 380.984062) rotate(-90) scale(0.18 -0.18)">
      <defs>
       <path id="DejaVuSans-6c" d="M 603 4863 
L 1178 4863 
L 1178 0 
L 603 0 
L 603 4863 
z
" transform="scale(0.015625)"/>
       <path id="DejaVuSans-73" d="M 2834 3397 
L 2834 2853 
Q 2591 2978 2328 3040 
Q 2066 3103 1784 3103 
Q 1356 3103 1142 2972 
Q 928 2841 928 2578 
Q 928 2378 1081 2264 
Q 1234 2150 1697 2047 
L 1894 2003 
Q 2506 1872 2764 1633 
Q 3022 1394 3022 966 
Q 3022 478 2636 193 
Q 2250 -91 1575 -91 
Q 1294 -91 989 -36 
Q 684 19 347 128 
L 347 722 
Q 666 556 975 473 
Q 1284 391 1588 391 
Q 1994 391 2212 530 
Q 2431 669 2431 922 
Q 2431 1156 2273 1281 
Q 2116 1406 1581 1522 
L 1381 1569 
Q 847 1681 609 1914 
Q 372 2147 372 2553 
Q 372 3047 722 3315 
Q 1072 3584 1716 3584 
Q 2034 3584 2315 3537 
Q 2597 3491 2834 3397 
z
" transform="scale(0.015625)"/>
      </defs>
      <use xlink:href="#DejaVuSans-6c"/>
      <use xlink:href="#DejaVuSans-6f" x="27.783203"/>
      <use xlink:href="#DejaVuSans-73" x="88.964844"/>
      <use xlink:href="#DejaVuSans-73" x="141.064453"/>
     </g>
    </g>
   </g>
   <g id="line2d_14">
    <path d="M 173.045455 190.329058 
L 174.573384 276.691433 
L 176.101314 330.717521 
L 177.629244 367.937332 
L 179.157174 397.212575 
L 180.685104 420.701245 
L 182.213034 441.150208 
L 183.740964 457.61358 
L 185.268894 471.243464 
L 186.796824 482.694637 
L 188.324754 491.102699 
L 189.852683 498.754855 
L 192.908543 510.762887 
L 194.436473 515.989019 
L 197.492333 524.609399 
L 199.020263 526.880433 
L 200.548193 530.341241 
L 202.076123 534.822135 
L 203.604053 535.658821 
L 205.131982 537.703761 
L 206.659912 541.830431 
L 208.187842 544.198256 
L 209.715772 545.052775 
L 211.243702 546.980165 
L 212.771632 547.829712 
L 214.299562 550.773385 
L 215.827492 551.532105 
L 217.355422 553.040194 
L 220.411281 556.782771 
L 221.939211 557.66692 
L 223.467141 559.509241 
L 224.995071 560.804624 
L 226.523001 561.450599 
L 228.050931 563.410931 
L 229.578861 563.439239 
L 231.106791 563.934594 
L 232.634721 566.277863 
L 234.162651 566.977986 
L 235.690581 568.166328 
L 237.21851 568.330295 
L 238.74644 569.40948 
L 240.27437 569.600299 
L 241.8023 571.148276 
L 243.33023 571.742885 
L 244.85816 572.006922 
L 246.38609 582.205154 
L 247.91402 586.026025 
L 249.44195 587.340533 
L 250.96988 588.505584 
L 254.025739 590.049197 
L 255.553669 590.181481 
L 257.081599 591.039944 
L 258.609529 590.752489 
L 260.137459 591.131359 
L 261.665389 592.102135 
L 264.721249 592.266961 
L 267.777108 593.348865 
L 269.305038 592.938514 
L 270.832968 593.351071 
L 273.888828 593.70872 
L 276.944688 594.662313 
L 280.000548 594.805504 
L 281.528478 594.448555 
L 284.584337 595.409653 
L 286.112267 595.099254 
L 287.640197 595.343433 
L 289.168127 595.969605 
L 290.696057 595.889233 
L 292.223987 596.201414 
L 293.751917 595.873061 
L 296.807777 596.352169 
L 298.335706 595.741775 
L 299.863636 596.756319 
L 301.391566 596.383867 
L 302.919496 596.781561 
L 304.447426 596.51081 
L 305.975356 597.303027 
L 307.503286 597.085982 
L 310.559146 596.925562 
L 312.087076 597.184483 
L 313.615005 597.314814 
L 315.142935 597.581515 
L 318.198795 597.92324 
L 319.726725 597.69863 
L 321.254655 597.801739 
L 322.782585 598.045509 
L 330.422234 598.313541 
L 331.950164 598.839235 
L 333.478094 598.705424 
L 336.533954 598.679041 
L 339.589814 598.952192 
L 341.117744 599.001912 
L 344.173604 599.498366 
L 345.701533 599.095472 
L 347.229463 599.672613 
L 348.757393 599.884983 
L 350.285323 599.971763 
L 351.813253 599.602381 
L 354.869113 600.162601 
L 356.397043 599.513379 
L 357.924973 600.127214 
L 359.452903 600.044493 
L 360.980832 599.832536 
L 362.508762 599.986586 
L 364.036692 600.444469 
L 365.564622 600.092094 
L 367.092552 599.982364 
L 368.620482 600.644562 
L 371.676342 600.781787 
L 373.204272 600.352311 
L 374.732202 600.683145 
L 376.260131 601.19635 
L 379.315991 600.967776 
L 380.843921 601.186356 
L 382.371851 600.828544 
L 383.899781 601.065806 
L 385.427711 601.443141 
L 386.955641 601.141329 
L 388.483571 601.107841 
L 390.011501 602.053746 
L 391.53943 601.47097 
L 393.06736 601.651629 
L 394.59529 601.352637 
L 396.12322 601.998108 
L 397.65115 601.995497 
L 399.17908 602.229165 
L 402.23494 601.746759 
L 403.76287 602.273282 
L 405.2908 602.402949 
L 406.818729 601.853674 
L 408.346659 602.113746 
L 409.874589 602.637473 
L 411.402519 602.36113 
L 412.930449 602.296791 
L 414.458379 602.637495 
L 415.986309 602.555336 
L 417.514239 602.596954 
L 419.042169 602.88884 
L 422.098028 602.618179 
L 423.625958 603.288674 
L 425.153888 603.483555 
L 426.681818 602.971116 
L 428.209748 602.936686 
L 429.737678 603.192947 
L 431.265608 603.086306 
L 432.793538 603.189638 
L 435.849398 603.583411 
L 437.377327 603.495526 
L 438.905257 603.679986 
L 440.433187 603.627954 
L 441.961117 603.807712 
L 443.489047 603.573264 
L 445.016977 603.768512 
L 448.072837 603.674924 
L 449.600767 603.643536 
L 452.656627 604.240367 
L 454.184556 603.904322 
L 455.712486 603.748585 
L 458.768346 604.494928 
L 460.296276 604.315274 
L 461.824206 603.94316 
L 463.352136 604.209947 
L 467.935926 604.724813 
L 469.463855 604.455544 
L 472.519715 604.376988 
L 474.047645 604.865717 
L 475.575575 605.005627 
L 477.103505 604.910218 
L 478.631435 605.13167 
L 480.159365 604.845106 
L 481.687295 605.434556 
L 483.215225 605.103987 
L 484.743154 605.063568 
L 486.271084 605.476481 
L 487.799014 605.341684 
L 489.326944 605.430028 
L 490.854874 605.704314 
L 493.910734 605.788605 
L 496.966594 605.400138 
L 498.494524 605.366253 
L 500.022453 605.732049 
L 501.550383 605.602442 
L 503.078313 605.937914 
L 506.134173 606.339803 
L 507.662103 606.171967 
L 509.190033 605.778616 
L 510.717963 605.856604 
L 512.245893 605.802326 
L 513.773823 606.40082 
L 515.301752 606.213557 
L 516.829682 606.323609 
L 518.357612 606.270148 
L 521.413472 606.480443 
L 522.941402 606.36606 
L 524.469332 606.520482 
L 527.525192 606.382226 
L 529.053122 606.709714 
L 530.581051 606.888278 
L 535.164841 606.929602 
L 536.692771 606.62919 
L 538.220701 606.803278 
L 539.748631 606.498311 
L 541.276561 607.127386 
L 544.332421 607.223443 
L 545.86035 606.762204 
L 547.38828 607.115643 
L 548.91621 607.287653 
L 550.44414 606.704688 
L 551.97207 607.163025 
L 555.02793 607.644618 
L 556.55586 607.5708 
L 558.08379 607.77656 
L 559.61172 607.819773 
L 561.13965 607.335263 
L 562.667579 607.138024 
L 564.195509 607.852351 
L 565.723439 607.495047 
L 570.307229 607.848705 
L 571.835159 607.758982 
L 573.363089 608.104735 
L 574.891019 607.957987 
L 577.946878 608.037569 
L 579.474808 608.493911 
L 581.002738 608.590882 
L 582.530668 607.917954 
L 584.058598 608.168665 
L 585.586528 608.113357 
L 587.114458 608.361008 
L 588.642388 608.4177 
L 590.170318 608.211907 
L 593.226177 608.563624 
L 594.754107 608.137265 
L 596.282037 608.45351 
L 597.809967 608.59126 
L 599.337897 608.860866 
L 602.393757 608.511156 
L 603.921687 608.853247 
L 605.449617 608.628913 
L 606.977547 608.975197 
L 610.033406 608.637884 
L 611.561336 608.932663 
L 614.617196 608.932556 
L 616.145126 609.171283 
L 617.673056 608.939906 
L 619.200986 609.62271 
L 620.728916 608.950848 
L 622.256846 608.75494 
L 623.784775 608.910336 
L 625.312705 609.59585 
L 628.368565 608.96617 
L 629.896495 609.103845 
L 631.424425 609.54044 
L 634.480285 609.487209 
L 636.008215 609.888333 
L 637.536145 609.394824 
L 639.064074 609.97253 
L 640.592004 609.686603 
L 642.119934 609.542584 
L 643.647864 610.253447 
L 645.175794 609.490619 
L 646.703724 609.815944 
L 648.231654 609.917203 
L 651.287514 609.727855 
L 652.815444 610.351846 
L 657.399233 609.945036 
L 658.927163 610.127958 
L 660.455093 609.907626 
L 661.983023 610.359295 
L 663.510953 610.177383 
L 666.566813 610.397874 
L 668.094743 610.237084 
L 671.150602 610.543553 
L 672.678532 610.366682 
L 674.206462 610.430566 
L 675.734392 610.177521 
L 677.262322 610.221699 
L 678.790252 610.683297 
L 680.318182 610.861773 
L 681.846112 610.345097 
L 683.374042 610.83963 
L 686.429901 610.624099 
L 689.485761 611.096779 
L 692.541621 611.001651 
L 694.069551 610.724869 
L 695.597481 611.117753 
L 698.653341 610.951442 
L 700.181271 611.118636 
L 701.7092 611.15209 
L 703.23713 610.669536 
L 704.76506 611.019054 
L 706.29299 611.043225 
L 709.34885 611.284328 
L 712.40471 611.267061 
L 713.93264 611.571219 
L 715.46057 611.426998 
L 718.516429 611.816721 
L 720.044359 611.541762 
L 721.572289 611.531325 
L 723.100219 611.149937 
L 724.628149 611.41057 
L 726.156079 611.951749 
L 729.211939 612.024634 
L 732.267798 611.679474 
L 733.795728 611.942933 
L 735.323658 611.53694 
L 736.851588 611.861496 
L 742.963308 611.830519 
L 744.491238 611.76569 
L 747.547097 612.235621 
L 749.075027 611.909993 
L 750.602957 612.114988 
L 752.130887 612.151672 
L 756.714677 611.843774 
L 758.242607 612.317361 
L 759.770537 612.477154 
L 761.298467 612.016928 
L 762.826396 612.578391 
L 764.354326 612.340429 
L 765.882256 612.330219 
L 767.410186 612.601767 
L 768.938116 612.467354 
L 773.521906 612.50152 
L 775.049836 612.275004 
L 779.633625 612.846012 
L 781.161555 612.538986 
L 782.689485 612.371551 
L 784.217415 613.117467 
L 785.745345 612.788119 
L 788.801205 612.578847 
L 790.329135 612.763335 
L 791.857065 613.227054 
L 793.384995 612.801932 
L 794.912924 612.893876 
L 796.440854 613.299608 
L 799.496714 612.660502 
L 801.024644 612.969925 
L 802.552574 613.041593 
L 804.080504 612.873307 
L 805.608434 613.344011 
L 807.136364 613.413017 
L 810.192223 613.193628 
L 811.720153 613.476274 
L 814.776013 613.28204 
L 816.303943 613.681331 
L 817.831873 613.372644 
L 819.359803 613.603064 
L 820.887733 613.264616 
L 825.471522 613.317017 
L 826.999452 613.757207 
L 828.527382 613.331815 
L 830.055312 613.728053 
L 831.583242 613.799545 
L 833.111172 613.670059 
L 834.639102 613.825113 
L 836.167032 613.434625 
L 837.694962 614.030141 
L 839.222892 613.740681 
L 840.750821 613.986039 
L 842.278751 613.549351 
L 845.334611 613.999963 
L 846.862541 614.06002 
L 848.390471 613.767453 
L 849.918401 614.03505 
L 851.446331 614.079252 
L 852.974261 613.900752 
L 854.502191 614.180864 
L 856.03012 614.342435 
L 857.55805 613.898916 
L 859.08598 614.293752 
L 860.61391 614.203982 
L 862.14184 614.328858 
L 863.66977 614.249428 
L 865.1977 614.00942 
L 866.72563 614.329619 
L 868.25356 614.509045 
L 871.309419 614.382492 
L 872.837349 614.057753 
L 874.365279 613.888788 
L 875.893209 614.572754 
L 877.421139 614.918485 
L 878.949069 614.45879 
L 880.476999 614.192779 
L 886.588719 614.717522 
L 888.116648 614.509249 
L 889.644578 614.534185 
L 891.172508 614.293092 
L 895.756298 614.901561 
L 897.284228 614.754656 
L 898.812158 614.728165 
L 900.340088 614.999434 
L 901.868018 614.630033 
L 904.923877 614.919359 
L 906.451807 614.702187 
L 907.979737 615.171827 
L 909.507667 614.846403 
L 911.035597 615.182131 
L 912.563527 614.895264 
L 914.091457 615.003312 
L 915.619387 614.824927 
L 917.147317 615.095431 
L 918.675246 615.6 
L 920.203176 615.059387 
L 921.731106 615.444302 
L 924.786966 615.23093 
L 926.314896 615.270397 
L 927.842826 615.497306 
L 929.370756 615.353296 
L 930.898686 615.523466 
L 932.426616 615.312328 
L 933.954545 615.290481 
L 933.954545 615.290481 
" clip-path="url(#p78a9bd9dc4)" style="fill: none; stroke: #1e90ff; stroke-width: 1.5; stroke-linecap: square"/>
   </g>
   <g id="line2d_15">
    <path d="M 173.045455 111.6 
L 174.573384 164.991731 
L 176.101314 203.757134 
L 177.629244 226.485919 
L 179.157174 244.791974 
L 180.685104 272.196812 
L 182.213034 284.939485 
L 183.740964 290.09032 
L 185.268894 291.820675 
L 186.796824 301.429813 
L 188.324754 306.725294 
L 189.852683 315.518812 
L 191.380613 316.671201 
L 192.908543 316.259135 
L 194.436473 321.636131 
L 195.964403 313.66908 
L 197.492333 323.562574 
L 199.020263 304.109801 
L 200.548193 319.346006 
L 202.076123 319.618734 
L 203.604053 319.091038 
L 205.131982 320.331284 
L 206.659912 320.977504 
L 208.187842 321.356514 
L 209.715772 323.665918 
L 211.243702 316.135347 
L 212.771632 316.405945 
L 214.299562 319.580448 
L 215.827492 320.177751 
L 217.355422 317.069345 
L 218.883352 321.053631 
L 220.411281 317.160859 
L 221.939211 315.664635 
L 223.467141 320.557835 
L 224.995071 320.575728 
L 226.523001 322.804534 
L 228.050931 320.150617 
L 229.578861 305.507452 
L 231.106791 318.09262 
L 232.634721 321.797518 
L 234.162651 317.012887 
L 235.690581 316.588543 
L 237.21851 308.110483 
L 238.74644 315.543473 
L 240.27437 316.113418 
L 241.8023 314.018835 
L 243.33023 311.400646 
L 244.85816 315.254346 
L 246.38609 324.219899 
L 247.91402 322.649882 
L 249.44195 322.162846 
L 250.96988 323.930835 
L 252.497809 322.264185 
L 254.025739 321.421018 
L 255.553669 321.777854 
L 257.081599 322.314328 
L 258.609529 322.549083 
L 260.137459 320.100823 
L 261.665389 320.794133 
L 263.193319 321.113348 
L 264.721249 319.647144 
L 266.249179 319.614478 
L 267.777108 319.454239 
L 269.305038 318.335961 
L 270.832968 318.767346 
L 272.360898 318.427919 
L 273.888828 318.61639 
L 275.416758 317.944463 
L 276.944688 318.500076 
L 278.472618 317.068599 
L 280.000548 316.494613 
L 281.528478 316.707886 
L 283.056407 317.905536 
L 284.584337 316.436772 
L 286.112267 316.200997 
L 287.640197 316.892871 
L 289.168127 317.833689 
L 290.696057 317.072683 
L 292.223987 316.49414 
L 293.751917 314.704234 
L 295.279847 314.870241 
L 296.807777 317.035936 
L 298.335706 315.963855 
L 299.863636 313.209726 
L 301.391566 316.063407 
L 302.919496 315.306721 
L 304.447426 315.415072 
L 305.975356 313.120263 
L 307.503286 313.77046 
L 309.031216 312.820999 
L 310.559146 315.246013 
L 312.087076 314.063103 
L 313.615005 313.783282 
L 315.142935 313.00173 
L 316.670865 313.116673 
L 318.198795 312.74209 
L 319.726725 313.63608 
L 321.254655 312.279653 
L 322.782585 312.036121 
L 324.310515 311.221851 
L 327.366375 311.87718 
L 330.422234 311.852961 
L 331.950164 311.418936 
L 333.478094 312.361162 
L 335.006024 312.473647 
L 336.533954 312.380677 
L 338.061884 312.510462 
L 339.589814 311.039637 
L 341.117744 310.984498 
L 342.645674 310.237461 
L 347.229463 311.075313 
L 348.757393 310.483846 
L 350.285323 309.343103 
L 351.813253 310.085645 
L 353.341183 309.3394 
L 354.869113 310.253465 
L 356.397043 309.013906 
L 357.924973 310.653304 
L 360.980832 309.282159 
L 362.508762 306.963741 
L 364.036692 309.714281 
L 365.564622 309.95067 
L 367.092552 308.01819 
L 368.620482 309.232454 
L 370.148412 308.298901 
L 371.676342 305.876007 
L 373.204272 309.68149 
L 374.732202 306.647556 
L 376.260131 309.349483 
L 377.788061 308.234301 
L 379.315991 309.059431 
L 380.843921 305.550967 
L 382.371851 309.05547 
L 383.899781 307.773504 
L 385.427711 307.13665 
L 386.955641 307.820198 
L 388.483571 305.896549 
L 390.011501 307.468687 
L 391.53943 306.134384 
L 393.06736 306.836628 
L 394.59529 305.472636 
L 396.12322 306.741007 
L 397.65115 306.620645 
L 399.17908 306.322168 
L 400.70701 305.472975 
L 403.76287 306.015136 
L 405.2908 305.138996 
L 406.818729 306.165564 
L 408.346659 305.887179 
L 411.402519 306.32429 
L 412.930449 305.671071 
L 414.458379 304.52967 
L 415.986309 304.446424 
L 417.514239 305.555154 
L 419.042169 304.913172 
L 420.570099 305.847036 
L 422.098028 305.752027 
L 423.625958 305.077634 
L 425.153888 304.601223 
L 426.681818 304.766342 
L 428.209748 302.424359 
L 429.737678 303.393826 
L 431.265608 303.63807 
L 432.793538 305.411327 
L 434.321468 304.01711 
L 435.849398 302.137924 
L 437.377327 304.22801 
L 438.905257 304.056202 
L 440.433187 304.298837 
L 441.961117 303.234884 
L 443.489047 301.405701 
L 446.544907 304.055438 
L 448.072837 303.622494 
L 449.600767 304.585013 
L 451.128697 301.323965 
L 452.656627 302.366881 
L 454.184556 301.504689 
L 455.712486 301.782614 
L 457.240416 303.436689 
L 458.768346 303.099925 
L 460.296276 302.057878 
L 461.824206 297.990537 
L 463.352136 302.293379 
L 464.880066 303.000342 
L 466.407996 302.521272 
L 467.935926 302.309799 
L 469.463855 302.523874 
L 470.991785 302.366091 
L 472.519715 302.025731 
L 474.047645 301.937511 
L 475.575575 300.612878 
L 477.103505 301.676055 
L 478.631435 300.580832 
L 480.159365 301.297767 
L 481.687295 301.820011 
L 483.215225 299.804309 
L 484.743154 300.807272 
L 486.271084 300.248745 
L 487.799014 297.273024 
L 489.326944 300.078847 
L 490.854874 300.296771 
L 492.382804 299.356458 
L 493.910734 301.602318 
L 495.438664 297.897938 
L 496.966594 299.027721 
L 498.494524 300.428608 
L 500.022453 299.877306 
L 501.550383 300.401193 
L 503.078313 299.138451 
L 504.606243 298.130921 
L 506.134173 298.397733 
L 507.662103 300.222774 
L 509.190033 299.601125 
L 510.717963 298.358088 
L 512.245893 299.59671 
L 513.773823 299.183809 
L 515.301752 298.14789 
L 516.829682 295.026583 
L 518.357612 299.346488 
L 519.885542 298.839922 
L 521.413472 298.059294 
L 522.941402 296.852375 
L 524.469332 298.22922 
L 525.997262 298.579113 
L 527.525192 298.492702 
L 530.581051 299.523618 
L 532.108981 296.458863 
L 533.636911 296.450834 
L 536.692771 298.653721 
L 538.220701 297.367002 
L 539.748631 298.468919 
L 542.804491 297.270674 
L 544.332421 297.895644 
L 545.86035 296.886602 
L 547.38828 298.521858 
L 548.91621 296.693068 
L 550.44414 297.607755 
L 553.5 296.636752 
L 555.02793 295.229651 
L 556.55586 297.456465 
L 558.08379 295.448346 
L 559.61172 294.626751 
L 561.13965 296.671765 
L 562.667579 297.266917 
L 564.195509 294.940651 
L 565.723439 296.720467 
L 567.251369 296.517293 
L 568.779299 296.947169 
L 570.307229 295.840453 
L 571.835159 295.513995 
L 573.363089 295.325557 
L 574.891019 296.213565 
L 576.418949 296.653076 
L 577.946878 296.352813 
L 581.002738 295.390282 
L 582.530668 295.715722 
L 584.058598 295.174687 
L 585.586528 294.437937 
L 587.114458 297.09739 
L 588.642388 295.441215 
L 590.170318 292.905733 
L 591.698248 295.384588 
L 593.226177 293.028243 
L 594.754107 295.726593 
L 596.282037 295.535043 
L 597.809967 294.450317 
L 599.337897 295.140012 
L 600.865827 293.417647 
L 603.921687 294.354232 
L 605.449617 295.29797 
L 606.977547 294.818849 
L 608.505476 292.727547 
L 610.033406 294.028976 
L 611.561336 294.610334 
L 613.089266 294.75139 
L 614.617196 294.572557 
L 616.145126 294.174606 
L 617.673056 294.793235 
L 619.200986 294.544193 
L 620.728916 293.604164 
L 622.256846 293.711697 
L 623.784775 295.109642 
L 625.312705 293.267476 
L 626.840635 292.465357 
L 628.368565 294.115376 
L 629.896495 293.011439 
L 631.424425 293.068116 
L 632.952355 292.714129 
L 634.480285 293.383895 
L 636.008215 292.89022 
L 637.536145 291.78874 
L 639.064074 292.424869 
L 640.592004 293.442171 
L 642.119934 292.648472 
L 643.647864 291.088369 
L 645.175794 293.620677 
L 646.703724 292.525903 
L 648.231654 292.367788 
L 649.759584 290.370947 
L 651.287514 291.982353 
L 652.815444 292.02131 
L 654.343373 292.237144 
L 655.871303 291.830234 
L 657.399233 292.888352 
L 658.927163 293.260872 
L 661.983023 292.219249 
L 663.510953 293.449845 
L 665.038883 292.324431 
L 666.566813 291.757717 
L 668.094743 292.337044 
L 669.622673 290.159971 
L 671.150602 291.817657 
L 672.678532 292.08363 
L 674.206462 292.598334 
L 675.734392 290.907583 
L 677.262322 290.506547 
L 678.790252 292.310048 
L 680.318182 290.523933 
L 683.374042 290.953108 
L 684.901972 290.84328 
L 686.429901 289.566689 
L 687.957831 290.576403 
L 689.485761 289.592773 
L 691.013691 292.249058 
L 694.069551 288.691563 
L 695.597481 290.169991 
L 697.125411 290.971239 
L 698.653341 290.269197 
L 700.181271 288.450628 
L 701.7092 289.59314 
L 703.23713 288.080454 
L 704.76506 290.257368 
L 706.29299 287.36744 
L 707.82092 287.278457 
L 709.34885 290.30601 
L 710.87678 289.474986 
L 712.40471 289.16906 
L 713.93264 287.498686 
L 715.46057 288.718969 
L 716.988499 288.006775 
L 720.044359 289.791493 
L 721.572289 289.183632 
L 723.100219 288.934061 
L 724.628149 289.578486 
L 726.156079 288.650225 
L 727.684009 289.482288 
L 729.211939 289.090978 
L 730.739869 288.350806 
L 732.267798 287.404971 
L 733.795728 288.521324 
L 735.323658 288.853778 
L 736.851588 289.382279 
L 738.379518 288.605304 
L 739.907448 288.979259 
L 741.435378 288.665829 
L 742.963308 288.738971 
L 744.491238 287.693212 
L 746.019168 288.053299 
L 747.547097 287.067877 
L 749.075027 288.836564 
L 750.602957 285.892279 
L 752.130887 288.073003 
L 753.658817 288.300685 
L 755.186747 287.907707 
L 758.242607 287.439832 
L 759.770537 286.357072 
L 761.298467 287.503151 
L 762.826396 287.635588 
L 764.354326 286.507095 
L 765.882256 286.495085 
L 767.410186 287.838439 
L 768.938116 286.589086 
L 770.466046 286.756374 
L 771.993976 287.090654 
L 773.521906 287.81 
L 775.049836 287.133595 
L 776.577766 287.046908 
L 778.105696 284.717144 
L 779.633625 285.618559 
L 781.161555 286.226664 
L 782.689485 288.057713 
L 784.217415 288.667463 
L 785.745345 286.87682 
L 787.273275 285.852215 
L 788.801205 286.965518 
L 790.329135 286.792531 
L 791.857065 287.431969 
L 793.384995 284.690045 
L 794.912924 287.36526 
L 796.440854 285.442783 
L 797.968784 287.498858 
L 799.496714 286.955712 
L 801.024644 285.735715 
L 802.552574 286.541962 
L 804.080504 286.002964 
L 805.608434 284.903296 
L 807.136364 284.236111 
L 808.664294 285.948337 
L 810.192223 285.492432 
L 811.720153 286.394838 
L 813.248083 285.174943 
L 814.776013 287.126854 
L 816.303943 284.28046 
L 817.831873 285.34292 
L 819.359803 286.928176 
L 820.887733 286.221053 
L 822.415663 284.946235 
L 823.943593 285.320554 
L 825.471522 287.374329 
L 826.999452 285.988109 
L 828.527382 285.157643 
L 830.055312 283.554697 
L 831.583242 285.287372 
L 833.111172 283.979393 
L 834.639102 283.167842 
L 836.167032 283.831537 
L 837.694962 282.868361 
L 839.222892 284.393109 
L 840.750821 283.500996 
L 842.278751 285.09956 
L 843.806681 284.97629 
L 845.334611 285.857917 
L 846.862541 285.347698 
L 848.390471 284.458965 
L 849.918401 283.812433 
L 851.446331 285.358347 
L 852.974261 284.224188 
L 854.502191 284.87638 
L 856.03012 285.358341 
L 857.55805 282.07447 
L 859.08598 283.394166 
L 860.61391 282.627352 
L 862.14184 284.122784 
L 863.66977 284.885137 
L 865.1977 282.608983 
L 866.72563 284.071203 
L 868.25356 284.600298 
L 869.78149 284.162503 
L 871.309419 283.600769 
L 872.837349 283.527446 
L 874.365279 284.750204 
L 875.893209 283.237585 
L 877.421139 285.616021 
L 878.949069 284.848434 
L 882.004929 284.058268 
L 883.532859 284.154917 
L 885.060789 280.4583 
L 886.588719 281.975997 
L 888.116648 282.716947 
L 889.644578 284.027259 
L 891.172508 282.161513 
L 892.700438 283.145262 
L 894.228368 283.127168 
L 895.756298 282.33967 
L 897.284228 280.79917 
L 898.812158 284.000531 
L 900.340088 283.140979 
L 901.868018 282.013135 
L 903.395947 280.520822 
L 904.923877 283.059642 
L 906.451807 280.514764 
L 907.979737 281.97266 
L 909.507667 281.427608 
L 911.035597 282.820553 
L 914.091457 281.999665 
L 915.619387 283.301837 
L 917.147317 282.412352 
L 918.675246 281.25211 
L 920.203176 281.259518 
L 921.731106 282.510825 
L 923.259036 282.102553 
L 924.786966 283.091644 
L 926.314896 280.752425 
L 927.842826 281.521479 
L 929.370756 282.735704 
L 930.898686 282.254986 
L 932.426616 281.467513 
L 933.954545 279.983028 
L 933.954545 279.983028 
" clip-path="url(#p78a9bd9dc4)" style="fill: none; stroke: #ff0000; stroke-width: 1.5; stroke-linecap: square"/>
   </g>
   <g id="patch_3">
    <path d="M 135 640.8 
L 135 86.4 
" style="fill: none; stroke: #000000; stroke-width: 0.8; stroke-linejoin: miter; stroke-linecap: square"/>
   </g>
   <g id="patch_4">
    <path d="M 972 640.8 
L 972 86.4 
" style="fill: none; stroke: #000000; stroke-width: 0.8; stroke-linejoin: miter; stroke-linecap: square"/>
   </g>
   <g id="patch_5">
    <path d="M 135 640.8 
L 972 640.8 
" style="fill: none; stroke: #000000; stroke-width: 0.8; stroke-linejoin: miter; stroke-linecap: square"/>
   </g>
   <g id="patch_6">
    <path d="M 135 86.4 
L 972 86.4 
" style="fill: none; stroke: #000000; stroke-width: 0.8; stroke-linejoin: miter; stroke-linecap: square"/>
   </g>
   <g id="text_16">
    <!-- Loss per epoch -->
    <g transform="translate(485.676562 80.4) scale(0.18 -0.18)">
     <defs>
      <path id="DejaVuSans-4c" d="M 628 4666 
L 1259 4666 
L 1259 531 
L 3531 531 
L 3531 0 
L 628 0 
L 628 4666 
z
" transform="scale(0.015625)"/>
      <path id="DejaVuSans-20" transform="scale(0.015625)"/>
      <path id="DejaVuSans-72" d="M 2631 2963 
Q 2534 3019 2420 3045 
Q 2306 3072 2169 3072 
Q 1681 3072 1420 2755 
Q 1159 2438 1159 1844 
L 1159 0 
L 581 0 
L 581 3500 
L 1159 3500 
L 1159 2956 
Q 1341 3275 1631 3429 
Q 1922 3584 2338 3584 
Q 2397 3584 2469 3576 
Q 2541 3569 2628 3553 
L 2631 2963 
z
" transform="scale(0.015625)"/>
     </defs>
     <use xlink:href="#DejaVuSans-4c"/>
     <use xlink:href="#DejaVuSans-6f" x="53.962891"/>
     <use xlink:href="#DejaVuSans-73" x="115.144531"/>
     <use xlink:href="#DejaVuSans-73" x="167.244141"/>
     <use xlink:href="#DejaVuSans-20" x="219.34375"/>
     <use xlink:href="#DejaVuSans-70" x="251.130859"/>
     <use xlink:href="#DejaVuSans-65" x="314.607422"/>
     <use xlink:href="#DejaVuSans-72" x="376.130859"/>
     <use xlink:href="#DejaVuSans-20" x="417.244141"/>
     <use xlink:href="#DejaVuSans-65" x="449.03125"/>
     <use xlink:href="#DejaVuSans-70" x="510.554688"/>
     <use xlink:href="#DejaVuSans-6f" x="574.03125"/>
     <use xlink:href="#DejaVuSans-63" x="635.212891"/>
     <use xlink:href="#DejaVuSans-68" x="690.193359"/>
    </g>
   </g>
   <g id="legend_1">
    <g id="patch_7">
     <path d="M 772.425 153.64125 
L 959.4 153.64125 
Q 963 153.64125 963 150.04125 
L 963 99 
Q 963 95.4 959.4 95.4 
L 772.425 95.4 
Q 768.825 95.4 768.825 99 
L 768.825 150.04125 
Q 768.825 153.64125 772.425 153.64125 
z
" style="fill: #ffffff; opacity: 0.8; stroke: #cccccc; stroke-linejoin: miter"/>
    </g>
    <g id="line2d_16">
     <path d="M 776.025 109.977187 
L 794.025 109.977187 
L 812.025 109.977187 
" style="fill: none; stroke: #1e90ff; stroke-width: 1.5; stroke-linecap: square"/>
    </g>
    <g id="text_17">
     <!-- Training loss -->
     <g transform="translate(826.425 116.277187) scale(0.18 -0.18)">
      <defs>
       <path id="DejaVuSans-54" d="M -19 4666 
L 3928 4666 
L 3928 4134 
L 2272 4134 
L 2272 0 
L 1638 0 
L 1638 4134 
L -19 4134 
L -19 4666 
z
" transform="scale(0.015625)"/>
       <path id="DejaVuSans-61" d="M 2194 1759 
Q 1497 1759 1228 1600 
Q 959 1441 959 1056 
Q 959 750 1161 570 
Q 1363 391 1709 391 
Q 2188 391 2477 730 
Q 2766 1069 2766 1631 
L 2766 1759 
L 2194 1759 
z
M 3341 1997 
L 3341 0 
L 2766 0 
L 2766 531 
Q 2569 213 2275 61 
Q 1981 -91 1556 -91 
Q 1019 -91 701 211 
Q 384 513 384 1019 
Q 384 1609 779 1909 
Q 1175 2209 1959 2209 
L 2766 2209 
L 2766 2266 
Q 2766 2663 2505 2880 
Q 2244 3097 1772 3097 
Q 1472 3097 1187 3025 
Q 903 2953 641 2809 
L 641 3341 
Q 956 3463 1253 3523 
Q 1550 3584 1831 3584 
Q 2591 3584 2966 3190 
Q 3341 2797 3341 1997 
z
" transform="scale(0.015625)"/>
       <path id="DejaVuSans-69" d="M 603 3500 
L 1178 3500 
L 1178 0 
L 603 0 
L 603 3500 
z
M 603 4863 
L 1178 4863 
L 1178 4134 
L 603 4134 
L 603 4863 
z
" transform="scale(0.015625)"/>
       <path id="DejaVuSans-6e" d="M 3513 2113 
L 3513 0 
L 2938 0 
L 2938 2094 
Q 2938 2591 2744 2837 
Q 2550 3084 2163 3084 
Q 1697 3084 1428 2787 
Q 1159 2491 1159 1978 
L 1159 0 
L 581 0 
L 581 3500 
L 1159 3500 
L 1159 2956 
Q 1366 3272 1645 3428 
Q 1925 3584 2291 3584 
Q 2894 3584 3203 3211 
Q 3513 2838 3513 2113 
z
" transform="scale(0.015625)"/>
       <path id="DejaVuSans-67" d="M 2906 1791 
Q 2906 2416 2648 2759 
Q 2391 3103 1925 3103 
Q 1463 3103 1205 2759 
Q 947 2416 947 1791 
Q 947 1169 1205 825 
Q 1463 481 1925 481 
Q 2391 481 2648 825 
Q 2906 1169 2906 1791 
z
M 3481 434 
Q 3481 -459 3084 -895 
Q 2688 -1331 1869 -1331 
Q 1566 -1331 1297 -1286 
Q 1028 -1241 775 -1147 
L 775 -588 
Q 1028 -725 1275 -790 
Q 1522 -856 1778 -856 
Q 2344 -856 2625 -561 
Q 2906 -266 2906 331 
L 2906 616 
Q 2728 306 2450 153 
Q 2172 0 1784 0 
Q 1141 0 747 490 
Q 353 981 353 1791 
Q 353 2603 747 3093 
Q 1141 3584 1784 3584 
Q 2172 3584 2450 3431 
Q 2728 3278 2906 2969 
L 2906 3500 
L 3481 3500 
L 3481 434 
z
" transform="scale(0.015625)"/>
      </defs>
      <use xlink:href="#DejaVuSans-54"/>
      <use xlink:href="#DejaVuSans-72" x="46.333984"/>
      <use xlink:href="#DejaVuSans-61" x="87.447266"/>
      <use xlink:href="#DejaVuSans-69" x="148.726562"/>
      <use xlink:href="#DejaVuSans-6e" x="176.509766"/>
      <use xlink:href="#DejaVuSans-69" x="239.888672"/>
      <use xlink:href="#DejaVuSans-6e" x="267.671875"/>
      <use xlink:href="#DejaVuSans-67" x="331.050781"/>
      <use xlink:href="#DejaVuSans-20" x="394.527344"/>
      <use xlink:href="#DejaVuSans-6c" x="426.314453"/>
      <use xlink:href="#DejaVuSans-6f" x="454.097656"/>
      <use xlink:href="#DejaVuSans-73" x="515.279297"/>
      <use xlink:href="#DejaVuSans-73" x="567.378906"/>
     </g>
    </g>
    <g id="line2d_17">
     <path d="M 776.025 136.397812 
L 794.025 136.397812 
L 812.025 136.397812 
" style="fill: none; stroke: #ff0000; stroke-width: 1.5; stroke-linecap: square"/>
    </g>
    <g id="text_18">
     <!-- Validation loss -->
     <g transform="translate(826.425 142.697812) scale(0.18 -0.18)">
      <defs>
       <path id="DejaVuSans-56" d="M 1831 0 
L 50 4666 
L 709 4666 
L 2188 738 
L 3669 4666 
L 4325 4666 
L 2547 0 
L 1831 0 
z
" transform="scale(0.015625)"/>
       <path id="DejaVuSans-64" d="M 2906 2969 
L 2906 4863 
L 3481 4863 
L 3481 0 
L 2906 0 
L 2906 525 
Q 2725 213 2448 61 
Q 2172 -91 1784 -91 
Q 1150 -91 751 415 
Q 353 922 353 1747 
Q 353 2572 751 3078 
Q 1150 3584 1784 3584 
Q 2172 3584 2448 3432 
Q 2725 3281 2906 2969 
z
M 947 1747 
Q 947 1113 1208 752 
Q 1469 391 1925 391 
Q 2381 391 2643 752 
Q 2906 1113 2906 1747 
Q 2906 2381 2643 2742 
Q 2381 3103 1925 3103 
Q 1469 3103 1208 2742 
Q 947 2381 947 1747 
z
" transform="scale(0.015625)"/>
       <path id="DejaVuSans-74" d="M 1172 4494 
L 1172 3500 
L 2356 3500 
L 2356 3053 
L 1172 3053 
L 1172 1153 
Q 1172 725 1289 603 
Q 1406 481 1766 481 
L 2356 481 
L 2356 0 
L 1766 0 
Q 1100 0 847 248 
Q 594 497 594 1153 
L 594 3053 
L 172 3053 
L 172 3500 
L 594 3500 
L 594 4494 
L 1172 4494 
z
" transform="scale(0.015625)"/>
      </defs>
      <use xlink:href="#DejaVuSans-56"/>
      <use xlink:href="#DejaVuSans-61" x="60.658203"/>
      <use xlink:href="#DejaVuSans-6c" x="121.9375"/>
      <use xlink:href="#DejaVuSans-69" x="149.720703"/>
      <use xlink:href="#DejaVuSans-64" x="177.503906"/>
      <use xlink:href="#DejaVuSans-61" x="240.980469"/>
      <use xlink:href="#DejaVuSans-74" x="302.259766"/>
      <use xlink:href="#DejaVuSans-69" x="341.46875"/>
      <use xlink:href="#DejaVuSans-6f" x="369.251953"/>
      <use xlink:href="#DejaVuSans-6e" x="430.433594"/>
      <use xlink:href="#DejaVuSans-20" x="493.8125"/>
      <use xlink:href="#DejaVuSans-6c" x="525.599609"/>
      <use xlink:href="#DejaVuSans-6f" x="553.382812"/>
      <use xlink:href="#DejaVuSans-73" x="614.564453"/>
      <use xlink:href="#DejaVuSans-73" x="666.664062"/>
     </g>
    </g>
   </g>
  </g>
 </g>
 <defs>
  <clipPath id="p78a9bd9dc4">
   <rect x="135" y="86.4" width="837" height="554.4"/>
  </clipPath>
 </defs>
</svg>
