<?xml version="1.0" encoding="utf-8" standalone="no"?>
<!DOCTYPE svg PUBLIC "-//W3C//DTD SVG 1.1//EN"
  "http://www.w3.org/Graphics/SVG/1.1/DTD/svg11.dtd">
<svg xmlns:xlink="http://www.w3.org/1999/xlink" width="1080pt" height="720pt" viewBox="0 0 1080 720" xmlns="http://www.w3.org/2000/svg" version="1.1">
 <metadata>
  <rdf:RDF xmlns:dc="http://purl.org/dc/elements/1.1/" xmlns:cc="http://creativecommons.org/ns#" xmlns:rdf="http://www.w3.org/1999/02/22-rdf-syntax-ns#">
   <cc:Work>
    <dc:type rdf:resource="http://purl.org/dc/dcmitype/StillImage"/>
    <dc:date>2024-01-11T22:41:25.855409</dc:date>
    <dc:format>image/svg+xml</dc:format>
    <dc:creator>
     <cc:Agent>
      <dc:title>Matplotlib v3.7.4, https://matplotlib.org/</dc:title>
     </cc:Agent>
    </dc:creator>
   </cc:Work>
  </rdf:RDF>
 </metadata>
 <defs>
  <style type="text/css">*{stroke-linejoin: round; stroke-linecap: butt}</style>
 </defs>
 <g id="figure_1">
  <g id="patch_1">
   <path d="M 0 720 
L 1080 720 
L 1080 0 
L 0 0 
z
" style="fill: #ffffff"/>
  </g>
  <g id="axes_1">
   <g id="patch_2">
    <path d="M 135 640.8 
L 972 640.8 
L 972 86.4 
L 135 86.4 
z
" style="fill: #ffffff"/>
   </g>
   <g id="matplotlib.axis_1">
    <g id="xtick_1">
     <g id="line2d_1">
      <defs>
       <path id="m3e1488d926" d="M 0 0 
L 0 3.5 
" style="stroke: #000000; stroke-width: 0.8"/>
      </defs>
      <g>
       <use xlink:href="#m3e1488d926" x="173.045455" y="640.8" style="stroke: #000000; stroke-width: 0.8"/>
      </g>
     </g>
     <g id="text_1">
      <!-- 0 -->
      <g transform="translate(169.864205 655.398438) scale(0.1 -0.1)">
       <defs>
        <path id="DejaVuSans-30" d="M 2034 4250 
Q 1547 4250 1301 3770 
Q 1056 3291 1056 2328 
Q 1056 1369 1301 889 
Q 1547 409 2034 409 
Q 2525 409 2770 889 
Q 3016 1369 3016 2328 
Q 3016 3291 2770 3770 
Q 2525 4250 2034 4250 
z
M 2034 4750 
Q 2819 4750 3233 4129 
Q 3647 3509 3647 2328 
Q 3647 1150 3233 529 
Q 2819 -91 2034 -91 
Q 1250 -91 836 529 
Q 422 1150 422 2328 
Q 422 3509 836 4129 
Q 1250 4750 2034 4750 
z
" transform="scale(0.015625)"/>
       </defs>
       <use xlink:href="#DejaVuSans-30"/>
      </g>
     </g>
    </g>
    <g id="xtick_2">
     <g id="line2d_2">
      <g>
       <use xlink:href="#m3e1488d926" x="325.838445" y="640.8" style="stroke: #000000; stroke-width: 0.8"/>
      </g>
     </g>
     <g id="text_2">
      <!-- 100 -->
      <g transform="translate(316.294695 655.398438) scale(0.1 -0.1)">
       <defs>
        <path id="DejaVuSans-31" d="M 794 531 
L 1825 531 
L 1825 4091 
L 703 3866 
L 703 4441 
L 1819 4666 
L 2450 4666 
L 2450 531 
L 3481 531 
L 3481 0 
L 794 0 
L 794 531 
z
" transform="scale(0.015625)"/>
       </defs>
       <use xlink:href="#DejaVuSans-31"/>
       <use xlink:href="#DejaVuSans-30" x="63.623047"/>
       <use xlink:href="#DejaVuSans-30" x="127.246094"/>
      </g>
     </g>
    </g>
    <g id="xtick_3">
     <g id="line2d_3">
      <g>
       <use xlink:href="#m3e1488d926" x="478.631435" y="640.8" style="stroke: #000000; stroke-width: 0.8"/>
      </g>
     </g>
     <g id="text_3">
      <!-- 200 -->
      <g transform="translate(469.087685 655.398438) scale(0.1 -0.1)">
       <defs>
        <path id="DejaVuSans-32" d="M 1228 531 
L 3431 531 
L 3431 0 
L 469 0 
L 469 531 
Q 828 903 1448 1529 
Q 2069 2156 2228 2338 
Q 2531 2678 2651 2914 
Q 2772 3150 2772 3378 
Q 2772 3750 2511 3984 
Q 2250 4219 1831 4219 
Q 1534 4219 1204 4116 
Q 875 4013 500 3803 
L 500 4441 
Q 881 4594 1212 4672 
Q 1544 4750 1819 4750 
Q 2544 4750 2975 4387 
Q 3406 4025 3406 3419 
Q 3406 3131 3298 2873 
Q 3191 2616 2906 2266 
Q 2828 2175 2409 1742 
Q 1991 1309 1228 531 
z
" transform="scale(0.015625)"/>
       </defs>
       <use xlink:href="#DejaVuSans-32"/>
       <use xlink:href="#DejaVuSans-30" x="63.623047"/>
       <use xlink:href="#DejaVuSans-30" x="127.246094"/>
      </g>
     </g>
    </g>
    <g id="xtick_4">
     <g id="line2d_4">
      <g>
       <use xlink:href="#m3e1488d926" x="631.424425" y="640.8" style="stroke: #000000; stroke-width: 0.8"/>
      </g>
     </g>
     <g id="text_4">
      <!-- 300 -->
      <g transform="translate(621.880675 655.398438) scale(0.1 -0.1)">
       <defs>
        <path id="DejaVuSans-33" d="M 2597 2516 
Q 3050 2419 3304 2112 
Q 3559 1806 3559 1356 
Q 3559 666 3084 287 
Q 2609 -91 1734 -91 
Q 1441 -91 1130 -33 
Q 819 25 488 141 
L 488 750 
Q 750 597 1062 519 
Q 1375 441 1716 441 
Q 2309 441 2620 675 
Q 2931 909 2931 1356 
Q 2931 1769 2642 2001 
Q 2353 2234 1838 2234 
L 1294 2234 
L 1294 2753 
L 1863 2753 
Q 2328 2753 2575 2939 
Q 2822 3125 2822 3475 
Q 2822 3834 2567 4026 
Q 2313 4219 1838 4219 
Q 1578 4219 1281 4162 
Q 984 4106 628 3988 
L 628 4550 
Q 988 4650 1302 4700 
Q 1616 4750 1894 4750 
Q 2613 4750 3031 4423 
Q 3450 4097 3450 3541 
Q 3450 3153 3228 2886 
Q 3006 2619 2597 2516 
z
" transform="scale(0.015625)"/>
       </defs>
       <use xlink:href="#DejaVuSans-33"/>
       <use xlink:href="#DejaVuSans-30" x="63.623047"/>
       <use xlink:href="#DejaVuSans-30" x="127.246094"/>
      </g>
     </g>
    </g>
    <g id="xtick_5">
     <g id="line2d_5">
      <g>
       <use xlink:href="#m3e1488d926" x="784.217415" y="640.8" style="stroke: #000000; stroke-width: 0.8"/>
      </g>
     </g>
     <g id="text_5">
      <!-- 400 -->
      <g transform="translate(774.673665 655.398438) scale(0.1 -0.1)">
       <defs>
        <path id="DejaVuSans-34" d="M 2419 4116 
L 825 1625 
L 2419 1625 
L 2419 4116 
z
M 2253 4666 
L 3047 4666 
L 3047 1625 
L 3713 1625 
L 3713 1100 
L 3047 1100 
L 3047 0 
L 2419 0 
L 2419 1100 
L 313 1100 
L 313 1709 
L 2253 4666 
z
" transform="scale(0.015625)"/>
       </defs>
       <use xlink:href="#DejaVuSans-34"/>
       <use xlink:href="#DejaVuSans-30" x="63.623047"/>
       <use xlink:href="#DejaVuSans-30" x="127.246094"/>
      </g>
     </g>
    </g>
    <g id="xtick_6">
     <g id="line2d_6">
      <g>
       <use xlink:href="#m3e1488d926" x="937.010405" y="640.8" style="stroke: #000000; stroke-width: 0.8"/>
      </g>
     </g>
     <g id="text_6">
      <!-- 500 -->
      <g transform="translate(927.466655 655.398438) scale(0.1 -0.1)">
       <defs>
        <path id="DejaVuSans-35" d="M 691 4666 
L 3169 4666 
L 3169 4134 
L 1269 4134 
L 1269 2991 
Q 1406 3038 1543 3061 
Q 1681 3084 1819 3084 
Q 2600 3084 3056 2656 
Q 3513 2228 3513 1497 
Q 3513 744 3044 326 
Q 2575 -91 1722 -91 
Q 1428 -91 1123 -41 
Q 819 9 494 109 
L 494 744 
Q 775 591 1075 516 
Q 1375 441 1709 441 
Q 2250 441 2565 725 
Q 2881 1009 2881 1497 
Q 2881 1984 2565 2268 
Q 2250 2553 1709 2553 
Q 1456 2553 1204 2497 
Q 953 2441 691 2322 
L 691 4666 
z
" transform="scale(0.015625)"/>
       </defs>
       <use xlink:href="#DejaVuSans-35"/>
       <use xlink:href="#DejaVuSans-30" x="63.623047"/>
       <use xlink:href="#DejaVuSans-30" x="127.246094"/>
      </g>
     </g>
    </g>
    <g id="text_7">
     <!-- epoch -->
     <g transform="translate(526.089375 675.155313) scale(0.18 -0.18)">
      <defs>
       <path id="DejaVuSans-65" d="M 3597 1894 
L 3597 1613 
L 953 1613 
Q 991 1019 1311 708 
Q 1631 397 2203 397 
Q 2534 397 2845 478 
Q 3156 559 3463 722 
L 3463 178 
Q 3153 47 2828 -22 
Q 2503 -91 2169 -91 
Q 1331 -91 842 396 
Q 353 884 353 1716 
Q 353 2575 817 3079 
Q 1281 3584 2069 3584 
Q 2775 3584 3186 3129 
Q 3597 2675 3597 1894 
z
M 3022 2063 
Q 3016 2534 2758 2815 
Q 2500 3097 2075 3097 
Q 1594 3097 1305 2825 
Q 1016 2553 972 2059 
L 3022 2063 
z
" transform="scale(0.015625)"/>
       <path id="DejaVuSans-70" d="M 1159 525 
L 1159 -1331 
L 581 -1331 
L 581 3500 
L 1159 3500 
L 1159 2969 
Q 1341 3281 1617 3432 
Q 1894 3584 2278 3584 
Q 2916 3584 3314 3078 
Q 3713 2572 3713 1747 
Q 3713 922 3314 415 
Q 2916 -91 2278 -91 
Q 1894 -91 1617 61 
Q 1341 213 1159 525 
z
M 3116 1747 
Q 3116 2381 2855 2742 
Q 2594 3103 2138 3103 
Q 1681 3103 1420 2742 
Q 1159 2381 1159 1747 
Q 1159 1113 1420 752 
Q 1681 391 2138 391 
Q 2594 391 2855 752 
Q 3116 1113 3116 1747 
z
" transform="scale(0.015625)"/>
       <path id="DejaVuSans-6f" d="M 1959 3097 
Q 1497 3097 1228 2736 
Q 959 2375 959 1747 
Q 959 1119 1226 758 
Q 1494 397 1959 397 
Q 2419 397 2687 759 
Q 2956 1122 2956 1747 
Q 2956 2369 2687 2733 
Q 2419 3097 1959 3097 
z
M 1959 3584 
Q 2709 3584 3137 3096 
Q 3566 2609 3566 1747 
Q 3566 888 3137 398 
Q 2709 -91 1959 -91 
Q 1206 -91 779 398 
Q 353 888 353 1747 
Q 353 2609 779 3096 
Q 1206 3584 1959 3584 
z
" transform="scale(0.015625)"/>
       <path id="DejaVuSans-63" d="M 3122 3366 
L 3122 2828 
Q 2878 2963 2633 3030 
Q 2388 3097 2138 3097 
Q 1578 3097 1268 2742 
Q 959 2388 959 1747 
Q 959 1106 1268 751 
Q 1578 397 2138 397 
Q 2388 397 2633 464 
Q 2878 531 3122 666 
L 3122 134 
Q 2881 22 2623 -34 
Q 2366 -91 2075 -91 
Q 1284 -91 818 406 
Q 353 903 353 1747 
Q 353 2603 823 3093 
Q 1294 3584 2113 3584 
Q 2378 3584 2631 3529 
Q 2884 3475 3122 3366 
z
" transform="scale(0.015625)"/>
       <path id="DejaVuSans-68" d="M 3513 2113 
L 3513 0 
L 2938 0 
L 2938 2094 
Q 2938 2591 2744 2837 
Q 2550 3084 2163 3084 
Q 1697 3084 1428 2787 
Q 1159 2491 1159 1978 
L 1159 0 
L 581 0 
L 581 4863 
L 1159 4863 
L 1159 2956 
Q 1366 3272 1645 3428 
Q 1925 3584 2291 3584 
Q 2894 3584 3203 3211 
Q 3513 2838 3513 2113 
z
" transform="scale(0.015625)"/>
      </defs>
      <use xlink:href="#DejaVuSans-65"/>
      <use xlink:href="#DejaVuSans-70" x="61.523438"/>
      <use xlink:href="#DejaVuSans-6f" x="125"/>
      <use xlink:href="#DejaVuSans-63" x="186.181641"/>
      <use xlink:href="#DejaVuSans-68" x="241.162109"/>
     </g>
    </g>
   </g>
   <g id="matplotlib.axis_2">
    <g id="ytick_1">
     <g id="line2d_7">
      <defs>
       <path id="m84a0773cf2" d="M 0 0 
L -3.5 0 
" style="stroke: #000000; stroke-width: 0.8"/>
      </defs>
      <g>
       <use xlink:href="#m84a0773cf2" x="135" y="571.036405" style="stroke: #000000; stroke-width: 0.8"/>
      </g>
     </g>
     <g id="text_8">
      <!-- 1200 -->
      <g transform="translate(102.55 574.835624) scale(0.1 -0.1)">
       <use xlink:href="#DejaVuSans-31"/>
       <use xlink:href="#DejaVuSans-32" x="63.623047"/>
       <use xlink:href="#DejaVuSans-30" x="127.246094"/>
       <use xlink:href="#DejaVuSans-30" x="190.869141"/>
      </g>
     </g>
    </g>
    <g id="ytick_2">
     <g id="line2d_8">
      <g>
       <use xlink:href="#m84a0773cf2" x="135" y="482.121268" style="stroke: #000000; stroke-width: 0.8"/>
      </g>
     </g>
     <g id="text_9">
      <!-- 1300 -->
      <g transform="translate(102.55 485.920487) scale(0.1 -0.1)">
       <use xlink:href="#DejaVuSans-31"/>
       <use xlink:href="#DejaVuSans-33" x="63.623047"/>
       <use xlink:href="#DejaVuSans-30" x="127.246094"/>
       <use xlink:href="#DejaVuSans-30" x="190.869141"/>
      </g>
     </g>
    </g>
    <g id="ytick_3">
     <g id="line2d_9">
      <g>
       <use xlink:href="#m84a0773cf2" x="135" y="393.206132" style="stroke: #000000; stroke-width: 0.8"/>
      </g>
     </g>
     <g id="text_10">
      <!-- 1400 -->
      <g transform="translate(102.55 397.005351) scale(0.1 -0.1)">
       <use xlink:href="#DejaVuSans-31"/>
       <use xlink:href="#DejaVuSans-34" x="63.623047"/>
       <use xlink:href="#DejaVuSans-30" x="127.246094"/>
       <use xlink:href="#DejaVuSans-30" x="190.869141"/>
      </g>
     </g>
    </g>
    <g id="ytick_4">
     <g id="line2d_10">
      <g>
       <use xlink:href="#m84a0773cf2" x="135" y="304.290995" style="stroke: #000000; stroke-width: 0.8"/>
      </g>
     </g>
     <g id="text_11">
      <!-- 1500 -->
      <g transform="translate(102.55 308.090214) scale(0.1 -0.1)">
       <use xlink:href="#DejaVuSans-31"/>
       <use xlink:href="#DejaVuSans-35" x="63.623047"/>
       <use xlink:href="#DejaVuSans-30" x="127.246094"/>
       <use xlink:href="#DejaVuSans-30" x="190.869141"/>
      </g>
     </g>
    </g>
    <g id="ytick_5">
     <g id="line2d_11">
      <g>
       <use xlink:href="#m84a0773cf2" x="135" y="215.375859" style="stroke: #000000; stroke-width: 0.8"/>
      </g>
     </g>
     <g id="text_12">
      <!-- 1600 -->
      <g transform="translate(102.55 219.175078) scale(0.1 -0.1)">
       <defs>
        <path id="DejaVuSans-36" d="M 2113 2584 
Q 1688 2584 1439 2293 
Q 1191 2003 1191 1497 
Q 1191 994 1439 701 
Q 1688 409 2113 409 
Q 2538 409 2786 701 
Q 3034 994 3034 1497 
Q 3034 2003 2786 2293 
Q 2538 2584 2113 2584 
z
M 3366 4563 
L 3366 3988 
Q 3128 4100 2886 4159 
Q 2644 4219 2406 4219 
Q 1781 4219 1451 3797 
Q 1122 3375 1075 2522 
Q 1259 2794 1537 2939 
Q 1816 3084 2150 3084 
Q 2853 3084 3261 2657 
Q 3669 2231 3669 1497 
Q 3669 778 3244 343 
Q 2819 -91 2113 -91 
Q 1303 -91 875 529 
Q 447 1150 447 2328 
Q 447 3434 972 4092 
Q 1497 4750 2381 4750 
Q 2619 4750 2861 4703 
Q 3103 4656 3366 4563 
z
" transform="scale(0.015625)"/>
       </defs>
       <use xlink:href="#DejaVuSans-31"/>
       <use xlink:href="#DejaVuSans-36" x="63.623047"/>
       <use xlink:href="#DejaVuSans-30" x="127.246094"/>
       <use xlink:href="#DejaVuSans-30" x="190.869141"/>
      </g>
     </g>
    </g>
    <g id="ytick_6">
     <g id="line2d_12">
      <g>
       <use xlink:href="#m84a0773cf2" x="135" y="126.460722" style="stroke: #000000; stroke-width: 0.8"/>
      </g>
     </g>
     <g id="text_13">
      <!-- 1700 -->
      <g transform="translate(102.55 130.259941) scale(0.1 -0.1)">
       <defs>
        <path id="DejaVuSans-37" d="M 525 4666 
L 3525 4666 
L 3525 4397 
L 1831 0 
L 1172 0 
L 2766 4134 
L 525 4134 
L 525 4666 
z
" transform="scale(0.015625)"/>
       </defs>
       <use xlink:href="#DejaVuSans-31"/>
       <use xlink:href="#DejaVuSans-37" x="63.623047"/>
       <use xlink:href="#DejaVuSans-30" x="127.246094"/>
       <use xlink:href="#DejaVuSans-30" x="190.869141"/>
      </g>
     </g>
    </g>
    <g id="text_14">
     <!-- Reconstruction score -->
     <g transform="translate(94.806562 457.993125) rotate(-90) scale(0.18 -0.18)">
      <defs>
       <path id="DejaVuSans-52" d="M 2841 2188 
Q 3044 2119 3236 1894 
Q 3428 1669 3622 1275 
L 4263 0 
L 3584 0 
L 2988 1197 
Q 2756 1666 2539 1819 
Q 2322 1972 1947 1972 
L 1259 1972 
L 1259 0 
L 628 0 
L 628 4666 
L 2053 4666 
Q 2853 4666 3247 4331 
Q 3641 3997 3641 3322 
Q 3641 2881 3436 2590 
Q 3231 2300 2841 2188 
z
M 1259 4147 
L 1259 2491 
L 2053 2491 
Q 2509 2491 2742 2702 
Q 2975 2913 2975 3322 
Q 2975 3731 2742 3939 
Q 2509 4147 2053 4147 
L 1259 4147 
z
" transform="scale(0.015625)"/>
       <path id="DejaVuSans-6e" d="M 3513 2113 
L 3513 0 
L 2938 0 
L 2938 2094 
Q 2938 2591 2744 2837 
Q 2550 3084 2163 3084 
Q 1697 3084 1428 2787 
Q 1159 2491 1159 1978 
L 1159 0 
L 581 0 
L 581 3500 
L 1159 3500 
L 1159 2956 
Q 1366 3272 1645 3428 
Q 1925 3584 2291 3584 
Q 2894 3584 3203 3211 
Q 3513 2838 3513 2113 
z
" transform="scale(0.015625)"/>
       <path id="DejaVuSans-73" d="M 2834 3397 
L 2834 2853 
Q 2591 2978 2328 3040 
Q 2066 3103 1784 3103 
Q 1356 3103 1142 2972 
Q 928 2841 928 2578 
Q 928 2378 1081 2264 
Q 1234 2150 1697 2047 
L 1894 2003 
Q 2506 1872 2764 1633 
Q 3022 1394 3022 966 
Q 3022 478 2636 193 
Q 2250 -91 1575 -91 
Q 1294 -91 989 -36 
Q 684 19 347 128 
L 347 722 
Q 666 556 975 473 
Q 1284 391 1588 391 
Q 1994 391 2212 530 
Q 2431 669 2431 922 
Q 2431 1156 2273 1281 
Q 2116 1406 1581 1522 
L 1381 1569 
Q 847 1681 609 1914 
Q 372 2147 372 2553 
Q 372 3047 722 3315 
Q 1072 3584 1716 3584 
Q 2034 3584 2315 3537 
Q 2597 3491 2834 3397 
z
" transform="scale(0.015625)"/>
       <path id="DejaVuSans-74" d="M 1172 4494 
L 1172 3500 
L 2356 3500 
L 2356 3053 
L 1172 3053 
L 1172 1153 
Q 1172 725 1289 603 
Q 1406 481 1766 481 
L 2356 481 
L 2356 0 
L 1766 0 
Q 1100 0 847 248 
Q 594 497 594 1153 
L 594 3053 
L 172 3053 
L 172 3500 
L 594 3500 
L 594 4494 
L 1172 4494 
z
" transform="scale(0.015625)"/>
       <path id="DejaVuSans-72" d="M 2631 2963 
Q 2534 3019 2420 3045 
Q 2306 3072 2169 3072 
Q 1681 3072 1420 2755 
Q 1159 2438 1159 1844 
L 1159 0 
L 581 0 
L 581 3500 
L 1159 3500 
L 1159 2956 
Q 1341 3275 1631 3429 
Q 1922 3584 2338 3584 
Q 2397 3584 2469 3576 
Q 2541 3569 2628 3553 
L 2631 2963 
z
" transform="scale(0.015625)"/>
       <path id="DejaVuSans-75" d="M 544 1381 
L 544 3500 
L 1119 3500 
L 1119 1403 
Q 1119 906 1312 657 
Q 1506 409 1894 409 
Q 2359 409 2629 706 
Q 2900 1003 2900 1516 
L 2900 3500 
L 3475 3500 
L 3475 0 
L 2900 0 
L 2900 538 
Q 2691 219 2414 64 
Q 2138 -91 1772 -91 
Q 1169 -91 856 284 
Q 544 659 544 1381 
z
M 1991 3584 
L 1991 3584 
z
" transform="scale(0.015625)"/>
       <path id="DejaVuSans-69" d="M 603 3500 
L 1178 3500 
L 1178 0 
L 603 0 
L 603 3500 
z
M 603 4863 
L 1178 4863 
L 1178 4134 
L 603 4134 
L 603 4863 
z
" transform="scale(0.015625)"/>
       <path id="DejaVuSans-20" transform="scale(0.015625)"/>
      </defs>
      <use xlink:href="#DejaVuSans-52"/>
      <use xlink:href="#DejaVuSans-65" x="64.982422"/>
      <use xlink:href="#DejaVuSans-63" x="126.505859"/>
      <use xlink:href="#DejaVuSans-6f" x="181.486328"/>
      <use xlink:href="#DejaVuSans-6e" x="242.667969"/>
      <use xlink:href="#DejaVuSans-73" x="306.046875"/>
      <use xlink:href="#DejaVuSans-74" x="358.146484"/>
      <use xlink:href="#DejaVuSans-72" x="397.355469"/>
      <use xlink:href="#DejaVuSans-75" x="438.46875"/>
      <use xlink:href="#DejaVuSans-63" x="501.847656"/>
      <use xlink:href="#DejaVuSans-74" x="556.828125"/>
      <use xlink:href="#DejaVuSans-69" x="596.037109"/>
      <use xlink:href="#DejaVuSans-6f" x="623.820312"/>
      <use xlink:href="#DejaVuSans-6e" x="685.001953"/>
      <use xlink:href="#DejaVuSans-20" x="748.380859"/>
      <use xlink:href="#DejaVuSans-73" x="780.167969"/>
      <use xlink:href="#DejaVuSans-63" x="832.267578"/>
      <use xlink:href="#DejaVuSans-6f" x="887.248047"/>
      <use xlink:href="#DejaVuSans-72" x="948.429688"/>
      <use xlink:href="#DejaVuSans-65" x="987.292969"/>
     </g>
    </g>
   </g>
   <g id="line2d_13">
    <path d="M 173.045455 131.30471 
L 174.573384 252.917804 
L 176.101314 341.215757 
L 177.629244 392.986283 
L 179.157174 434.682925 
L 180.685104 497.104336 
L 182.213034 526.128979 
L 183.740964 537.8613 
L 185.268894 541.802619 
L 186.796824 563.689846 
L 188.324754 575.751638 
L 189.852683 595.781085 
L 191.380613 598.405941 
L 192.908543 597.467358 
L 194.436473 609.714817 
L 195.964403 591.567855 
L 197.492333 614.102777 
L 199.020263 569.794193 
L 200.548193 604.498483 
L 202.076123 605.119688 
L 203.604053 603.917729 
L 205.131982 606.7427 
L 206.659912 608.21463 
L 208.187842 609.077919 
L 209.715772 614.338168 
L 211.243702 597.185399 
L 212.771632 597.801754 
L 214.299562 605.032483 
L 215.827492 606.392992 
L 217.355422 599.312814 
L 218.883352 608.388028 
L 220.411281 599.521261 
L 221.939211 596.113235 
L 223.467141 607.258728 
L 224.995071 607.299482 
L 226.523001 612.376149 
L 228.050931 606.331187 
L 229.578861 572.977696 
L 231.106791 601.643581 
L 232.634721 610.082417 
L 234.162651 599.184216 
L 235.690581 598.217666 
L 237.21851 578.906753 
L 238.74644 595.837257 
L 240.27437 597.13545 
L 241.8023 592.364511 
L 243.33023 586.400927 
L 244.85816 595.178697 
L 246.38609 615.6 
L 247.91402 612.02389 
L 249.44195 610.914544 
L 250.96988 614.941584 
L 252.497809 611.145369 
L 254.025739 609.224844 
L 255.553669 610.037628 
L 257.081599 611.259581 
L 258.609529 611.794296 
L 260.137459 606.217767 
L 261.665389 607.796955 
L 263.193319 608.524047 
L 264.721249 605.184399 
L 266.249179 605.109994 
L 267.777108 604.745011 
L 269.305038 602.19785 
L 270.832968 603.180438 
L 272.360898 602.407308 
L 273.888828 602.836599 
L 275.416758 601.306116 
L 276.944688 602.571664 
L 278.472618 599.311115 
L 280.000548 598.003718 
L 281.528478 598.489502 
L 283.056407 601.21745 
L 284.584337 597.871969 
L 286.112267 597.334933 
L 287.640197 598.910851 
L 289.168127 601.053801 
L 290.696057 599.320418 
L 292.223987 598.002641 
L 293.751917 593.925678 
L 295.279847 594.303801 
L 296.807777 599.236716 
L 298.335706 596.794783 
L 299.863636 590.521562 
L 301.391566 597.021538 
L 302.919496 595.297994 
L 304.447426 595.544791 
L 305.975356 590.317786 
L 307.503286 591.798774 
L 309.031216 589.636137 
L 310.559146 595.159716 
L 312.087076 592.465342 
L 313.615005 591.827979 
L 315.142935 590.047799 
L 316.670865 590.30961 
L 318.198795 589.456402 
L 319.726725 591.49269 
L 321.254655 588.403087 
L 322.782585 587.848381 
L 324.310515 585.993677 
L 327.366375 587.486354 
L 328.894304 587.359201 
L 330.422234 587.431188 
L 331.950164 586.442587 
L 333.478094 588.588744 
L 335.006024 588.844955 
L 336.533954 588.633195 
L 338.061884 588.928812 
L 339.589814 585.578638 
L 341.117744 585.453046 
L 342.645674 583.75148 
L 345.701533 584.994985 
L 347.229463 585.659898 
L 348.757393 584.312685 
L 350.285323 581.714354 
L 351.813253 583.405681 
L 353.341183 581.705921 
L 354.869113 583.787933 
L 356.397043 580.964525 
L 357.924973 584.698668 
L 359.452903 583.01199 
L 360.980832 581.57554 
L 362.508762 576.294759 
L 364.036692 582.559805 
L 365.564622 583.098242 
L 367.092552 578.696533 
L 368.620482 581.462325 
L 370.148412 579.335922 
L 371.676342 573.817173 
L 373.204272 582.485116 
L 374.732202 575.57457 
L 376.260131 581.728886 
L 377.788061 579.188781 
L 379.315991 581.068221 
L 380.843921 573.076812 
L 382.371851 581.059199 
L 383.899781 578.139199 
L 385.427711 576.688603 
L 386.955641 578.245557 
L 388.483571 573.863961 
L 390.011501 577.444901 
L 391.53943 574.40569 
L 393.06736 576.005227 
L 394.59529 572.898392 
L 396.12322 575.787426 
L 397.65115 575.513271 
L 399.17908 574.833415 
L 400.70701 572.899166 
L 402.23494 573.41777 
L 403.76287 574.134073 
L 405.2908 572.138445 
L 406.818729 574.476711 
L 408.346659 573.842619 
L 409.874589 574.222348 
L 411.402519 574.838248 
L 412.930449 573.350379 
L 414.458379 570.75055 
L 415.986309 570.560936 
L 417.514239 573.086348 
L 419.042169 571.624073 
L 420.570099 573.751184 
L 422.098028 573.534777 
L 423.625958 571.998677 
L 425.153888 570.913532 
L 426.681818 571.289631 
L 428.209748 565.955175 
L 429.737678 568.16338 
L 431.265608 568.719708 
L 432.793538 572.758745 
L 434.321468 569.583067 
L 435.849398 565.302747 
L 437.377327 570.063445 
L 438.905257 569.672109 
L 440.433187 570.224772 
L 441.961117 567.801351 
L 443.489047 563.634926 
L 446.544907 569.670369 
L 448.072837 568.684229 
L 449.600767 570.876609 
L 451.128697 563.448751 
L 452.656627 565.824254 
L 454.184556 563.860397 
L 455.712486 564.49344 
L 457.240416 568.261012 
L 458.768346 567.493948 
L 460.296276 565.120422 
L 461.824206 555.856031 
L 463.352136 565.656836 
L 464.880066 567.267121 
L 466.407996 566.17592 
L 467.935926 565.694236 
L 469.463855 566.181845 
L 470.991785 565.822456 
L 472.519715 565.0472 
L 474.047645 564.846256 
L 475.575575 561.829072 
L 477.103505 564.250725 
L 478.631435 561.756079 
L 480.159365 563.389079 
L 481.687295 564.578621 
L 483.215225 559.987353 
L 484.743154 562.271854 
L 486.271084 560.999667 
L 487.799014 554.221714 
L 489.326944 560.612683 
L 490.854874 561.109058 
L 492.382804 558.967261 
L 493.910734 564.08277 
L 495.438664 555.645114 
L 496.966594 558.218478 
L 498.494524 561.409351 
L 500.022453 560.153621 
L 501.550383 561.346907 
L 503.078313 558.470693 
L 504.606243 556.175792 
L 506.134173 556.783523 
L 507.662103 560.940513 
L 509.190033 559.52455 
L 510.717963 556.69322 
L 512.245893 559.514493 
L 513.773823 558.574009 
L 515.301752 556.214442 
L 516.829682 549.104881 
L 518.357612 558.94455 
L 519.885542 557.790719 
L 521.413472 556.012643 
L 522.941402 553.263582 
L 524.469332 556.399692 
L 525.997262 557.196661 
L 527.525192 556.999839 
L 530.581051 559.348008 
L 532.108981 552.367259 
L 533.636911 552.34897 
L 536.692771 557.366601 
L 538.220701 554.435774 
L 539.748631 556.945667 
L 541.276561 555.503443 
L 542.804491 554.216362 
L 544.332421 555.639887 
L 545.86035 553.341542 
L 547.38828 557.066249 
L 548.91621 552.900718 
L 550.44414 554.984148 
L 551.97207 553.789529 
L 553.5 552.772445 
L 555.02793 549.56742 
L 556.55586 554.639548 
L 558.08379 550.065552 
L 559.61172 548.194162 
L 561.13965 552.852197 
L 562.667579 554.207805 
L 564.195509 548.909148 
L 565.723439 552.963126 
L 567.251369 552.500348 
L 568.779299 553.479499 
L 570.307229 550.958673 
L 571.835159 550.215084 
L 573.363089 549.78587 
L 574.891019 551.80853 
L 576.418949 552.809627 
L 577.946878 552.125702 
L 581.002738 549.933296 
L 582.530668 550.674567 
L 584.058598 549.442224 
L 585.586528 547.764091 
L 587.114458 553.821664 
L 588.642388 550.04931 
L 590.170318 544.274112 
L 591.698248 549.920327 
L 593.226177 544.553158 
L 594.754107 550.699328 
L 596.282037 550.263026 
L 597.809967 547.792289 
L 599.337897 549.363244 
L 600.865827 545.440124 
L 602.393757 546.623862 
L 603.921687 547.573433 
L 605.449617 549.723033 
L 606.977547 548.631714 
L 608.505476 543.868248 
L 610.033406 546.832579 
L 611.561336 548.156768 
L 613.089266 548.478059 
L 614.617196 548.070722 
L 616.145126 547.164289 
L 617.673056 548.573371 
L 619.200986 548.006116 
L 620.728916 545.864963 
L 622.256846 546.109898 
L 623.784775 549.294068 
L 625.312705 545.098072 
L 626.840635 543.271045 
L 628.368565 547.029377 
L 629.896495 544.514884 
L 631.424425 544.64398 
L 632.952355 543.837685 
L 634.480285 545.363246 
L 636.008215 544.238776 
L 637.536145 541.729879 
L 639.064074 543.178822 
L 640.592004 545.495984 
L 642.119934 543.688135 
L 643.647864 540.134609 
L 645.175794 545.902576 
L 646.703724 543.408953 
L 648.231654 543.048807 
L 649.759584 538.500499 
L 651.287514 542.170881 
L 652.815444 542.259615 
L 654.343373 542.751231 
L 655.871303 541.824392 
L 657.399233 544.234522 
L 658.927163 545.083029 
L 660.455093 543.814106 
L 661.983023 542.710471 
L 663.510953 545.513464 
L 665.038883 542.95005 
L 666.566813 541.659217 
L 668.094743 542.97878 
L 669.622673 538.019947 
L 671.150602 541.795744 
L 672.678532 542.401565 
L 674.206462 543.573933 
L 675.734392 539.722822 
L 677.262322 538.809361 
L 678.790252 542.917289 
L 680.318182 538.848963 
L 681.846112 539.447172 
L 683.374042 539.826517 
L 684.901972 539.576356 
L 686.429901 536.668599 
L 687.957831 538.968476 
L 689.485761 536.728012 
L 691.013691 542.77837 
L 694.069551 534.67528 
L 695.597481 538.042772 
L 697.125411 539.867816 
L 698.653341 538.268737 
L 700.181271 534.12649 
L 701.7092 536.728847 
L 703.23713 533.283325 
L 704.76506 538.241794 
L 706.29299 531.659255 
L 707.82092 531.456575 
L 709.34885 538.352587 
L 710.87678 536.459721 
L 712.40471 535.762898 
L 713.93264 531.958203 
L 715.46057 534.737703 
L 716.988499 533.115502 
L 718.516429 535.248497 
L 720.044359 537.180647 
L 721.572289 535.796091 
L 723.100219 535.227629 
L 724.628149 536.69547 
L 726.156079 534.581121 
L 727.684009 536.476355 
L 729.211939 535.585048 
L 730.739869 533.89912 
L 732.267798 531.744742 
L 733.795728 534.287517 
L 735.323658 535.044766 
L 736.851588 536.248559 
L 738.379518 534.478803 
L 739.907448 535.33058 
L 741.435378 534.616664 
L 742.963308 534.783264 
L 744.491238 532.401283 
L 746.019168 533.221473 
L 747.547097 530.976927 
L 749.075027 535.005555 
L 750.602957 528.299207 
L 752.130887 533.266353 
L 753.658817 533.784956 
L 755.186747 532.88985 
L 756.714677 532.478766 
L 758.242607 531.824146 
L 759.770537 529.35789 
L 761.298467 531.968371 
L 762.826396 532.270031 
L 764.354326 529.699604 
L 765.882256 529.672248 
L 767.410186 532.732075 
L 768.938116 529.88636 
L 770.466046 530.2674 
L 771.993976 531.028806 
L 773.521906 532.667299 
L 775.049836 531.126615 
L 776.577766 530.929163 
L 778.105696 525.622541 
L 779.633625 527.675739 
L 781.161555 529.060852 
L 782.689485 533.231527 
L 784.217415 534.620385 
L 785.745345 530.541746 
L 787.273275 528.20795 
L 788.801205 530.743779 
L 790.329135 530.349756 
L 791.857065 531.806237 
L 793.384995 525.560815 
L 794.912924 531.65429 
L 796.440854 527.275367 
L 797.968784 531.958595 
L 799.496714 530.721441 
L 801.024644 527.942592 
L 802.552574 529.779023 
L 804.080504 528.551318 
L 805.608434 526.046549 
L 807.136364 524.526868 
L 808.664294 528.426893 
L 810.192223 527.388454 
L 811.720153 529.443911 
L 813.248083 526.665292 
L 814.776013 531.111261 
L 816.303943 524.627882 
L 817.831873 527.047902 
L 819.359803 530.658722 
L 820.887733 529.048071 
L 822.415663 526.144353 
L 823.943593 526.996958 
L 825.471522 531.674948 
L 826.999452 528.517482 
L 828.527382 526.625888 
L 830.055312 522.974776 
L 831.583242 526.921377 
L 833.111172 523.942128 
L 834.639102 522.093617 
L 836.167032 523.605348 
L 837.694962 521.411472 
L 839.222892 524.884469 
L 840.750821 522.852458 
L 842.278751 526.493588 
L 843.806681 526.212811 
L 845.334611 528.220937 
L 846.862541 527.058786 
L 848.390471 525.034473 
L 849.918401 523.561833 
L 851.446331 527.083042 
L 852.974261 524.499709 
L 854.502191 525.985241 
L 856.03012 527.083027 
L 857.55805 519.603187 
L 859.08598 522.609126 
L 860.61391 520.862515 
L 862.14184 524.268737 
L 863.66977 526.005187 
L 865.1977 520.820674 
L 866.72563 524.151248 
L 868.25356 525.356393 
L 869.78149 524.359205 
L 871.309419 523.079717 
L 872.837349 522.912705 
L 874.365279 525.697843 
L 875.893209 522.252473 
L 877.421139 527.669958 
L 878.949069 525.921588 
L 882.004929 524.121786 
L 883.532859 524.341928 
L 885.060789 515.921953 
L 886.588719 519.378889 
L 888.116648 521.066589 
L 889.644578 524.051154 
L 891.172508 519.801448 
L 892.700438 522.042184 
L 894.228368 522.00097 
L 895.756298 520.207245 
L 897.284228 516.698368 
L 898.812158 523.990275 
L 900.340088 522.032428 
L 901.868018 519.463481 
L 903.395947 516.064362 
L 904.923877 521.847163 
L 906.451807 516.050563 
L 907.979737 519.371288 
L 909.507667 518.129795 
L 911.035597 521.302577 
L 912.563527 520.481637 
L 914.091457 519.4328 
L 915.619387 522.398824 
L 917.147317 520.372796 
L 918.675246 517.730055 
L 920.203176 517.746927 
L 921.731106 520.597094 
L 923.259036 519.667152 
L 924.786966 521.920055 
L 926.314896 516.591897 
L 927.842826 518.34361 
L 929.370756 521.109312 
L 930.898686 520.014356 
L 932.426616 518.220688 
L 933.954545 514.8394 
L 933.954545 514.8394 
" clip-path="url(#pb5e04fd757)" style="fill: none; stroke: #ff0000; stroke-width: 1.5; stroke-linecap: square"/>
   </g>
   <g id="line2d_14">
    <path d="M 173.045455 111.6 
L 174.573384 233.901234 
L 176.101314 320.997383 
L 177.629244 374.083188 
L 179.157174 415.163042 
L 180.685104 477.173297 
L 182.213034 508.051489 
L 183.740964 519.153312 
L 185.268894 522.782696 
L 186.796824 546.244452 
L 188.324754 557.40937 
L 189.852683 579.625482 
L 191.380613 581.682903 
L 192.908543 580.721233 
L 194.436473 592.434853 
L 195.964403 573.685452 
L 197.492333 597.112324 
L 199.020263 552.589211 
L 200.548193 586.328924 
L 202.076123 588.937758 
L 203.604053 584.891958 
L 205.131982 588.870686 
L 206.659912 591.894917 
L 208.187842 590.823942 
L 209.715772 596.598083 
L 211.243702 578.732865 
L 212.771632 578.572028 
L 214.299562 587.828715 
L 215.827492 589.373619 
L 217.355422 582.771329 
L 218.883352 591.180555 
L 220.411281 582.051493 
L 221.939211 578.845216 
L 223.467141 590.357984 
L 224.995071 590.419947 
L 226.523001 595.228516 
L 228.050931 589.613385 
L 229.578861 553.819401 
L 231.106791 584.980741 
L 232.634721 593.272823 
L 234.162651 581.376648 
L 235.690581 580.299425 
L 237.21851 561.777975 
L 238.74644 577.949094 
L 240.27437 578.9905 
L 243.33023 569.48219 
L 244.85816 576.383469 
L 246.38609 597.565995 
L 247.91402 594.388187 
L 249.44195 593.287137 
L 250.96988 597.255244 
L 252.497809 594.027926 
L 254.025739 591.084826 
L 255.553669 592.717393 
L 257.081599 594.037391 
L 258.609529 593.870869 
L 260.137459 588.364584 
L 261.665389 590.138444 
L 263.193319 590.279763 
L 264.721249 587.87988 
L 266.249179 586.969407 
L 267.777108 586.564656 
L 269.305038 584.562974 
L 273.888828 585.303512 
L 275.416758 583.921628 
L 276.944688 585.666786 
L 278.472618 581.131994 
L 280.000548 579.792625 
L 281.528478 580.713189 
L 283.056407 583.569871 
L 284.584337 579.848153 
L 286.112267 579.834746 
L 289.168127 582.506881 
L 290.696057 580.754603 
L 292.223987 580.090823 
L 293.751917 575.88738 
L 295.279847 576.910768 
L 296.807777 580.97017 
L 298.335706 578.809618 
L 299.863636 572.948808 
L 301.391566 579.379384 
L 302.919496 577.013912 
L 304.447426 578.16724 
L 305.975356 572.113608 
L 307.503286 573.503753 
L 309.031216 572.171105 
L 310.559146 577.050922 
L 312.087076 574.816041 
L 313.615005 572.916297 
L 315.142935 572.75312 
L 316.670865 571.242696 
L 318.198795 572.089986 
L 319.726725 573.291053 
L 321.254655 570.487532 
L 322.782585 569.087337 
L 324.310515 567.323965 
L 325.838445 567.922999 
L 327.366375 570.032406 
L 328.894304 570.02686 
L 330.422234 569.507783 
L 331.950164 568.016339 
L 333.478094 570.527971 
L 335.006024 570.749468 
L 336.533954 570.331579 
L 338.061884 570.463518 
L 339.589814 566.66426 
L 341.117744 566.986467 
L 342.645674 564.93476 
L 344.173604 567.472885 
L 345.701533 567.212341 
L 347.229463 567.477232 
L 348.757393 566.632252 
L 350.285323 563.557173 
L 351.813253 565.607841 
L 353.341183 563.89445 
L 354.869113 565.024756 
L 356.397043 563.330784 
L 357.924973 566.679164 
L 359.452903 565.482092 
L 360.980832 563.533021 
L 362.508762 558.438832 
L 364.036692 564.530934 
L 365.564622 564.280591 
L 367.092552 560.013287 
L 368.620482 563.638254 
L 370.148412 560.815218 
L 371.676342 555.841049 
L 373.204272 564.389908 
L 374.732202 558.018427 
L 376.260131 563.616875 
L 377.788061 560.718723 
L 379.315991 562.292476 
L 380.843921 554.43348 
L 382.371851 562.4442 
L 383.899781 560.297308 
L 385.427711 558.97462 
L 386.955641 560.537059 
L 388.483571 555.930586 
L 390.011501 558.95607 
L 391.53943 556.183485 
L 393.06736 558.079929 
L 394.59529 554.8266 
L 396.12322 557.457506 
L 397.65115 557.02949 
L 399.17908 556.465921 
L 400.70701 554.424219 
L 402.23494 554.905604 
L 403.76287 555.224599 
L 405.2908 552.912263 
L 406.818729 555.59828 
L 408.346659 555.041511 
L 409.874589 556.970892 
L 411.402519 556.604653 
L 412.930449 555.192686 
L 414.458379 552.24599 
L 415.986309 551.595393 
L 417.514239 554.930431 
L 419.042169 553.329511 
L 420.570099 555.452966 
L 423.625958 553.779745 
L 425.153888 552.515826 
L 426.681818 553.062078 
L 428.209748 548.066181 
L 429.737678 549.82369 
L 431.265608 550.155272 
L 432.793538 554.37133 
L 434.321468 551.154324 
L 435.849398 546.190739 
L 437.377327 551.607629 
L 438.905257 551.281285 
L 440.433187 552.003429 
L 441.961117 549.302754 
L 443.489047 545.409695 
L 445.016977 547.354904 
L 446.544907 550.272941 
L 448.072837 550.052892 
L 449.600767 552.226938 
L 451.128697 544.601864 
L 452.656627 546.975447 
L 454.184556 545.33693 
L 455.712486 545.869572 
L 457.240416 549.913227 
L 458.768346 548.942208 
L 460.296276 548.247373 
L 461.824206 537.405808 
L 463.352136 546.748265 
L 464.880066 548.749628 
L 466.407996 547.983492 
L 467.935926 546.793726 
L 469.463855 548.327521 
L 470.991785 547.63653 
L 472.519715 546.753101 
L 474.047645 547.252833 
L 475.575575 543.032262 
L 477.103505 544.961416 
L 478.631435 543.312855 
L 480.159365 544.924576 
L 481.687295 545.57332 
L 483.215225 541.795002 
L 484.743154 544.099554 
L 486.271084 541.691987 
L 487.799014 535.757977 
L 489.326944 541.763033 
L 490.854874 542.5599 
L 492.382804 541.000276 
L 493.910734 545.710533 
L 495.438664 537.252846 
L 496.966594 539.837472 
L 498.494524 542.989089 
L 500.022453 541.734548 
L 501.550383 542.92058 
L 503.078313 540.191778 
L 504.606243 537.783123 
L 506.134173 538.068682 
L 507.662103 542.098643 
L 509.190033 541.029995 
L 510.717963 537.803273 
L 512.245893 540.862572 
L 513.773823 539.396731 
L 515.301752 538.251691 
L 516.829682 530.013172 
L 518.357612 540.652257 
L 519.885542 539.25051 
L 521.413472 537.306406 
L 522.941402 534.308972 
L 524.469332 537.79557 
L 525.997262 539.16981 
L 527.525192 539.021694 
L 530.581051 540.59395 
L 532.108981 534.089723 
L 533.636911 533.321286 
L 535.164841 536.054596 
L 536.692771 539.329408 
L 538.220701 536.06504 
L 539.748631 538.587122 
L 541.276561 536.855172 
L 542.804491 535.353767 
L 544.332421 536.451416 
L 545.86035 535.311036 
L 547.38828 539.152228 
L 548.91621 534.400352 
L 550.44414 536.187381 
L 551.97207 535.098836 
L 553.5 534.569222 
L 555.02793 531.395982 
L 556.55586 535.645827 
L 558.08379 530.612814 
L 559.61172 529.421517 
L 561.13965 534.615605 
L 562.667579 535.510059 
L 564.195509 529.517127 
L 565.723439 534.211391 
L 567.251369 534.057291 
L 568.779299 534.814195 
L 570.307229 532.426721 
L 571.835159 532.353138 
L 573.363089 531.124125 
L 576.418949 534.181894 
L 577.946878 533.163217 
L 579.474808 532.879427 
L 581.002738 531.295805 
L 582.530668 532.571084 
L 584.058598 530.706535 
L 585.586528 529.058578 
L 587.114458 534.568235 
L 588.642388 532.195553 
L 590.170318 526.149475 
L 591.698248 531.937003 
L 593.226177 525.544361 
L 594.754107 532.05076 
L 596.282037 531.146476 
L 597.809967 528.878786 
L 599.337897 530.597043 
L 600.865827 526.499614 
L 602.393757 527.352821 
L 603.921687 529.486146 
L 605.449617 531.009237 
L 606.977547 530.612851 
L 608.505476 524.698404 
L 610.033406 528.254168 
L 611.561336 530.058323 
L 613.089266 530.347573 
L 614.617196 529.171377 
L 616.145126 528.246636 
L 617.673056 530.002271 
L 619.200986 529.484515 
L 620.728916 527.152552 
L 622.256846 527.440694 
L 623.784775 531.131557 
L 625.312705 525.584818 
L 626.840635 524.290056 
L 628.368565 528.57227 
L 629.896495 526.32664 
L 631.424425 526.761037 
L 632.952355 525.217354 
L 634.480285 526.313559 
L 636.008215 525.903614 
L 637.536145 523.216161 
L 639.064074 524.40536 
L 640.592004 527.055683 
L 642.119934 525.610775 
L 643.647864 522.124794 
L 645.175794 527.663277 
L 646.703724 524.945861 
L 648.231654 524.04823 
L 649.759584 520.092245 
L 651.287514 523.648066 
L 652.815444 525.032634 
L 654.343373 524.320053 
L 655.871303 523.376833 
L 657.399233 526.454977 
L 658.927163 526.984428 
L 660.455093 525.50865 
L 661.983023 525.175783 
L 663.510953 527.891264 
L 665.038883 524.302495 
L 666.566813 522.898268 
L 668.094743 524.219345 
L 669.622673 519.492313 
L 671.150602 522.700406 
L 672.678532 524.298707 
L 674.206462 525.249301 
L 675.734392 521.119773 
L 677.262322 520.539122 
L 678.790252 524.187812 
L 680.318182 520.454898 
L 683.374042 520.702012 
L 684.901972 521.282813 
L 686.429901 518.064015 
L 687.957831 520.408509 
L 689.485761 517.504669 
L 691.013691 524.149258 
L 692.541621 519.595282 
L 694.069551 515.430894 
L 695.597481 519.444889 
L 697.125411 521.088592 
L 698.653341 519.921322 
L 700.181271 515.962708 
L 701.7092 518.159219 
L 703.23713 514.681964 
L 704.76506 519.775653 
L 706.29299 513.021757 
L 707.82092 512.184468 
L 709.34885 519.785412 
L 710.87678 518.111741 
L 712.40471 516.722182 
L 713.93264 513.199231 
L 715.46057 515.717448 
L 716.988499 514.099272 
L 718.516429 516.321173 
L 720.044359 518.819216 
L 721.572289 517.521492 
L 723.100219 517.845747 
L 724.628149 518.305758 
L 726.156079 516.811811 
L 727.684009 517.767005 
L 729.211939 517.343296 
L 730.739869 515.522614 
L 732.267798 513.398309 
L 733.795728 516.157698 
L 735.323658 516.410295 
L 736.851588 517.683508 
L 738.379518 515.756955 
L 739.907448 517.060185 
L 741.435378 515.600588 
L 742.963308 515.620358 
L 744.491238 513.872669 
L 746.019168 515.097523 
L 747.547097 512.357811 
L 749.075027 515.999697 
L 750.602957 510.061024 
L 752.130887 513.963062 
L 753.658817 515.320335 
L 755.186747 514.461811 
L 756.714677 513.899797 
L 758.242607 512.864428 
L 759.770537 510.60545 
L 761.298467 513.707768 
L 762.826396 513.194113 
L 764.354326 510.598986 
L 765.882256 510.040365 
L 767.410186 513.653616 
L 768.938116 510.594397 
L 770.466046 511.363477 
L 771.993976 512.969245 
L 773.521906 513.907279 
L 775.049836 512.1264 
L 776.577766 511.982161 
L 778.105696 507.198042 
L 779.633625 508.730525 
L 781.161555 510.728387 
L 782.689485 514.064359 
L 784.217415 515.495421 
L 785.745345 511.63943 
L 787.273275 509.636101 
L 788.801205 512.126369 
L 790.329135 511.32581 
L 791.857065 513.848321 
L 793.384995 506.597099 
L 794.912924 512.945041 
L 796.440854 509.152125 
L 797.968784 512.78486 
L 799.496714 512.000851 
L 801.024644 509.313157 
L 802.552574 511.565813 
L 804.080504 509.372011 
L 807.136364 505.653001 
L 808.664294 509.344253 
L 810.192223 508.305322 
L 811.720153 511.287094 
L 813.248083 507.87684 
L 814.776013 512.457488 
L 816.303943 505.797532 
L 817.831873 508.541039 
L 819.359803 511.972119 
L 820.887733 510.244707 
L 822.415663 507.482592 
L 823.943593 509.051247 
L 825.471522 513.293159 
L 826.999452 510.360571 
L 828.527382 508.091226 
L 830.055312 504.556253 
L 831.583242 509.266736 
L 833.111172 505.273504 
L 834.639102 503.407359 
L 836.167032 505.062287 
L 837.694962 503.245879 
L 839.222892 506.36494 
L 840.750821 503.710102 
L 842.278751 508.191137 
L 843.806681 507.346437 
L 845.334611 509.532565 
L 846.862541 507.989001 
L 848.390471 506.244566 
L 849.918401 504.238248 
L 851.446331 509.064006 
L 852.974261 506.424396 
L 854.502191 507.377111 
L 856.03012 508.716016 
L 857.55805 500.630574 
L 859.08598 503.953825 
L 860.61391 501.773568 
L 862.14184 505.946276 
L 863.66977 507.634665 
L 865.1977 502.934561 
L 866.72563 505.940779 
L 868.25356 507.218026 
L 869.78149 504.846974 
L 872.837349 504.066917 
L 874.365279 507.62898 
L 875.893209 503.2552 
L 877.421139 509.11052 
L 878.949069 508.023097 
L 882.004929 505.499594 
L 883.532859 505.999668 
L 885.060789 497.2776 
L 886.588719 500.061672 
L 888.116648 501.701889 
L 889.644578 504.996707 
L 891.172508 501.01971 
L 892.700438 503.683005 
L 894.228368 503.62356 
L 895.756298 500.72703 
L 897.284228 498.387498 
L 898.812158 506.232096 
L 900.340088 503.389349 
L 901.868018 501.347886 
L 903.395947 497.360021 
L 904.923877 503.216868 
L 906.451807 497.409719 
L 907.979737 500.773359 
L 909.507667 499.289134 
L 911.035597 503.039449 
L 912.563527 502.746542 
L 914.091457 500.383031 
L 915.619387 503.89961 
L 917.147317 502.287576 
L 918.675246 498.68598 
L 920.203176 499.551419 
L 921.731106 501.457583 
L 923.259036 500.984282 
L 924.786966 503.362909 
L 926.314896 497.666352 
L 927.842826 498.58695 
L 929.370756 502.237978 
L 930.898686 501.624394 
L 932.426616 499.471165 
L 933.954545 495.513392 
L 933.954545 495.513392 
" clip-path="url(#pb5e04fd757)" style="fill: none; stroke: #1e90ff; stroke-width: 1.5; stroke-linecap: square"/>
   </g>
   <g id="patch_3">
    <path d="M 135 640.8 
L 135 86.4 
" style="fill: none; stroke: #000000; stroke-width: 0.8; stroke-linejoin: miter; stroke-linecap: square"/>
   </g>
   <g id="patch_4">
    <path d="M 972 640.8 
L 972 86.4 
" style="fill: none; stroke: #000000; stroke-width: 0.8; stroke-linejoin: miter; stroke-linecap: square"/>
   </g>
   <g id="patch_5">
    <path d="M 135 640.8 
L 972 640.8 
" style="fill: none; stroke: #000000; stroke-width: 0.8; stroke-linejoin: miter; stroke-linecap: square"/>
   </g>
   <g id="patch_6">
    <path d="M 135 86.4 
L 972 86.4 
" style="fill: none; stroke: #000000; stroke-width: 0.8; stroke-linejoin: miter; stroke-linecap: square"/>
   </g>
   <g id="text_15">
    <!-- Reconstruction score during validation -->
    <g transform="translate(380.040469 80.4) scale(0.18 -0.18)">
     <defs>
      <path id="DejaVuSans-64" d="M 2906 2969 
L 2906 4863 
L 3481 4863 
L 3481 0 
L 2906 0 
L 2906 525 
Q 2725 213 2448 61 
Q 2172 -91 1784 -91 
Q 1150 -91 751 415 
Q 353 922 353 1747 
Q 353 2572 751 3078 
Q 1150 3584 1784 3584 
Q 2172 3584 2448 3432 
Q 2725 3281 2906 2969 
z
M 947 1747 
Q 947 1113 1208 752 
Q 1469 391 1925 391 
Q 2381 391 2643 752 
Q 2906 1113 2906 1747 
Q 2906 2381 2643 2742 
Q 2381 3103 1925 3103 
Q 1469 3103 1208 2742 
Q 947 2381 947 1747 
z
" transform="scale(0.015625)"/>
      <path id="DejaVuSans-67" d="M 2906 1791 
Q 2906 2416 2648 2759 
Q 2391 3103 1925 3103 
Q 1463 3103 1205 2759 
Q 947 2416 947 1791 
Q 947 1169 1205 825 
Q 1463 481 1925 481 
Q 2391 481 2648 825 
Q 2906 1169 2906 1791 
z
M 3481 434 
Q 3481 -459 3084 -895 
Q 2688 -1331 1869 -1331 
Q 1566 -1331 1297 -1286 
Q 1028 -1241 775 -1147 
L 775 -588 
Q 1028 -725 1275 -790 
Q 1522 -856 1778 -856 
Q 2344 -856 2625 -561 
Q 2906 -266 2906 331 
L 2906 616 
Q 2728 306 2450 153 
Q 2172 0 1784 0 
Q 1141 0 747 490 
Q 353 981 353 1791 
Q 353 2603 747 3093 
Q 1141 3584 1784 3584 
Q 2172 3584 2450 3431 
Q 2728 3278 2906 2969 
L 2906 3500 
L 3481 3500 
L 3481 434 
z
" transform="scale(0.015625)"/>
      <path id="DejaVuSans-76" d="M 191 3500 
L 800 3500 
L 1894 563 
L 2988 3500 
L 3597 3500 
L 2284 0 
L 1503 0 
L 191 3500 
z
" transform="scale(0.015625)"/>
      <path id="DejaVuSans-61" d="M 2194 1759 
Q 1497 1759 1228 1600 
Q 959 1441 959 1056 
Q 959 750 1161 570 
Q 1363 391 1709 391 
Q 2188 391 2477 730 
Q 2766 1069 2766 1631 
L 2766 1759 
L 2194 1759 
z
M 3341 1997 
L 3341 0 
L 2766 0 
L 2766 531 
Q 2569 213 2275 61 
Q 1981 -91 1556 -91 
Q 1019 -91 701 211 
Q 384 513 384 1019 
Q 384 1609 779 1909 
Q 1175 2209 1959 2209 
L 2766 2209 
L 2766 2266 
Q 2766 2663 2505 2880 
Q 2244 3097 1772 3097 
Q 1472 3097 1187 3025 
Q 903 2953 641 2809 
L 641 3341 
Q 956 3463 1253 3523 
Q 1550 3584 1831 3584 
Q 2591 3584 2966 3190 
Q 3341 2797 3341 1997 
z
" transform="scale(0.015625)"/>
      <path id="DejaVuSans-6c" d="M 603 4863 
L 1178 4863 
L 1178 0 
L 603 0 
L 603 4863 
z
" transform="scale(0.015625)"/>
     </defs>
     <use xlink:href="#DejaVuSans-52"/>
     <use xlink:href="#DejaVuSans-65" x="64.982422"/>
     <use xlink:href="#DejaVuSans-63" x="126.505859"/>
     <use xlink:href="#DejaVuSans-6f" x="181.486328"/>
     <use xlink:href="#DejaVuSans-6e" x="242.667969"/>
     <use xlink:href="#DejaVuSans-73" x="306.046875"/>
     <use xlink:href="#DejaVuSans-74" x="358.146484"/>
     <use xlink:href="#DejaVuSans-72" x="397.355469"/>
     <use xlink:href="#DejaVuSans-75" x="438.46875"/>
     <use xlink:href="#DejaVuSans-63" x="501.847656"/>
     <use xlink:href="#DejaVuSans-74" x="556.828125"/>
     <use xlink:href="#DejaVuSans-69" x="596.037109"/>
     <use xlink:href="#DejaVuSans-6f" x="623.820312"/>
     <use xlink:href="#DejaVuSans-6e" x="685.001953"/>
     <use xlink:href="#DejaVuSans-20" x="748.380859"/>
     <use xlink:href="#DejaVuSans-73" x="780.167969"/>
     <use xlink:href="#DejaVuSans-63" x="832.267578"/>
     <use xlink:href="#DejaVuSans-6f" x="887.248047"/>
     <use xlink:href="#DejaVuSans-72" x="948.429688"/>
     <use xlink:href="#DejaVuSans-65" x="987.292969"/>
     <use xlink:href="#DejaVuSans-20" x="1048.816406"/>
     <use xlink:href="#DejaVuSans-64" x="1080.603516"/>
     <use xlink:href="#DejaVuSans-75" x="1144.080078"/>
     <use xlink:href="#DejaVuSans-72" x="1207.458984"/>
     <use xlink:href="#DejaVuSans-69" x="1248.572266"/>
     <use xlink:href="#DejaVuSans-6e" x="1276.355469"/>
     <use xlink:href="#DejaVuSans-67" x="1339.734375"/>
     <use xlink:href="#DejaVuSans-20" x="1403.210938"/>
     <use xlink:href="#DejaVuSans-76" x="1434.998047"/>
     <use xlink:href="#DejaVuSans-61" x="1494.177734"/>
     <use xlink:href="#DejaVuSans-6c" x="1555.457031"/>
     <use xlink:href="#DejaVuSans-69" x="1583.240234"/>
     <use xlink:href="#DejaVuSans-64" x="1611.023438"/>
     <use xlink:href="#DejaVuSans-61" x="1674.5"/>
     <use xlink:href="#DejaVuSans-74" x="1735.779297"/>
     <use xlink:href="#DejaVuSans-69" x="1774.988281"/>
     <use xlink:href="#DejaVuSans-6f" x="1802.771484"/>
     <use xlink:href="#DejaVuSans-6e" x="1863.953125"/>
    </g>
   </g>
   <g id="legend_1">
    <g id="patch_7">
     <path d="M 555.179063 153.64125 
L 959.4 153.64125 
Q 963 153.64125 963 150.04125 
L 963 99 
Q 963 95.4 959.4 95.4 
L 555.179063 95.4 
Q 551.579063 95.4 551.579063 99 
L 551.579063 150.04125 
Q 551.579063 153.64125 555.179063 153.64125 
z
" style="fill: #ffffff; opacity: 0.8; stroke: #cccccc; stroke-linejoin: miter"/>
    </g>
    <g id="line2d_15">
     <path d="M 558.779063 109.977187 
L 576.779063 109.977187 
L 594.779063 109.977187 
" style="fill: none; stroke: #ff0000; stroke-width: 1.5; stroke-linecap: square"/>
    </g>
    <g id="text_16">
     <!-- Deepfake images reconstruction score -->
     <g transform="translate(609.179063 116.277187) scale(0.18 -0.18)">
      <defs>
       <path id="DejaVuSans-44" d="M 1259 4147 
L 1259 519 
L 2022 519 
Q 2988 519 3436 956 
Q 3884 1394 3884 2338 
Q 3884 3275 3436 3711 
Q 2988 4147 2022 4147 
L 1259 4147 
z
M 628 4666 
L 1925 4666 
Q 3281 4666 3915 4102 
Q 4550 3538 4550 2338 
Q 4550 1131 3912 565 
Q 3275 0 1925 0 
L 628 0 
L 628 4666 
z
" transform="scale(0.015625)"/>
       <path id="DejaVuSans-66" d="M 2375 4863 
L 2375 4384 
L 1825 4384 
Q 1516 4384 1395 4259 
Q 1275 4134 1275 3809 
L 1275 3500 
L 2222 3500 
L 2222 3053 
L 1275 3053 
L 1275 0 
L 697 0 
L 697 3053 
L 147 3053 
L 147 3500 
L 697 3500 
L 697 3744 
Q 697 4328 969 4595 
Q 1241 4863 1831 4863 
L 2375 4863 
z
" transform="scale(0.015625)"/>
       <path id="DejaVuSans-6b" d="M 581 4863 
L 1159 4863 
L 1159 1991 
L 2875 3500 
L 3609 3500 
L 1753 1863 
L 3688 0 
L 2938 0 
L 1159 1709 
L 1159 0 
L 581 0 
L 581 4863 
z
" transform="scale(0.015625)"/>
       <path id="DejaVuSans-6d" d="M 3328 2828 
Q 3544 3216 3844 3400 
Q 4144 3584 4550 3584 
Q 5097 3584 5394 3201 
Q 5691 2819 5691 2113 
L 5691 0 
L 5113 0 
L 5113 2094 
Q 5113 2597 4934 2840 
Q 4756 3084 4391 3084 
Q 3944 3084 3684 2787 
Q 3425 2491 3425 1978 
L 3425 0 
L 2847 0 
L 2847 2094 
Q 2847 2600 2669 2842 
Q 2491 3084 2119 3084 
Q 1678 3084 1418 2786 
Q 1159 2488 1159 1978 
L 1159 0 
L 581 0 
L 581 3500 
L 1159 3500 
L 1159 2956 
Q 1356 3278 1631 3431 
Q 1906 3584 2284 3584 
Q 2666 3584 2933 3390 
Q 3200 3197 3328 2828 
z
" transform="scale(0.015625)"/>
      </defs>
      <use xlink:href="#DejaVuSans-44"/>
      <use xlink:href="#DejaVuSans-65" x="77.001953"/>
      <use xlink:href="#DejaVuSans-65" x="138.525391"/>
      <use xlink:href="#DejaVuSans-70" x="200.048828"/>
      <use xlink:href="#DejaVuSans-66" x="263.525391"/>
      <use xlink:href="#DejaVuSans-61" x="298.730469"/>
      <use xlink:href="#DejaVuSans-6b" x="360.009766"/>
      <use xlink:href="#DejaVuSans-65" x="414.294922"/>
      <use xlink:href="#DejaVuSans-20" x="475.818359"/>
      <use xlink:href="#DejaVuSans-69" x="507.605469"/>
      <use xlink:href="#DejaVuSans-6d" x="535.388672"/>
      <use xlink:href="#DejaVuSans-61" x="632.800781"/>
      <use xlink:href="#DejaVuSans-67" x="694.080078"/>
      <use xlink:href="#DejaVuSans-65" x="757.556641"/>
      <use xlink:href="#DejaVuSans-73" x="819.080078"/>
      <use xlink:href="#DejaVuSans-20" x="871.179688"/>
      <use xlink:href="#DejaVuSans-72" x="902.966797"/>
      <use xlink:href="#DejaVuSans-65" x="941.830078"/>
      <use xlink:href="#DejaVuSans-63" x="1003.353516"/>
      <use xlink:href="#DejaVuSans-6f" x="1058.333984"/>
      <use xlink:href="#DejaVuSans-6e" x="1119.515625"/>
      <use xlink:href="#DejaVuSans-73" x="1182.894531"/>
      <use xlink:href="#DejaVuSans-74" x="1234.994141"/>
      <use xlink:href="#DejaVuSans-72" x="1274.203125"/>
      <use xlink:href="#DejaVuSans-75" x="1315.316406"/>
      <use xlink:href="#DejaVuSans-63" x="1378.695312"/>
      <use xlink:href="#DejaVuSans-74" x="1433.675781"/>
      <use xlink:href="#DejaVuSans-69" x="1472.884766"/>
      <use xlink:href="#DejaVuSans-6f" x="1500.667969"/>
      <use xlink:href="#DejaVuSans-6e" x="1561.849609"/>
      <use xlink:href="#DejaVuSans-20" x="1625.228516"/>
      <use xlink:href="#DejaVuSans-73" x="1657.015625"/>
      <use xlink:href="#DejaVuSans-63" x="1709.115234"/>
      <use xlink:href="#DejaVuSans-6f" x="1764.095703"/>
      <use xlink:href="#DejaVuSans-72" x="1825.277344"/>
      <use xlink:href="#DejaVuSans-65" x="1864.140625"/>
     </g>
    </g>
    <g id="line2d_16">
     <path d="M 558.779063 136.397812 
L 576.779063 136.397812 
L 594.779063 136.397812 
" style="fill: none; stroke: #1e90ff; stroke-width: 1.5; stroke-linecap: square"/>
    </g>
    <g id="text_17">
     <!-- Real images reconstruction score -->
     <g transform="translate(609.179063 142.697812) scale(0.18 -0.18)">
      <use xlink:href="#DejaVuSans-52"/>
      <use xlink:href="#DejaVuSans-65" x="64.982422"/>
      <use xlink:href="#DejaVuSans-61" x="126.505859"/>
      <use xlink:href="#DejaVuSans-6c" x="187.785156"/>
      <use xlink:href="#DejaVuSans-20" x="215.568359"/>
      <use xlink:href="#DejaVuSans-69" x="247.355469"/>
      <use xlink:href="#DejaVuSans-6d" x="275.138672"/>
      <use xlink:href="#DejaVuSans-61" x="372.550781"/>
      <use xlink:href="#DejaVuSans-67" x="433.830078"/>
      <use xlink:href="#DejaVuSans-65" x="497.306641"/>
      <use xlink:href="#DejaVuSans-73" x="558.830078"/>
      <use xlink:href="#DejaVuSans-20" x="610.929688"/>
      <use xlink:href="#DejaVuSans-72" x="642.716797"/>
      <use xlink:href="#DejaVuSans-65" x="681.580078"/>
      <use xlink:href="#DejaVuSans-63" x="743.103516"/>
      <use xlink:href="#DejaVuSans-6f" x="798.083984"/>
      <use xlink:href="#DejaVuSans-6e" x="859.265625"/>
      <use xlink:href="#DejaVuSans-73" x="922.644531"/>
      <use xlink:href="#DejaVuSans-74" x="974.744141"/>
      <use xlink:href="#DejaVuSans-72" x="1013.953125"/>
      <use xlink:href="#DejaVuSans-75" x="1055.066406"/>
      <use xlink:href="#DejaVuSans-63" x="1118.445312"/>
      <use xlink:href="#DejaVuSans-74" x="1173.425781"/>
      <use xlink:href="#DejaVuSans-69" x="1212.634766"/>
      <use xlink:href="#DejaVuSans-6f" x="1240.417969"/>
      <use xlink:href="#DejaVuSans-6e" x="1301.599609"/>
      <use xlink:href="#DejaVuSans-20" x="1364.978516"/>
      <use xlink:href="#DejaVuSans-73" x="1396.765625"/>
      <use xlink:href="#DejaVuSans-63" x="1448.865234"/>
      <use xlink:href="#DejaVuSans-6f" x="1503.845703"/>
      <use xlink:href="#DejaVuSans-72" x="1565.027344"/>
      <use xlink:href="#DejaVuSans-65" x="1603.890625"/>
     </g>
    </g>
   </g>
  </g>
 </g>
 <defs>
  <clipPath id="pb5e04fd757">
   <rect x="135" y="86.4" width="837" height="554.4"/>
  </clipPath>
 </defs>
</svg>
